<mxfile host="Electron" agent="Mozilla/5.0 (Windows NT 10.0; Win64; x64) AppleWebKit/537.36 (KHTML, like Gecko) draw.io/24.7.5 Chrome/126.0.6478.183 Electron/31.3.0 Safari/537.36" version="24.7.5" pages="2">
  <diagram id="HvnVh_ahCM78XvNqjFqs" name="第 1 页">
    <mxGraphModel dx="1434" dy="844" grid="1" gridSize="10" guides="1" tooltips="1" connect="1" arrows="1" fold="1" page="1" pageScale="1" pageWidth="1169" pageHeight="827" math="0" shadow="0">
      <root>
        <mxCell id="0" />
        <mxCell id="1" parent="0" />
        <mxCell id="9g0iIzlrFkyKwQP7tY-k-10" value="" style="rounded=0;whiteSpace=wrap;html=1;dashed=1;fillColor=none;" parent="1" vertex="1">
          <mxGeometry x="50" y="253.96" width="580" height="212.5" as="geometry" />
        </mxCell>
        <mxCell id="9g0iIzlrFkyKwQP7tY-k-9" value="" style="rounded=0;whiteSpace=wrap;html=1;dashed=1;fillColor=none;" parent="1" vertex="1">
          <mxGeometry x="50" y="27.5" width="580" height="212.5" as="geometry" />
        </mxCell>
        <mxCell id="6rBw9XhMEreijy0vVYXg-1" style="edgeStyle=orthogonalEdgeStyle;rounded=0;orthogonalLoop=1;jettySize=auto;html=1;startArrow=classic;startFill=1;" parent="1" source="6rBw9XhMEreijy0vVYXg-5" edge="1">
          <mxGeometry relative="1" as="geometry">
            <mxPoint x="180" y="120.09999999999991" as="sourcePoint" />
            <mxPoint x="430" y="120" as="targetPoint" />
          </mxGeometry>
        </mxCell>
        <mxCell id="6rBw9XhMEreijy0vVYXg-2" value="使用者&amp;nbsp;" style="verticalLabelPosition=bottom;aspect=fixed;html=1;shape=mxgraph.salesforce.web;" parent="1" vertex="1">
          <mxGeometry x="120" y="86.30000000000001" width="60" height="47.400000000000006" as="geometry" />
        </mxCell>
        <mxCell id="6rBw9XhMEreijy0vVYXg-3" value="Web Server" style="image;aspect=fixed;perimeter=ellipsePerimeter;html=1;align=center;shadow=0;dashed=0;spacingTop=3;image=img/lib/active_directory/web_server.svg;" parent="1" vertex="1">
          <mxGeometry x="430" y="50" width="112" height="140" as="geometry" />
        </mxCell>
        <mxCell id="6rBw9XhMEreijy0vVYXg-4" value="" style="edgeStyle=orthogonalEdgeStyle;rounded=0;orthogonalLoop=1;jettySize=auto;html=1;startArrow=classic;startFill=1;" parent="1" target="6rBw9XhMEreijy0vVYXg-5" edge="1">
          <mxGeometry relative="1" as="geometry">
            <mxPoint x="180" y="120.09999999999991" as="sourcePoint" />
            <mxPoint x="430" y="120" as="targetPoint" />
          </mxGeometry>
        </mxCell>
        <mxCell id="6rBw9XhMEreijy0vVYXg-5" value="Nginx " style="shape=image;verticalLabelPosition=bottom;labelBackgroundColor=default;verticalAlign=top;aspect=fixed;imageAspect=0;image=data:image/png,iVBORw0KGgoAAAANSUhEUgAAAOEAAADhCAIAAACx0UUtAAATCElEQVR4Ae2dz2vUzhvH5y/4/heCp9JlYWEXXFjYgycPigd7KuJZkIJ4EOlRCt3dsFk+IEpFq2BFkPXQIrjgoVgotNKCvbSlsHiwtBRLC6Wl7NenU8dNk02TySSZJG/xMMnmx+T9vDozT+bJM6yHf1BAbwWY3tVD7aBAD4wCAt0VAKO6Wwj1A6NgQHcFwKjuFkL9wCgY0F0BMKq7hVA/MAoGdFcAjOpuIdQPjCpj4Pj0ZHO3u7a9sbnbPT49UXbdzF8IjCpAYGZltvhqlNVyrFE4/1/LFV+NzqzMKrh65i8BRgMh0FlfYK0qM0qsVf3ff9f7/4v9nfWFQPfI/MlgVBKBzd3utdd3WaPQz6VjmTUK117f3dztSt4p86eBUd8I7B8djM1NsMkhe9vpyOj//rtOberk0NjcxP7Rge/7Zf4EMOoPgenlNo04zcogHF32M7PCGoXp5ba/W2b+aDDqFYH5rSVqEY2SC4VefuJXmN9a8nrjzB8HRi9H4OfvXzfe3Wf1vPfO3R1W6vrr+Rvv7v/8/evy22f+CDDqhsDx6cl4x/Q19HSns/9XPkgd75h4mepmgx5inAfL8/b7J2YUWbPcD5byMmuWmVF8+/3T4Ipk/Re0ow4ELHZXrzy/xYyiciIHXZAZxSvPby12Vx1qk/ldYNSCwM7h3p0PDxUOPQdBad/PB6l3PjzcOdyz1CnzG2D0HwJPvz6joafUeyU7c3J76P3U5NDTr8/+VSvzJTBKCLR/fKFxYchDT+/U8sq0f3zJPJ8kQNYZXdveGJ4a8TKl6Z0wVUeyRmF4amRteyPjpGaX0f2jg3vtJxSsZAsHUQVZ8OvQILWWu9d+kuVJ1Iwyan57Q3TGOvT0TjANUms589ubbDaomWNURNN5R0STI3kEYAYj/TLEqPdoOk2gdKxGBiP9MsHo8emJ32g6Rz402cknUcfmJjIyiZp+RoNE02kCpWM1shPpl2ZGVUXTOSKiyc4sRPqlk1Hl0XSaEOlYDT6JmuJIv7QxGmo0nSMimuzkg9RURvqlitGZlVl6QaPNlGb0+J5F+pVS9s10Shhd7K5efXE7ymi66PnzfkdmFK++uJ2aSL/EM3oeTaf3lKZ3vFQdySdR0xHpl2xG6/MvY4+mU0VVGNfhkX71+ZeJnkRNKqMUTWdWsjz09M40DVLNSnIj/ZLH6Nr2BiVX8pAgxLsVs3AkaxSKr0aTGOmXJEYTEU2nM+58kJq4SL/EMErRdPV8UqLptCbVrLB6PkGRfglgtLO+oCRBiM7cRF83PomaiEg/rRkV0XQ6h8pHj5eqO1LXn4Scfpoyenx68uhzLaQEIapsnI7r8EnUR59r2kb66cjoeTRdhqc0o6ef3k/pmtNPL0bnt5bOEoQEzU0XvY3TcUdmlK48v6VbTj9dGP35+9fN9w9iSRCSDrxUPQV1/fX8zfcP9MnppwWj4eWmU2W5rF2HD1LHO6YOk6gxM4poOp3p1yTSLzZGzxOERJibTmcadK4bM4rxpkuJgdGdw73Rj481TxCiMzTR1426/lpu9OPjWHL6Rc0oRdMlJ0FI9DTofEeeLiX6SL/oGEU0nc78ea9b9JF+UTCKaDrvBCTlyCgj/cJlVGK5raQYCfXk76ciWBgtREYRTZcFjmmQGnKkXyiMIpouC3T2P2OokX7qGaXEs+qW2+oXAmWdFeCTqPfaT5RPTSlmlJYiRrySdZFwncFSXjfWLF97fVctpioZpRYUgGYYUE48a5bVtqbKGJ3fWmK1nPK/S1wwiQqwWk5hgJ8yRml1Do0XP0iipZNbZ9aqDk+NqOrx1TC6udtFI5pcpMKoOavlNne7SjBVw+jZ8q8Inr8ehrETek1mlFQt1KuGUQpSTsg6Mgk1eeKq/efdvqoQaTWM0ooIujLK00LRKt9G6fx/s5zooTM9Uf+zaKk8MytjcxMa9fUaMkqvlBsF1qqOzU1ML7fbP7501hc66wszK7NPvz678e4+/WoUtf3Tsjec/In+pMMY75gzK7P8caaX2/TKj55Fr7EWGL1k5Me/Grs0Sexid5X+uup5/V/rMqM0PDXi8kKHPvg2ivr0D2B0IKPU2DTLLra09z7Hpye0KrjGWXZZPe9ltfD9owN95vnAqDOjvBWRW/5153CPDKxZj0mJrur56eW2/U9r0B4axmgwQgWjAxg1SnKACnvTCwqdMpuyZlnC89ChxwejDoyyRkFJFjj64kobTJlZEX8/3gs0Lx33I4DRi4yqnXwjR0qDTp81y756+X6IY5+aBqM2Rg3FixLR2DTuUR2r5aSHLrHP/IFRG6ONgtr8RMenJ+SvxBclw1rVqy9u9zeNvsoUQRFrdw9GbYzW88rTZ/78/StGMzOzEiQK88+alKyet08ERLYHjNoYreV8NTMeD17srrLJocjs2n+j4DaONxIteP2FjVIyX8/CYbTX69H8TRwNUnAbg1FBORVin68Pj9Fer0dZzyN388GoIAztqJDCrRD95A0YFfYAo0KKSwoRu/lgVNgDjAopLinsHO5F6eaDUWEPMCqkuLwQpZsPRoU9wKiQwlOBkqNH4uaDUWEPMCqk8FqIxs0Ho8IeYFRI4aMQgZsPRoU9wKiQwl+B1joLczYfjAp7gFEhhb9C2G4+GBX2AKNCCt+FUN18MCrsAUaFFDKF8Nx8MCrsAUaFFJIF+gQqhNl8MCrsAUaFFPKFMNx8MCrsAUaFFIEKyt18MCrsAUaFFIEK5OYrXfsUjAp7gFEhRdDC2vaGwqB9MCrsAUZJClVLtdJ6k4pm88EoGBUKUGH042NVSYdVuflgVFgI7ShJQd+6NMuqviy9+f5B8G/zwSgYFQr8ZdQoKVxYKLibD0aFhdCO/mXUrMglABNS9hf2jw4CuvlgVOgJRv8xSl8sNQrmtzdCnSCFgG4+GBXig1ELo4Tp5JCvFLtCSnuB3HzZddXAqNATjF5klDCt5VRlj6IM0VLv9sEoGBUKODHaqrJWVZWbf+fDQ4l8+2BUWAjtqAOj1JSaleKrUSFTwMLVF7f9Bu2DUaE5GHVmlDBVt37wmZvvb20aMApGhQIDGSVM43PzwaiwENpRN0YJ08khJWn2e72eLzcfjIJRocAljBKm6pYQ9u7mg1FhIbSjHhhtVZlZidjNB6NgVChwOaPUlLaqCt18L4t+gFFhIbSjnhglTNW6+c1yf2ZxexmMglGhgFdGCVN1bj6t++GaaR+MCguhHfXBKGGqzs3vrC+4zOaDUTAqFPDHKGGqzs2ndR8HzOaDUWEhtKP+GT1z86VXoBPS88Lox8eOs/lgVAgFRn0zSk1pqzo8NSJEDFhwdPPBqFAVjMowSpg2y6MfHwsdgxRoNt+sXAg6AaNCUjAqyShhahTr8y+FlEEK5OZbo6HBqNATjMozyv0nVbP55Ob3vY0Co2BUKBCIUcJ0ckjVt/nmtzdieR0wKiyEdjQoo3xsqsrNv9d+wt18MApGhQIqGA3BzQejwkJoRxUwypvSOx8eClmDFGjpeRUf+19wwuwhAaHuCf43JjQEo2oYJUzVuvmTQ2NzE8JOEgUwahEt6WuDq6o/q+XaP75YpJHd6KwvBHz/CkYt2quysXTvE3D9eoX1Z5NDa9sbFnVkNxa7q7Kn0nlg1KKeQhvLYaoPo2edfkmVm29R2ecGGLUIBkb7/7RYq3r1xW2LQHFsgFGL6mC0n1G1br5FaD8bYNSiFhi9wCh3859+fWaRKdoNMGrRG4zaGSVM1bn5Frm9bYBRi05g1JFRwlSdm29R3MMGGLWIBEYHMXrW6cfj5oNRMHrdhcv+n1ireuX5LYtekWyAUYvMaEf7obSXWbN88/0Di2Thb4BRi8Zg1M7lhT3MKI53TItqIW+AUYvAYPQCkY6brJ5XNZtvUX/ABhi1CANGHaG074zSzQejYNSrz3SBVGYUVS1ParGBbQOMWiRBO3oBRJfNyNx8MApGJdtRemNqViJw88EoGJVnlL/YD9vNB6NgNBCjhGk9P7Mya9FR6QYYtciJ8ajLANTlJzY5FDDY3mIG6wYYtegBRl1AdP8pPDcfjKaKUcq8YFbcYQrp1/DcfDCqGaONQpBVaK+9vnshbV1IRDpelpmVG+/uWwQNvLFzuMfqecfbRbMT39df9FeYUZKeZqScC9acddFYsf8uzCg9+lwLTOa/C1CGM8Pf6o/99QleBqM2RltV6TQhtPxcrObkQKh182mx51Y1OGrSVwCjFxmlVzmyaeod0yhL2ybIiWxyaH5r6V9jKFuyZzMNUiu5c8GoE6Ot6rXXd/2adXq5PWjVBDnbBDxLybolEkuRB6y2/XQw6sCoxOTN2vZG7CNRB+vWckE+KKVe/rIFyuw3Vb4HjDozSpg2Ch6dj/mtpXg9XxcsWLN85fktv/3+/tEBvaDQAFAyhFkJmFNNdIkpyZvXb29mlIanRlySLh2fnjz6XNOwBbU8RavKGoXhqZH2jy+XLqd7fHrCc0DH6ydZ6g9G++Wwl1mryur5a6/vvv3+aW17Y+dwb+dwb3O321lfoCmxej6uN/b2qrrvoQcxSqyev/HuvvntTWd9YXO3yx/n5+9fa9sbMyuzNAFRz2vSfIrHQTs6sK8XGlF3ww3cKJAJ63nWKJC9Y5pP6q+YRJmepVmm+vc/jsZPpB2j1HUm0/YSuOAULwows+LRMRDjzkEFNeNRGgzpMVT3Ih+OiUAB1iyb394Mws7XfjWMLnZXxaItETw/bqG/AqxRUBV2qIZRyhoc68yb/jbLWg1Zq+qrsXQ5WBmjb79/0mrCJmtMaPW8zCi+/f7JBTtfPyljtNfr6TPxrZXBslYZtYtSUxfti2j3g2n9YKOETj9rUPY/L3/fp3Y5AJWM9nq9ncM9ejEJH/8/T29w+62bgjK3u/IMF4oZ5Q3teMdkk0NoUFOAncdHoOZzciikr7FDYbTX6/38/evm+wc0uwN/P9VtKtFZz998/yDItzruY8iwGOV3nd9auvL8lg5R7h7bAxzmSwFmlCTis9yJtP8aLqP8fhRH3ChgstSX+TU/mFbdbRSml9t2pJTviYLRXq93Hg6HQWry+30+9Hz0uXZpxKAqWCNilFd3c7dLQbiNguaNBKo3SAHWKFx7fXdzt6uKPy/XiZRRXqHO+gK9n9LgU8xBlsB+uwLcXp31BS9UqT0mBkb5A1CoVHJije02y84eGnrW86qCmCTwjY3RXq+3f3RAMeS1HN5P6Uk8DT1ruXvtJ2rnjfxiGiejvK5r2xs00Y9BqmbuFGsUiq9GXT4L84ua9PHxM8qrTslCzAomUXVoUOmjFLMinZtImsVBJ+rCKK/f06/PqOvHZycxtanUTAT7un8QZ0H268Uoj0qhLAaYRI0WUz70vPPhofKIkCB08nO1Y5RXa7G7SglhjKIOfV/q68CM4pXnt1R92hEcygtX0JRRXsuZldk/SxhikBreHwn/HjrUtPwXgJPY1JpRPomKSL8wGOVTmuMdM7IpTQk6+Sm6M8pr+fP3rxvv7mOQqgRWovMs8Ul40XTSODqemAxGedXnt5YwiRoQUz6l6TfbmSM6ke1MEqNcFET6yWEaZTSdWnyTxygfpFJqMUT6eXs/xYeeY3MT+g89HeFOJKP8SRDp56VBjSWazhE16Z0JZpQ/My2gcZYfz4vBMnUM/448lmg6aRwdT0w8o/ypKNIPk6h/u34+pRljNJ0jatI7U8IoIv14F0FdigbRdNI4Op6YHkb542U50o/nJtchms4RNemdaWOUC0GRfs1ydiZR+cPqE00njaPjielklD9qFiL99Iymc0RNemeaGU13pB+f0tQzmk4aR8cTU84of+bF7upZupT0RPppHk3niJr0zkwwytXhWXyTPkg9i6ZTmYFWGp3ITswQo0lPl8KnNBMRTacW32wxyrVLXKQfH3reeHc/KdF0YFSNAkmJ9IsxQYgaoQNfJYvtaL9oOqdL4dF0qZnS7JfdVznrjPJJVN0i/fjQc2xuIt4EIb5ICu9gMHqu7dr2hiY5/VIQTaeWVzBq0TPeSL/URNNZNA28AUYdJKzPv4w40o9PadbnXzrUJvO7wKgzAvtHB6MfH0eQ04+GnrXc6MfHGiYIcZYm8r1g1E3y80i/0NKlMKM4PDWSvmg6N039/wZGL9eMIv2MktpJVJ4gJK3RdJdr6ucIMOpVLYr0U/ElKg09J4eefn3m9caZPw6M+kDgfGE02cTTfOgZ6nJbPh4mOYeCUd+2+hvpV/L1lSlfbkvb3HS+VYjwBDAqKTalS/GW049H00Wz3Jbkw+h9GhiVt8+/hdEGJJ7mQ88ol9uSfxiNzwSjQY2zuds9Xx2lUSD3n/9vFPg3xNmMpguqqfV8MGrVQ3br+PRksbs6szI7vdyeWZld7K4mNLmSrAAhngdGQxQXl1aiABhVIiMuEqICYDREcXFpJQqAUSUy4iIhKgBGQxQXl1aiABhVIiMuEqICYDREcXFpJQqAUSUy4iIhKgBGQxQXl1aiABhVIiMuEqICYDREcXFpJQr8H75J94ePXebxAAAAAElFTkSuQmCC;" parent="1" vertex="1">
          <mxGeometry x="320" y="87.5" width="65" height="65" as="geometry" />
        </mxCell>
        <mxCell id="9g0iIzlrFkyKwQP7tY-k-6" style="edgeStyle=orthogonalEdgeStyle;rounded=0;orthogonalLoop=1;jettySize=auto;html=1;entryX=1;entryY=0.5;entryDx=0;entryDy=0;" parent="1" source="FvDgJU4ZKAipWWwaP9Bs-1" target="9g0iIzlrFkyKwQP7tY-k-3" edge="1">
          <mxGeometry relative="1" as="geometry">
            <Array as="points">
              <mxPoint x="850" y="140" />
            </Array>
          </mxGeometry>
        </mxCell>
        <mxCell id="FvDgJU4ZKAipWWwaP9Bs-1" value="Jenkins" style="shape=image;verticalLabelPosition=bottom;labelBackgroundColor=default;verticalAlign=top;aspect=fixed;imageAspect=0;image=data:image/png,iVBORw0KGgoAAAANSUhEUgAAARAAAAFhCAIAAAA3FmImAAAgAElEQVR4Aex9h1/T2v/385+QtEn3bmlLWSJLXCi4caHIFPfe+zqve+89UEGgZYgoisyyWspWliKyt/dekd/zTYMhtCm0pSgg99WX9yScnJzxeeecz/5//zf+3/gMjM+A0TPw/4yuOV5xfAbGZ+D/xgEzTgTjM2DCDIwDxoTJGq86PgPjgBmngfEZMGEGxgFjwmSNVx2fgXHAjNPA+AyYMAPjgDFhsixbtaenp/t7d1dXV2tra0NDQ+2XL5UVFbk5OfFxcQ/u3T9z+vS+3XvWr10b4Ldi4fwFXp4zpkzycJvo7DzBaaLjBOcJTu7OLlMmTfLy9Fwwd57fsmXr16zds2v3mVOn79+9Gxcbm52VVVFR8aWmpqGhoaWlpauz8/t/33t6eiw7hD+wtXHA/NJF7+np+ffff9va2urq6iorKjLS0h89eHhw/4EVy5e7u7hwmSwKiUy2Aob+o5DIHCbTzdl5+VLfg/v3P7x3Pz01raqyqq6urrW19Z9//hkHj3kLPw4Y8+bNtKe+f//e2dlZX1//4cOH+Li4Y0eOLl640MZabCl4GAMwCoksEYoWLfA58tfhWEXMx7IPDQ0NHR0d379/N20wf3btccAM4/p3d3d3dHTU1tbm5ORcuXx5+dKl1gIBBIDG0Pew1oEAUMTjL1206OKFC1lKZW1tbXt7e3d39zDOxVhpehwwll/JHz9+dHV11dXVqVSq8+fOzfH2ZlCowwqAoTROgykzp3uePX1alZvb0NDQ1dVl+RkZQy2OA8Zii4nyJ02NjWVlZQ/vP/BdvIRFow+FlH/xswwK1XfxkrAnTz5Xf2pvb//x44fFpmYMNTQOGAss5vfv39va2qqrq+NiYzesXSsWCC1L6xAAwCCJQiJRyWQaBKE/KhmikMgwSLLsGQ8GSU4OjmdPnS4tKWlraxuHjQ59jANGZ0JMuOzp6fnnn3/q6+tzcnL+Pn7c3cUVBklDhwoEABQSmUWj8VksMZ8rEwknyKSTnSd4TXH38Z62dK7Xsvmzls718pk1fda0SdNcnVwdbO3EIqmQb83j8lksNp1Gh+Ah9gQCQBtr8dHDR8pKSzs6OsZFahhZjAMGmwoTCj09PZ2dnZ8+fVLIFcEBgVwmyxI4ARkUipDDtpeKZ0/32LEu6OaZg4nhNwpTomoLklo/pnZWKb99ytL5tZWnN5S8q8x9mZ34NPbx5ZtnDu7fssp/0RwPZ0dba6GIy+HQ6TQIMm8XggDQVmpz6cKFz58///vvvyZM0NitOg4Y09a2p6enq7Ozorz83t273p4zhvghR2FGJZEFLNZEO9nagKVhN06WZig6qzJ1gGHqZWt5WnFadPSDi8f2bFy2wHuCTGrN43LodCrZZD0PhUSePmVqfFxcS0vL+FYzDhhjAdPT0/Pt27fKiopbN296uLkPfUshWwFUMtmax5093eP2uUOVuS9NRYWR9buqlV80b149v3Fsz8Z5M6bYiAR8FpMOwSYNgUGl7ti2rbKy8r///jN2ysZivXHADL6qPT09//3335eamvBnz6ZPmWISnRmqjEJlgfe08NtnWj6mGUn6Q6/WWZVZlBZ96+wh/0Vz7SQiPotJI0OGOqlzHwZJk90nJScnd3V2Dj5rY7TGOGAGWdju798bGxrfJb318/W1iGKeQiIJOew5npOf3jjVXJY6dAyY10JHVWZZZuyNMwcXz5khFQrYdBoMDq5RhQCQz+HevnWrubn5zzyejQPGIGB+/PjR1tamys3dsXXbAGw9BIBUMsRhMK35fLFAQIcpOh9m7BIGSTwmc8Yk1zvnDzcUJ5tH6BZ/qr0iPetV2KFta9wn2AvYLGOYHDpM2b1z19fa2j9Q6DwOGALAoEKwsrKyUydP2oglGMXrFBADRwbTxlo8x9v78IED0S8iFFGRSxYu1KlGtgIgAGRRqa6OdmcObfusTrQ40Q+9QZTPuXfxyDzPySIuhwYNck6jkiE/X9+Kioo/zaBmHDD9AINq66urq+/fvevu4qpP+ij1M6k0sUDoNd3z6KFDifHxJYUFZcVFZcVFBWrV3Vs3dZ6iQZCdWLRtTUBRWvTQKdtwC8pv1fhfZlf1QL9v1Zm99T/1k1a3fEyNeXx5+YJZ1rxBYAODJM+p0wo0mj/KfHMcMH2A+f79+9evXxVyxdxZswkVFxQSmctkTXRw2LB2bWT48+KCXpyUFhUW5qtzlJmKqKj5s+dggIFBkojDXjp3ZlLk7a7qfnRpmO51NS0ENXuB8RMPVemdFWkdFSkdH5M7PrxtL0tqL33TXpLYVvKqrSShrTihrfhl368kQXs/sb30dXtZUseHdx3lyZ0VqZ2V6V1VSIMoitor0l+F31juM0vE4VANexxAADjRwTEzPePPEZ2NAwYBTHd3d3NT0/vk5MAV/lQiqRGVDAm5PM8pU/8+diwzLRXdT9B/S4sKc7OU927dCvb3x4xiIABkUqkeEx1vnD7YXJZCQPR6KkjDddB9QwsPBBupHeXJ7R+S2ktftxUntBbFtRTEthTEDP3XWhjXVvKqvfRNx8fkzsq0rurM1vI0+YOLc6ZP5jIZhF8QdL+ViSVvXr/+559/+r49Y7f0pwMGYVc6OjX5+Xt27eKx2djmgBWoZMiaL5g7a9bNa1c1qjw8VMqKi4o0+ekp748cOkTDqTUoJJJUwF8f7Fts/hkMAQlypqpM7yxPaf/wFoFH0cuWQstgwxh0tRbFt5cmdnx8V1f4+sLRnQ5Sa0MCaAgArfmCGIXiT8DMnwsYVLtSVVV188YNB5kthhCsQCVDIh5//uw5927dKsxX46GCnsGyMtKfPQlbGRSEoQVl7qe5OYfdONVemWF40zBw7kJBUpWBgKTsTVtxwq9EiEEUFca2FCVkxt5dNGsqi0rspwABoJDLi46KGvOY+UMB8+PHj5bm5jevXy+cv0D/sAGDJAGH4+3peePqlQK1SgcqGlVeRmrKg7t3N6xbP8HOHnscBkliPm9d4NKSDIWpUEE2k6qMjo/JbaWJ2lOWBY5YBgFg7vmtOuP5zjXLeUwG9k3RKfDZnKjIyLGNmT8OMOjG8vHjxyOHD+ufwZAtgkZ3m+h8+sQJdW6OHlRUqcnJN69f37Buw7zZc/kcLkYxNAhycbC7c/6vtvJ0E9Ci3VI6K1Lbyl6PWJzggVevir5yZIs1l419JrAZQAt8NkceLR/Dlpp/FmB+/PjR2tr6+tWrmdOm66y01rILkoklm9atS01+pwOVArUq7f37m9dvbNqw0d/Pf6rHFPwxjEOnL5rtmfnyiWlQQbeU4gQ8RY78cqNa/uzKIRshzyBmONyX8fFjVW72BwGmu7v78+fPF86d47M5OmiBAJDLZM2e6RX26FFpUSEeLUUajTI9/eG9+9u2bFsZvNLPd7mzoxNGKzAIivm8HWsDv2jeGIuWaqX29PWutejlyIcHYQ8b1XLFneO2IuL4BKgMIOnNmzGpn/lTAPPff/8VFhSsXbUaJun6eFFIZDupdNe27TnKTDxUSosKVTnZiqio/Xv3h4aEomhxtLXDwEYhkZxk0ssn9hp9DEOhkozIu8xlJEbIg4358pi7J2yEfIgoKBQEgHZSm8yMjLFnB/BHAObbt2/paWmzZnphtI4WtNoSmueUKY/u39PbWPJT3r27cO78mlVrQkNCQ0NC/f38XZycsRZoZGiKq1PM48tGaiS7qjMRXmW0HcAGwGejWh5x/bA1l0AWj+pnnCc4FRUUjDEbzTEOGNQq7HVioouTE0brGFoEHG7gihWp73Q5FlVOTlRExM7tO1CohIaEBgcGe82YibmLMWB49jQPo5kWZGNpL3szImTEFt3ZGtTRd8/s4jKIY33AIMnL0/PTp09jSY05xgHT1dn5Mi7e3kamgxYYJNmIxft279aRGpcUFmSmpV27cnV16GoMLSuDVy5dvJTL7P2UMimURbM8C1OjjGFatBtLyhg4gxnaaupV0Sd3r2FSiG20KSSy37JlLS0tYwYzYxkw3759e52YqK+UpJDIEx0cr1y8qH8MS3qdePjQYQwqaCFgRQB2GGNRqcvme39QxhqFFmRjSRp7G4sOeGpzIjcHLzJkB0Ahk/fv3ds5VnzOxixgvn//rszImOSqa3FMJUMerm5PHj7E8/dlxUUalSomWr5j23YdtIQEhSyYOx81MGNSKL7zvD9mxRmBFmVXZVpbySsd2hqrl1XpTxd5TcaOrDr7OR2mPLh/f2wIzcYmYH78+FFSXLzER9c1hUqGpk7yiAoPx6OltKgwPy83/NnTjes26KAlNCTUb5mfTOsSQ4fhBd7TStKN0OJXKzsrUlqL4scqPPTH1axRqBPuuNjb6EAFuxTx+BnpGWNAADAGAdPT0/P169eD+/Zj2hJ02bRomSR/8UIHLaqcnCcPH61dvVYfLUEBQTOmeSI+lSTyDA/XvKTng+8t1crO8vethXH6VDWW7xTGNmliXj46LeQYFJpNneRR+6V2tDMzYxAwXV1dUS8idcK0Ukhkd2eXiGdP9dHy8P4DTHaMx8zK4JVLFi7mMtkwSHJxsH0TcXNQtHRVZ3Z8fDfmmZZ+yC+May1+2V72pqP8fdvH99dO7htAALBl46bRbmk21gCDHsZmTJ2GHQbIVkicVUc7u7u3buHRUlZcpM7NffzwESFaQkNCVyxf4eTgiMSAFApunT1kLFos5J3SjygtKgu2WMuFsW0lCR3l7xGfs5/uPS0fUzcELzMULYQOU6IiI0f1wWysAaalpeXC+Qt4tEAAKBYIjx85rCMT06jywp8+IzyJhYaEoocxGCRx6PStq/zbKwax1e/dW/4YtLQWxnd8TP7W373526esruqsT6rEGR6uOudhdEUgAHS0tautHcUHszEFmB8/fmg0momOE/CAYdMZoUHBRZp8/PZSpMmPVcg3bdiIP4Nh5aCAoDnesxkUKpVE9p42qTx7MLEYehL7c9BSFN9ZaTBAVGe1UvnysY1QgF8FrEwhkffs2j16TWbGFGBaW1svX7yErQ3ZConqPX3KlJR3b/FoKSksSEpM3LZla6B/YMCKgIAVAYH+gUEBQcGBwUEBQf7LV3jP8GJSaUhkYWtRxJ2z2HmDuIBw+clD41tiWwpjWwvjEFEB4lP569wqzTietRbGdVYYRAs6RR2VGQ8vH2fRaPi1wMpsOiNfnT9Kuf+xA5ienp6ysjI894KGoL926RKKltKiwgK1KkeZ+TI2dtP69W4TnW0lNtZ8oVggspfZuk50mezu4e7iKrUWo/oEJpW62n9xe8WA/i2oBNlsmRjKMaNu9BUpneUpHR/eIT5kSIMjEzaxHR/e6nw42iszGkqSv2jefFK9qspNqMp79VmdWJWXsD7YlzA4IAySVgYFj9JNZuwA5p9//omLicGzmwwKdfmSpQVqVYFalZulfPs68dL5c0sXLtQ378c+flgBAsAJMmla7EMd4tC57KpMM0/fgkac6CxPwXPMWONdleltpYkjEDOtRfFIZJmfLH57ZUZN/uu3UXf+2rFu0ewZLg62MpHQXmI91W1i4JJ5+7es4rOY2JTiCywaXa1SjcZNZuwApq6ubtf2HfhVkYqsr1+5/Drh5ZWLFwKW+4kFQkJOFP8IVmZRqWsClgxsidxVldFWYrr7V2FsW3ECApWfZIcvdFUrO6syO6syu6oy20vfjDDMxLaXJWG9bf6Qkiy/t3jODIqexwQ2jYYKFBJ504YNozFw5hgBTE9PT0lxsYebG7ZCqLOxq9NENt2gDzpWWb/AZ7H+3re5i4imUYrpqs5EDJBNFPi2FsV3fHiL/0hrJUvK1o9pdUVvq/NeFaZE5SQ+zUt6/kEZW6t53ZA/kg5mhbEY99LyITXs+klDG4j+fOrf4XO4o9GQedQDBvXRr6mpuXPr9gBxjfUXDPXZoJIhBoXKpjN4LDaPxab+DJFKJZHnTPdoKnuPfVD7FaqVHeXJJn7+Y1uLX2IE9xN1yqaylA/K2Oe3Tq/2X+xka8OiUiEApJCQNBjL5ns/unzkY8qTxny5qcgclvqFsV1ViHi9oyrzdcRNDp3Yqp9wqvVvUsnQ+bPnRt2pbHQDBgn+0tLyOjFx4fwFhiz/CJeKRaMLOFx7G9m8WbM3rVv/97Fj927fvnf79qyZM7H6tmLRe8W9fjj5ueFoWReTjF9i24pfodSGNdhanlaWGXPx2G4XB4IgT2g3aGTy/BmTUiMvN40AzLQW9YrX64vfeU8daoYcCAAnubh++/ZtdGFmFAMG9dE/ferUAKH1MepH9f0sGl0iFM32mnlo376o8HBVTr+4MKqc7ONHjmCPCNisM4e2YfSNFRDWBeHIjY+EFNtW8qoLl1Ssq1pZW5AU/eDCVNeJ2OsMFWCQ5OYgy469Ycobje+bCTVbi+K/fcrqrMpMjblP+ZnNU5u8gMyAYSaFwoBhKplsPKNIg+Dkd8njgPkVM9Dd3f3x48fNGzYaszwUEpnP5kx2czu4d2/iy3gdlT+moikpLIgKD8fOdQwYDlg8T5fvr1Yi1mImoCWmrTgBv7d0VGaWZcbs37oaiztjCCrYfToMh/rOadaYQNwm9dDYyoVx36qVbRXp107uQ9On8ZkMR6lo8aypGwMXbl/luyHAZ7H3FCeZWMhmsagUGBgk4QyFRN6ycdPospQZlTvMjx8/KsorNqxdNyhaUKh4e3pevXRJlZONYQMrlBYVlRQWFOarNao8bciLSMw9EwbBqa4TG0v7sTGmHsZaEaV4X4Kx9or0nNfPls7tO/hhqBiggFiUSER1uZHGUrYpeDahzcLYzsrU1o+pJ/as5zHoC2ZMCrt0oDrzuU4LX7IjXoed3bdhhYu9lEOnDQAbRFEmlowu37LRBxjUev/woUMDMy2olMzDze38mTP5ebkYQtBCaVFhkSY/Py8vOzPjVXz8g3v3zpw6tXvnrpCgEFtJn1OHo42kOF3edxirzmwrfa1DHwNcthbGdXx8hz3eVpGeHvdountfJA19kKCuBDQIQn5kiEIiQQAIAaCTTPw198UA7/o1f2ovfd1U8PLOqV0XDm6sy4sa4KXNBTGV6U8v/rXJ2U7KoBjMp0klQ4mvXv2KM4mF3jH6ANPZ0fHs6VMmldjsAiVBJBy4yHrTunXpKe91oFJcoMnPy01PSXkeFnbyxN+bN27GTMhCQ0IDVgQ4T+jjK/rz/YhbmEkmMG3FCUgaFq2ooL0yI/Pl48nOjvogQY83XDpdzOM420rmTnNbsWBm4EJv37nTvTwmOkpFMhF/9fJ5A1DnL/5TvSrayDc2a2LKkh9tDVnCNxD/n0Ii79i6zULE/CuaGWWA+fHjR75a7ebsQkh26E06TPFwdbtz4waeV0G3lNwsZYxcfurvU+vXrsfjBCsH+gdOdvfAGrcRCmIeX0Yp3lQ1JWJzVd57nOusysxPfuE1uU9NhL4CsgLoECTmcRbPmnrjxPbcuJv1/T/bzQUxX3Nf5CfcKU56YCSNjsBqTfnysEsH7KwF+pYyaIaZ7/99/xXEbol3jDLA1NfXHz50CCNonQIEgGw6Y+G8+W9eJeA3luICTY4y83nY03179mHYICwEBQRNx/nSSAT8XuPLXsWLCWx3a/FL1Oylq1pZkRO/cpmPTm+RdEtcdtBi73fPLzRrFCOQ0C3YpWaNIuXFJRd7qT5LQ4PgUWSLOZoA093drczMlIisdSgPvYQAkMdiBwcEZGWkY2hBo1fKI5HolatWriIECf5mcGDwjOmeWPsSAS/89hlEGV+VYVqopMLY9g+9ViT1xe8uHtutI5+gkclujrJHF/aNFKXkMMkJcM02axSZ8mtOMt2coRQydPXyZUt8/X9FG6MJMA0NDUcPH8aoGV9A0MJmrwkNxYvCijSalOTk82fP4YOM4eGhXw4ODJ6JA4xUyI+6f/4bIkpONulzq7WBR6zFOioz0mIfWvP64vyTrQAGDM+d5qZUXDOpzTFQuUmjSHxyRtDfIhMGSX6+vqNFuDxqANPT01OgKXCdSCxi4jCYKwOD8GgpUKtiFYrdO3fpo2KAO8EBQZ64wP7/s7199fw6sr2YGOIVserVWpF8VieuDVyKxzYdhn28Jhe9uT8GAGDGEBrV8rP71unYa0pEotEiXB41gOns7Hz+9JnOwQYlRDpMWTR/AXYSKy0qVOfmPgsL20AUNmkAtKCeyVM9pmD0bS+xznz5uKP8vamUgSjFq5UdlRkpMQ/wflRUMtl7srMm8a6pDY6l+l+yIqY6O2CTjCYaUavVv+JENeR3jBrAfKmp2bBuHX6W0TIEgC5OTrFyOca3qHNznjx8aMhZf2DABPoHTnLts5JysrX5qFSYYcPfWvTy26esuqK3f+3s6zMMgM62kuTwi2OJ+s0YS1O+/OH5vXiJGYVEvn3r1pCJ+Vc0MDoA09PTU1hQ6ORAoMQQcLgH9uzB0KJR5T0LCzMPLageBgsJAIOkqa4T6wtem2iVjEjSULOriux4TE0JWQHWXPaN49vNoLCx98gnZbi9WIh9/mCQtGn9hl9B70N+x+gAzL///psQ/xLvTYnONQySPFzd0t/3aieR0BZyuRknMWzb8fdbYfczcjkNgpbM8TRJtY9RNuL3Upme9SqM8TNKNwOGQ5bMbjBa5Yc1NSYLjerovetWYICBAHCqh8eo8CcbHYBpaW4+d+YsNr9Ygcdibd+8Gd1eSgoL379N2r1zN0b9ZhT8lvlZ83vDnXDo9B1rVpgXw7K1MK6pOCnizjm0q4h6TibJjr05JqnfjEE1axSvn5zF62S4LHZzc/OQN4Bhb2B0AKampmb1ylAMJ1jB3kaGBbPMzVJeOn/BDJDgH1m2dBnrp4emkMO6fHSrGdSgfST2qyrm1tmDaFe5DPqxHaHmNmWCtnQUveKzMlzC75O2U8lQXm7usNP7kF8wOgBTVlY2bXKf8AqlQhgkzZg6VaPKKysuKtLkx8jlZrMuKGbQ2LBooH6yFSAT8uMfnDKbBL/mRj68eBACQBgEJznZfnj/xOymxuSDDeroZXP7dMQUMhT25MmQ6XnYGxgFgOnp6clXqwW4HN8oYNh0xtpVq9DzWFZG+rEjR/F7hRnlkKCQeXPmYdvXRFtJ6btHZhNrU74iS3HNRsQXslln960zu52x+mBjvvzErtXYbFNI5KOHDw87vQ/5BaMAMN//+5789h324cem2JovOH3iBLq9xMrlxqvzDWEpKCDIc2pvOnIqmTzP071RPSRn+q+5kc+uHfX38S5LNh94hgDz+/3JcGYvhjpZrzLoAtCkUUTdPIqtJgySgvwDhkzPw97AKABMV2dn+LPn2MxiBTupzdPHj8uKi3KylGdPnzEEA+PvB64IwOygOXTa9lW+hujA6PuxrcUJLcWWT6vUrFFUZzwbIp6NHoWZTFRTvlx++1hNVgThi5o1MfkJdzBNNASAk90njXwDmVEAmJaWlquXr2A4wQpO9g5JiYmlRYXv377dtGGT8cAwVNN/eZ9M2ZrLvvX3DsKVHgk3v2RHXDu2NfXF5ZHQGUN9qMuLWj5/xt3Tuw1V+JT5nMfsC4JlLRB0dXUN+x4xtBeMAsA0NjYeO9K3d6OAgQDQw9UtN0tZoFY9f/rUEAZMuu/nu1zI5aHt24uF7yMuGVrp337/U+bzjUGL1q1YMBKiyRiajfq8KN+506e5OBpyrq7Li8YnLWNQqTWfPw+Nnof96VEAmK+1tTu3bcc2FrRAIZFnTJ1WpMnPzcq6cPacScAwVNl38VIGhYrGK5s0we5zVrghUvid9wuRyOWflOEhS+dIBVzVy9u/szMDsDGFsQ35scFL5tIgKOL6YcJONqiifWb2uetRyVBOdvawk/zQXjAKAFNTU7NuzRodwFDJ0LxZs8uKizLTUvfs2mMIA8bfXxm80me+DxongA7DKxbMHGlOXUg45uKXHR/edlam1he93b4mgEWlHtocaKl+Nmti6vOiGtTGuh8TYgC5iSRaetVZmdpWkb57QzAMggtmTCLk/hvU0auWzcVWlkImxygUQ6PnYX96pAOmp6enorwiYLkfNq1ogQ5TlvgsLC0qTH6bZCiFmPFoCQ0JDQ4MnjXTG22cx2Qc3hpikCAG+KwO058K49pKE7VRM3tzfTWVpVw4shMGQBd7m+qMZxbp6ues8EcX9sXfPzkUWQKSaKk8GXXq7qjMuKoNyESH4cTHZ/Q72aiW7167HFtZxATz5kg3wRzRgOnp6WlqbHpw7z7GWmCTi0TmX7q0SKOJlctNAoahykEBQZhhv4TPfXxxv/4C/5Y7SIBZvcjl7RXpCc+uQQDIZdDvnzXIVRvf4Ua1PP7+SbIVIOKwM6KuGv8gvqZOTKnOqsw3kbe1qluSv89MfRw25stP7uk7O1BI5ONHjw37HjG0F4xcwPz48eNrbe35s+d00ruimGFQqCt8lxWoVU8fPzaEAZPuB6wIcHHqjRdjLxZmRJtJNHgCGnpZGwSQOEFNeXa8kMOmkskLvSYTHnhMenujWv7yIQIYOgTv2+Bv0rO9lXGhyrHIUjWaNxwGEoKZTaOlR13RabYpX37zRB93CoOkbVu2DI2eh/3pEQqY7u7uqsrK/Xv36lso4wDjq87NvXPrtknAMFTZ38/fXtYb49jFTvpZ+fs5fsTPGRcEEKNCtPC18G2w7wKyFSBgswgPPDrUOfBlU778fcRFNKDuzEkTzRC+4TNhYF1tLU9bMgeJWkgBSRsCfJry+8X6aMpXPLl0ADs1wCAp0N9/2El+aC8YiYDp7u4uKytbv2YtptXC5hQrMCiUZYsXq3Kyr125aggDJt1fscxPIkTCa1BIpDlTXQcmr1/x18LY9rI3GOXpF1o/poVdPwmDIB2CVi6drX/gMamTzRpFQeI9VOYh4rJNNk34Gdhfp58dlRm3zv2FrhqfxVAn9JPpNWsUijsnsDWFAHD+nDlDo+dhf3rEAeb79+9FhYWB/v4DoIVsBdAgeNH8BVA816oAACAASURBVHnZWZcuXDQJGIYq+/kuR83VmBTKSt85JlHbsFQujOuoIE66hBJl16es8px4OwkCchGXnfT0/BC7UZEWJuZxyFYAk0K5fmybSa21FifoQKW3k9XK8uw4tjbZJYVE2r7KF7/JNGsUSc96PSBQaf5kd/fv30d0jLKRBZju7981+flLFy3GvjqGClQyNNfbOzcra+gm/SiEli9dxmEg+eW4dPredStMIpfhqDzweQwlx8bS94d3IgGmaWTy0tnTarOJjVCM7N5nZfisKUiERBgkTXNxNGTSQtham+HNsLU8LWjJbHQdBSxWfkJfPAM08BJ+iblM1rt370YyZkYQYLq7u1Uqlc+8+fgZNFRGFJfTpmVlZFy5eMnQpmHS/WVLl6HhZwUs5pkRYFyMBWoi/HKjNzurMlVvw/lsFspVXzmyeShalNqcF7vWLEMnnEmh3D29u9loKbnB02O1sr0iVX73b/SwRyGRtgQvwRikZk2M5tVdnSUWcnlJb96MWMyMFMCYhBb0KzjFfVJ6yvvrVy3DwyxbugxV8yOe9ydMO5AQfnSHehPhYfoSShqCTUNJ8vY1AdqA5YCEz0l4eNpsZqZBFf3syiHICtBOL+jhZGe8hqet5NW3T706Im1Xld+qMzsr05A0nYWxNdkRrva9Id45NGp2TF+umw8pT3QAQ7YCRjJmRgRguru789X5A+wtsHYV8TMLAaDbxInJSUn3bt8xaScxVBnbYcQ8zv2ze4ZK7kZ/mwd4UWthfGdlan9CzNJBTmdVZk7iU4F2k0GyYkhFb8LOmRc5oFkTU/ruEYfeG+WdAcOn967FsxwDdLWlILbjY3JXdWaXFicdH9/hI7k1quWn9/ZGz4FBMGChF9bDz8pwCokgjYyQy3ublDQCU5P/fsB0d3drNBpDfAtkBbBBcCIE0fWy80x0cHid8PLZkycYBlYGrwwODA4OCAr6+QsODA4JClkZvBKrY6iwbOkyNH3syAEMQqBFcR0fk5EUANVKPeQov1Uru6oz6woS96zvlZFAAGhnLZDfOY5R5IBUrmu3/yU7wt+nN3cNBIBSAU/VX641SGtaOzf9Oo1qeZbiOh3uTXpBgyD5neOoP8+XrAg2DbHf0/+J+ILUlJTuESYD+M2A6e7uLikuDljRF0AEP3GQFcABwRAG/aW1yJkM4f9EtgIcbW0VUZGxcvnK4JVBAUErlq+YP3f+VI8pEx2d7G1sbaU2DrZ2Lk7OnlOn+cz38ffzDw4MHgA5y32X89mIjEjEZV8/PgKOZLg9qrUovr0sqfNjcldFaldlWmdlWmdFSsfHd+2lb1qL4ps1ClXCbTvr3tgdWkLnKu6eaDI9wHmDKvrJxf1YxDAqmRy6dI6RyS2a8hUNqui6vKjanBe12S++ZEd8VoZ/ynxekRqW+uLyoS3BWJYYCACnONtXaS16anNeWHPZOiuLXdpYi3Oys0dUNJnfCRg0kdh6A4nEICuAC5JWMxgVttICG8kyrWgSm0qyFWArlT5+cD9OoZg/d76jnT2TSjMkiUaj+k+c4OQz3ycoIIgQNn7L/MRCEdkK4LOYJ3at1v9MjuQ7tTkvLhzaiMVfRYLU2EoKXt8zo8/lqWGO0r5w7ywq9dmVQwPbdzblKyrTnmYprodf++vqsS3HdoTuWee3MXBhwEKv2VNdbUUCKpmMXzhU2XVyz5qWgpiveVH4AGU61bSfRbuSkpKR41j22wDT09Pz6dOnfXv2EFI5ZAXwQNIaBqPS1qbZXlYmk27tH8Ea2Qp4/E3r1s2fPXvgVGT4NaCSITsb2cIFC4MDg3XOZv5+/g62dlpxE3Vz8GIzSG04HmnWKIx0Rf6Y8sTTbQI2WCaFYp6FS11u5Imdq7BFgQDQ2U5a/NZgdho0ZdLkifaGbDKwLuELLCr1xgkkpmG9KhqTB+ArYGUk2bKra3V19QjBzO8BTE9PT11d3dlTpwlnGd1btGiRNtvLmu1l5bbSQ2yDGzc2uUYW6BSqh9ukQP9APGYC/QM93JAgsVQy2WeGx8Df1OHAhn6bjfny4rcPipIeVKY//ZT5/Et2RF1uZKNart+3RrX8Y8qTg5uDsBmAQdIUZwf9Nge9g6j8X9+T8JHTKfqjkslr/ebX5RJ756OAYVEpWP1BC0wKZd2KBagEvEEVPdWFIKApvhEIAOfOmt3U1DTsanwjXvAbANPT09PS0nL3zh1Dafc4ILiSQa+w7UVLs73sg0y6RysIws/jUMoUEtleZrtiuR+GmZCgkNnevfo1Z1tJVfrTQWlrWCs0F8QUv33g7iijgCQJnzNnquvm4EWXj2x++fBkfuLdyvSn1RnPqjOfV2c8+/D+cfyDk6G+c7BU4IjW3AqwFfHN62FdbuTR7SsxToZsBbCo1PtndxuSmNXmvPBw6jXDG3hRYBDkMeg7Vvti1qINqmjvycQZGfBNQQAYGhLS3t5uBEkPb5XfAJjOzk6FXC7i8/EzgpVZABhAp5fJ+tDSZC/LsxH7UIllKdiD+AKaSBX9F38fX4ZJZJlE6r98BYaZpT89LmUifsLD0+ZRm6Weqs+Lirh+BDsa4XtOh2EJn+sx0W7GpImTJ9pbc9n6h1Kzd5iWgphmjaL47cMJNn2cDASAMhE/C6c/wQ+zQRV94eAGmh6jgu8zDIIsKtXdURZ2+QB+h2xQRc/37Iv+jhg9AQQSM9Rw5shff/3777/DC4jBWv/VgPn+/XtaSipmSI+fUyTTEAAuplELbSToSQz997OdzW0Bj6YnVtZ5FgZJDAqFy2CIedwJMomLg62zvczWWshnMZlUqj5JaVlPsqOtPcbPrFi+wkaM5McSsJmnf7ey/0v2i/MHN+iM0fhLBgxvXbkET9YmletVUTf/3kEl9THrFJA033PSpwzdJONos5+U4QELvVhUis4uB4MkOgRz6XR3R9nZ/ev1NaENquhF3n0hGqlWgB+daggzVAgKe/z49wqafylgfvz4UVBQsGBuX7A8PAXQAHAulZItFePRUm8vSxSLHPVkyvgHKSQSj8Wc7u58fM/GNy9uVeUltH5M66pWdlRl1hUmZSeGnf1r+1QXJywuOP5ZOkydPmUaKjfDfMgYMBzg42XoBGIS5ZlduS4vKuzyQUzwhe/zoGUYBCfIxOnRuv4nJnWmOvPZfM9J+HfRIGjv+hWGpMy12S+uHN0y02OimMfhMxkCFlMq4E53nbB9la/89vHanEjCtzeoohfPmoq9hQEAr635/nQq5ScHhf0JLbAZjPS0tN8oAPh1gOnp6amurt6+davOFKCXFCtgKkxJEovwaGmyl6ltxEsMKLbQbZpDp8+Z7hFx91zzB4O2vV3Vyuq8V0d2recxEfNKnR+PxV7uuzw0JHRl8MqFC3woJDJiRmAvq0z7zWzMh/eP50xz05fJ6vRf55JCIjlKraNvHyMkUONvaj1kLnG17l/YK1hUatilA5gxmH5rzRpFRdrT/Fd3C17fM7Qd4Z9qUEUvmTUNa58JgKliQaZEMIdC0TfvQKtNsHf4/OnTYEen4fr7rwNMc1PTlUuXCMVisBXgAkEvRAI8WprtZV/sbB4J+Kh1EzanWAEGSbbWwhN7N9UXv9MxGCG8bChJvnP+Lx6jLxAW2hQNgt1d3FBOxm9Zr5G/TMiPvfc3fml/fblJo8h/dWfF/BkcOo1Ghgj5GWw20M8Hi0qZ4Tbh3fPzFultXV7U37tW4Xc5RCvK56ZHXsHzIUN5F7LDePftMCwAVEoEaqkwWcyfBEGESw8B4JKFi36XAOAXAebbt2+xMTFCHgGjD1kBdmTyVT63SStBxmOmSCZZ2f8Lh9EHBSS5Oto+v3W6C7EZ0bWwMnTna2HS6YPbdL7ZEAAKOFxUyhzg5z/BHskmx2cyju1YORRSsNSzdbmRMXdOrFo210Ei5DHobBqVSaEwYJgOQXQIYsAwk0Jh06g8JsNZJjm8NbjSovK96sznc6e54bEKg+A0V8ehRJ3Gz0yDKnrhzMnYsnJBMFcqVGt/sSKejETC/oQvQAB49PCR32LR/CsA86P7R25OzvQpfR8S/OCFIGk/m1Vvhygo8b8me1mqxFpGJHuBQZKrg5384SV9YHRVKzurMjsqMw0B6UNW7JK5XvgOIC5TVPr8OfOQHJf+gVPckYM7HYb95s0ww7oETw0WLDdrFDXZEWmRlx9d2Hd677p9G/y3r1q6LXTp3vUrTu1Z8/D83tQXl2qzX1jwjWhTTfmKzOhrUkFvfEN03igkUuAi7xpLeHE3qKLnTuuTkolIIIoWtVSokgrv8zlckBgzVDL0Mi7+11vNDDtgenp6qiorN6xbr0Oj6CULAEPo9E96aGm2l9Xa2TwWEpzHIAC0tRbdvXBYBxIdlZkNJcnlWXGZLx+nxNwveB/5RfOm+UNqZ1UmHldt5ekJz66z+gupaTBlsrsHmhR22mQE2BAAujvIfrs2xuIAMKPBBlX03TO7mT9NJ9GFo5Ghg5sC6/OItZnGv6VBFT1zUq8eBrIC7MkkDDAoZo5ymIYEpLYSaVVl5XAxKwbaHXbAtLS03LpxUz/2PqJTB4A5FEq+TT+xGLbJfJBJ9xEpK7kM+rY1Ae0VGRgMuqqzmstSUhT3g5ct4P+0oKFBkPsEu792rMl7E9Zc9h6Prsqcl8FL+7mpUcmQk8MEJMeln7/zhN7YMbbWgnfPLMMMGE9AI7Nmbc6L7auW4pkZ7bZMuX1yp9nuN+hI61XRkyfaoyCErAA3iIwHjFoqzJUKA+k0QwKAFcuWf/v2zQBtD8vt4QXMf//99+7tWxuxWH97gZHZgeKshRhCdAr5NpKlegaXiPesm3NphgJDy7dPWQ0lyU+u/23N7bPmwF6H2qif2rfuc4684+N7xE7+k7LlQ+qLu+fw4gcKiWwrtQnw85/tNQt1IyNrc7jePWOBkF8jEwOm9qoy7akOM4MorFjM+AcnhyJ/r8uLdLJFdF/Irm4FzKTAOoBRS4UZEoGHYQHA9WvXfqXbzDACpqenp6y0dNmSpRj5YgXICrAhkc/zODogwV9mScUuUK8HBfagNZdz9q/teLS0lae/en5DRIQW7CkWlRKyZHZZ8mMkLuOHd11VGUVp0e4Tej9s6AGMBlO4TBaeu+UxGUe3j6T4lziDf1PJfej1ESeCl7fxhszovNlaCzKir5ktNPua+8JG2MsgQVbAIipFHzBqqTBGxBMaYGY4DKZGnT8suwlRo8MImKampgvnzuFJEKNgDgCuZzBqiVgXFDON9rK3YhEf7OeLh/hRuDjpbC9lmTF+PrMhAIk2xIBhvKYZex0aCSVosXcvT1IUV5UVtWt9n6kiviZWZlOpm4IWDZ3UxkwLjfny+Acn+bgEFYgzMwBOcrIreH3PSKtqndn4kh2B+XjCVkAwnUoIGJVUeJ7L0nciRBdr1syZnZ2dRORt+XvDBZj//vvvzevXYkFfLnaMEKlWA7EuKGBq7KRhQh61v1kRm0bbGLIcv720V2Qkht9g0WhOMsmuNcv/2hI02Qkx0Sf88ZiMA5sCUFdEJDfYlUOE9jLYswwKkihcZ4H/8MsGVfT149sZcD/bZBixmnH/mBJmxuRUZzzDrDxhK2ALk04IGLVUmCcVBhlmZi6cO/9rDmbDAhjkMFZWtty3NwQJRoLoOdWJDEXo6Sjxh7E6O5sCG+vrPF17fplI8PDKcTxgvmjenDq4de50t0z5tZaCmMLX95bO7lMbo1F98Vucg0T48iGS57VZo8hSXB/A1w8CQAmPc3I34uQ0/sPPQF1e1J51fjq6LAqJFLDQ+1MmsaUZ/nF8WRs15g5GHrAV8BebYQgwaqnwvVig73iLPs5hMIsKCy2/oei1OCyAaWlpuX71KkykdRKApH1slr6OEgNMvZ3NBxvrLInggh5gXBxsc16H4QFTlZdw6djOvHgknmJTvvzt03Ocn3ICGhmyEfJmuDs5SER0qNe9mUGBAxZ6N2ozOhS9ua9jJ4tOPQUkMWDYQSI8vXft0MWmePoYM+X/+R77zZ+hsz9TSeQtIYtrc0zQBTVrFMnhSHza3pm3Ai5wWQMARi0VPhZwGAbMcBf7LPwFEjPLA+b79+/p6emOWu9FbC7QAg0AF1JpH3Gm+xhO0EKDnU25TKyWCpUSwVkuEm4L+0EAON3d+YumX/TUzqrMppK3KCF+zgq/dmwbWp9JoaxYMLP47QM0Esq20KXYF9FRap3yAkktVpEWtne9P4tK0f6obBqVS6dZc9nek13+3rXKtOAPf9gu1KxRlCY/mu46Ab97o753BzcFfDVgZ6n/vWjSKF5cP4wtMcUKeCTgDAwYlVS4iUk3JGV+/OjRcKsyLQwY1MJy88ZN2CxgBUhrMKYQGZQjN9rbVNlK0PnSBwwMkuZ4Tm6v6B/KvlrZ8TEZXYkPKY+3hSISOQgAXe1tsmKuYytUlPRg+XxPSMsRCdnMU1pv8gZVdG7czftn99w9s/vxhX3yO8fToq5UpT8bipAUe+OYLyBn2pgbE2ysdTBDI5P3rvP7rAw3JghgU7782vE+Y1wqAMSJeAMDRi0VZkoErj+PDBh1oQUbsfjLly96xyhL3rAwYLq6uqIiIwkTVAx8GGuyl32yleT/tCPKkggu9T+SUUikBV7T8Oexb5+yuqozkVBx2g980Zv7y+d6at0DKauXz8MLOhtU0QmPTqNmlwwYDlzoPeYJ+hcMsClfnhR2Du/MjFIthUQK9Z1TnvoEvwSE/WlUy//aEowRPRsEU8T8QQGjlgofGT6Y7dy2fVgdZiwJmJ6enuKiYh8idxeqFTCPSi2W9fMMw85jTYhhsrTQRoRNVo5EeFMHMCBp3owpOnYuXVUZSF5vLWDyX91BnV3FPM6VI1t0Vqjs/eN1K5DkEBAATnNxHDlGYjr9HF2Xjfny6NvHdATNaFxSHy+PD+8fDzycRnX06uV9zlESEjnv5xcTowTCgkoqXM2gE9oy0yA4NyfHkntK/7YsCRiE17+GpMXCvhloAbICHMnQYyEfQ4hOoc7OpgSHFlSG+JDPwRsRwSDoNcWtsaQ3HRy61XRVprUUxqKronp5e4ozYmhsJxbqW+Y3qKLj7p9EY8a52tuM0ISvv5oX6p26gcl64L82qKPvnNrJ6G9phiaECVzoPfAm06CKnjPNDSOSyTBECA/Cm+/FAhnOIRRPcosW+Pz333/96dxiVxYDzI8fP3Jzcl0nEgQ0YAPgWgajzoCassHO5qOW0cfPi0oqjBBy+f2Vux7OjuXZcbhTmbKz/D22nFrAIMp7J5lYqehjYLAKJe8eBi5Esli62Emr0i2TFxJrfJQVtHlb0TiALQVDhU1dXtSWkMX6H0o+kzGwr8HX3EgsKBlkBSyhEav58YSBL5/nsQgdM/+nEohRKIbJK9NigKmvrz9+9Bge6LgvB5wqsdbZVdDLRntZNY51wU+HQsRz6m/b72Rr815xDwMMwsB86BWRtRTEIEcyDwSuLvY2JW8f6lNwvSoq9t7fXAbdzUFmyGNW/6mxeCe2vfSnsLE6s72slwk0e6TNGkXJu4cSHldn9dl0WmkywUJgLypPfYJtTQNrLfGEgZXzpMJZlH4qVKwDHq5unR3Dovu3DGC6u7vT09JsJVKsx1hBRCId4bAJFS8o61LQ/zCGTUeCNX9u/+mwEQruXTzaB5iqzLbS19jsF725v2zudLIV4IaY5RNvIBVpYYc2B82b5o499QcWWgvju6r6bL2/VSvx02jehNTnRW0O7pfVB7ICxDzOAGqZZo0i9cVljE4oVsBJDhNbfSMLEUIuo785CNbgvbt3h2OTsQxgar982bdnD9ZXrECxAmZTKCUGeH0t62JtaGreivmrGb2R5NEGuQzGzvXBOMBk4EPEf3j/eEvIErIV4O4o+6Q0qHKuznge9+CkeWQxJp4iyATYVZk+xINZgzr6Bi69K8r3z58xaYAZa8pXPLqwD08qjwdTwhCSSiiDRsj9O9jatbS0WIx3+dmQBQDT/f37+3fvJNrAxNj40YKMRL7O5xEexhrsbSpkvVoXwonIkAiOcfrFrIBB0uxpHs1lvcEuuqrSW4visSX5rAy/dHizFjC2JmXPwlr4IwpEuY6RTeansNG8SWhUR985vRO/+jQydO7A+gFaa1TLD20KxB6hA2CStVEyZR1qSbLm6/C6WJvXrl61uB7TAoCp+Vyza/sOrJdYgYYEGaMRelM22ctq7KT50j45ss4s9ArKBFwdA1UnW+m76LvoJtNVmd5aGIctSaNa/urRGSZMcXeUjYQcyFjHRlShtTBO6xSEj4Kg7KxKby3u+/SY0eF6VdT+jQHY0pOtAB6DrnrZLwWsTrMN6mhUb4Y+JSaRs7XhL/QpYdA7O1kMwk3GViJttnSA2aEC5vv37++Tk635vbkW8FM2gChZX45MOCkxIp5zf75fwGYd2bkedZ/Ey5TRxdC8ujt7qivCw2hTKeis0PglMgM62Vu1phL47455s/RZGY7K9FECgEGSz8xB4lN/zY10lCDpElCTXE+YwHWMkCr0b2ZIBGIiw0WyFXDd0pvMUAFjiHuhA6Afnf6FSJTcaG9TOeBhDJuRJGt+IL1fhFgYJM2c4va16C2i5scpYdBl/qwMv3Zsq4eTXUWqOabm5tHKaHmqWaOoTH9WkhKOZwLbcVITswfSoIqW3zmOt8WkkaGrR7cO0GCzJqYo6QHtp4ULbAWsZNCwdTej8BeHSbjJONjatba2/mRALPD/IQHmx48fmRkZhB7IE8jQcyIbflQypjEgGdOZqUyJ4AyHpTMRMpHw8bW/tYDpdyRDl0fz6u7O1cs+pjwZYLX+zD/VZEXsXe9/ZNd6LWCUnZVpQzyGtRTENKrlNVkRaVGXZ07qDYSA7hhMCiU7ti+Rpf6EN+Urom/1KSFgK+CY6SIyPLVkSgSEAYb+t31ZVlw2JMAgupdjfcPGzmN0APSn0wkdKuvtbMpsDErG8FOAliOFPFF/9SUdgpbN924qS9HaxeievBvV8qr0p8MRcEh/1UfRnWaNQp1wh89iek1x66jM6Ch/P8RjWIM6+lPm87h7f/vN98S8J1ACoJLIdtaCagNRmNFJa1TLj2xfiREMxQoIM0tEhieYwwY2GXcXl66uLgtsLtomzAdMT09Pbm6ui5MTNmys4EiGwogMYXQsLPGjNVR+Y8330wsVaysWhd8+01mV0VaSOIqo9jd2tS4v6tZJRIol4nIqlNFDESI3qKKrM55FXD88z9MdfwxD7fTYNOqyOdNz424OPNh6VRQ+BjkTANPESMDLofwyJAIpkbGMZRX/5gOmtbX1+rXrGEiwAg0AfWm0GiLupc7Opsi4wxg2cUqJ4DxX1wKCSoYWek+v1bzGa/oHXqE//K9fsiNQ3wcOnRZ966gZs9GsialXRVWmP314bp+nmxPqK4EtOpKmAoIcbazvndk9QORl7L2flM+FnF6PWtTvQzU0tKAEs59NLC7zmTfPUmEyzQdMcVHx3Nm9GYjwE2dHJt/hE9hZGs/rY2hBC7EinttP7hB7kTWPe+7wjrYPvc4w2EqMFwhn4LMyPHAhEu+TAcN7N/gT1jF0s0mj+JobWZb86Nqxre6OMmwJsAKFRBKwGFtWLikbzDwZfYXW0fICZnsGWwH+9CFx/BjBpIj5gv6BU9BOQgCoVqksovg3EzDfvn2LiozUD89H0Zrx45OHYVrLWjupISsYbMCEhVSxYI+eoB3xEnO0S42511r00tBKj9/HZgABzCLE8BQGQTdHWbURzvfNGiQr8pfsiKyYG4c2B9mKCDQHMICkSVrgOenN03PGR41pVMvP7FvXhzcr4OjQOH482Wxg0rGW8YWtmzZbJEqGmYCpqqpat3oNvkNoWUIin+USRBtrsO/1PcaPzciySiqMFHJt+ytk0DPAotmeFZlDjVaKUdUYLmiPZL7oGjEo8JFtIbU5kfpOQc0aJDRCfV7Ul+yI4qQH987uWTJ7KmYfiV9uCACZFIqHk93D83vRQDwDzx7ezr9eFbV4Fi6JEgCEC7hGEsOg1RJEPELrMh6LXV9fP3TW3xzAdHd3p6Wm6tvCQFbANBhW6YV+NUmUTDgjKWL+diaBwxCHTt8YvPRLNnGynoGXsEmjqM+LQtKs5ssHrjkG/lqXF3UTZ+vFpCD5yZSKa9UZz2qyIr5kR9RkRVRnPC999zDh0elTe9YsnjVVJzMMhhYYRKDiam9z7djWmuyIQSdHK3oOL07qy8P8P5kBD5eUgQ+SzNbxE1LLIj0pEdr52zdvDd1SxhzANDU2nTtzFptBrMADSTtYTH3DZEKPF8KhGrqpkgqjhDxHvU0GMcFgMvas9/9iSuD6Zo3iS3ZEpvzqqb1rd65envD4POa2Oejyj9IKTRpFTtxNZn/rbxgkSQVcjwl2nm5Okyfa2YoEOgJibGXRApVEZtOoU50dbv29wxhrvcZ8eU1WeOTNoz4zJ0dcP4xOXVO+QnHnONYyZAXMopjmBmOISLD7D/gcwigZnlOm/vPPP0PcZMwBTFFh0RzvWdiYsYILBMVb90sh1mwvQ7eXgc3GsKEOUEBtMam4ODLYe5Hw5KG+lelP9c8Y+vTdmC/XJN7dGrqESUHi0LKo1PVBvtrYAH2eAvpPjYE7Wr4fYWNM+kFWAIWExJ0ScdhBi2fJ7xw3Jvp4U76iJivi5YNT8zwnIWYyXpOxbbxBHb1dG6sE7QZsBexkDRSLbACSMPSnPKnQCerLzomNFwZJOTk5Q2T9TQbMv//+GxcbS+8f+1Cb/BaRJn/VkyYPfXvB5uWVNd+HStFR/KPTwaRQls31zIq5Xq+KGoD7/Job+Sbs3Az3Pt0RlQwtmuXZazdQ1GfKOQYQojOExnx5cvhF/FkIoySdAgSAFJBEgyAWlSLmcXznTr9xYnvZu0c6DRJeNmsUtTkvkp9f9Js/A432z6HTk8MvYJVrcyKdbPqC01OBwUMrYQRgfOGgAfny3t275gHKQQAAIABJREFUh8j6mwyYLzU1e3bt0plisja4+BU+F5OJYYXawaySjZ+FPKkwTMA1lJUKBkF7ifDcgfVlyY/q8qIa8+UYo9msUTSq5ZVpT++d2SX7GfoaHQLrZ/jZP2GT+ZobeeHQRhaVStcmMKNBEI0MIf8iycxgNJkZh063Ewt9Zngc2BgQdfNoRZqxVnnNWulzduyNDQE+9J9R5Klk8rbQpRhamjWKlBeX8MTDA0lojj7jycCYmu/EfBZIsJfKxJIh5vozGTBqlcrdxRU/ZtTadBoM5+mx+0MRjhHOC6LH5LHZenE2sP5QQJKDRLR7rZ/izvHCN/crUsMq0sIKX997euWg79zpWDg/tD4EgI424oRn1xHzKsThOQlb2hFeaNYoqjOf1eVFYR8FIztcr4qW3z5++cjmv3etPrQ5aP/GgEObg07sXHXp8ObHF/YlPj5T+Obe11zThCiooibv5a3tq5ZikUdRxb+TTFye2mfX16COPrSlLwY8ZAXMtTQDg5HNQhqx93Liq1dDOZWZBphv3769CA/HZ1ZBKY+tjcavz+7X2tkYaWeJjXPQQppYsJ/FMBQvFEMOGohRwGIK2Ezsg4f/KwQAIg77yK71nVXaLJm4mIBGEt9vrPZZGb5vo/+hzUFKxbXanBf1qmhj+DeLd7hRjShqMqKvbglZoi9VY9Noz68ewr+0JjvCzaFP9UmxAg6yTXZLHpRC0ArXeGxC1n/j+vVDOZWZBpjPnz9v29IXqhCjP0cy9ETPeKxxMJ9KI0euXy1FLNhlHGawHuoUIAAQsFi7N4S0lqf9NHdXduBi0OCX+feUC2ORCFLoTy+wS2O+/N3zCxw6jQ5Dc6a6nd2/Lj3y8mdl+NfcyHpVv+OoxTuPKDTV0V9zI8tTwx5f2L941lSdfRudahoEbQlZgo9/2axRvH12HlPwI4lEATBaaDENjA6dKCUCEUk34hdiTcfjt7W1mS0rMw0wapXKzdlFh/hgK8CbQi3Ti5hcZ2eDj82nM54hXqaKBQfYDA4IEsoAdHqof8lnMXdtCG79iKEF8UDsrEi1OHmZ02BhbFvpm47ylM7KNORXkdL+4a1W8N0vHtKX7Iij21diafQoJJKdWBC0eNbpfWtj7p7If3X3szL8S/aLr7mRdXlR9aroBnV0Y768KV/RrEF/JmQlaFTL63Ija3NefFaG58bdvHN6Z8iS2UKihIroVFNIpNlTXHX8XhtU0dtX9SpP0WO8A5mM5UweIj0QPh7MoBKSx6sE809lJgDmn3/+kUdF6xiokq0Arlb9gnH5aKHR3qb6Z6BkwsEM/WamRHCRy5aRSITBqfRBgt1hUalrApY0f0j9ubf0+usisSB+hgU0h9AtEoavMLbjwzudjvUGxdVjsSrSngb4eGGYwQaImkGIeVwvj4khS2btWed3/uCGB+f2xNw5kRx+MTfuZkHivdJ3j8pTw6oynn3OQrSWuF/4Z+Xz6oxn1T+9VhvU0VE3j24LXbrYe4qdtYBwP8G/GgZAZztJ/qs7OnNYmf4USzaGGOlYAaFDcxoblITuG1DIDMVMxgTAGHKudCRDz4QCHcDU6wWzHHR4ZlTI1VrNzKfAdMDYrQY1QitOkxMQZVUGPqqGznr/msvWwrjOCl0kd1alEwapaNYoypIfLZ/nOSgR4wkazdbGplF5TIaAxRJx2BIex0bIk4n4MhFfwuOIOCwhh+Vqb/NFq8j/kh2Bt2TBN6VfhgBQJhK8j7ioM11N+fInF/fj61MB4CafbcaiG/9IlgHXZRux2OzEGCYAprCw0HvGDPyY0Y3Vi0Ip7R9I6WeMiyG5Nxg/L+kSwWkucyKZTANAQj4P32cGhRKybKE+WpCveFW/uE06S/5rLrWA6Q2Lg3ZS6yc3kIFpZdrT7at8mVQKnj3AD9m8MpdBz9G6tdRkRXi69WmuBmgNBkE7a8GbsHP6c/U/e+eFXpPxzwpAUvqQfWAGJZJAOsGp7H/xtbOUSvNkZcYCpru7OykpiUntFyiMbAWwQXAjk6EjH2uwJ4j+OujYhlJBJRWmiAXH2MxJEMQAQCqA7Pj45cHK6HmMGDBILoDfre8vjO0o74sf3VWtxCJTotw2wtOrdY3f6vKiwi4fmCAT08hkfU8VbOwmFdg0avx9JIBbTVbEZOe+BLqGGqGSye6OtulRV/TR0qxRZERfpZF701qh57HFVOJ0lkMhA/1nbxiQlZ088bd5dmXGAqa5qenShQv6k4V4vwh0I499RXLuDRRCSX9glrqTJRGECbmbGHQPCOKAID6cOdp5Kpm8cNZ0QsB8q1b+fo+0wtj2D0lY9zp/slVN2nCsd07tOrY99OH5ffrql2aN4mPKk4ObA8V8Lo0MDX23YVEpTy4dQAEzzdVRf+mxOxBi5E/x9/EyFK6/XhWNuq9hj1AB4OxgycYsQhLpYgGXyEPGa7qneS5lxgKmorwiJKgvlQc28ikwnC0V4xmYX8DuGzOV/zMoShLzD7L7hQJEuz3JyQGLBoiRprYwEiTLsW0lib29QlRD79APdlX60xU+M1FtoIPUmjB4NJK3UKMoTnpwbEeos52UAcNUEtls5DAplDundiGAyY6YNUVXNIrOJMoOTZBa3z65U3/fQ3verIkpeftQJyUGDyS9Ny4VjDFrPXCduVRYX1ZGg+C6ujozhMtGAQZ133dy0P3M0ABwOZ3W0N9+rN7OptSUMBcDj3Yof81DUiJy9Sdrgkyam/S8P1QwQVnaUPzd9U8jZtxpLYr/Vt2rS8WOiF+yI07vXYsKxFhU6oFNgQNkSmvWnqOibh5d4zfPzlrIpFBoZIgCkkw6rTEplGvHkFBJX7Ij8P73KGgpJBKTQnGUWp/YGTqw+UyDKvrEzlXYFxY9jy2iWthCeQA6OcImjsCkiJabcSozCjD//vuvQi7XV/Bbk0jHOGz89tJsL7Og8dgAs2DMn1RS4Qshl6O3I9sIBeG3zxADBhGUDcRhEwKgWaMww0qFsKmWgpjWwriuSiQzYVd1ZltxX2cq05+uXDqHgmwagITPTQ6/OICZKdo4ipxXj84c3R662HuKjYDHplEZMEyDICqZTAFJMAAaQhGDAl8+vKmlIKY250Xosrk0MpkGQQwYZtOo9mJhqO+csEsHdDQthCMqTw2TCnh4wFAB4CpveOVjePKIEfEIFQ+7duwwQ+VvFGAaGxtPnzqFHzNanghBUf1zVprtuI8foQXLcSLeBD0vGj6LeXjXOmLAVGeaEYmmJis84tpfZe+NsuclpKp+NxG+/z0KGB0xd0VqWKjvHAqJRCGRZnpMLDcxXuHX3Mjc+JsR1w+f2rNmS/CSxbOmekywkwp4XAadQ6exqFQkPy6FwqRQWFSqkMO6dgxJ5Nagig67dGDfxoCz+9c9vXIwK+ZGfZ6xxmYN6uhzB9bjKQdC7HRJWeZGhTWDNnKlQhmZhO8DWp7sPsmMvEtGAab8Y3lQQF/caOzdnnqR+Y2MAWvGsM175LU1fwFV1wiPBkFL53l1VGYSYMYsvr8mK/zGiW3r/X3q86L7kb6ZqszYttLX3z4pEYEyLto62vL/3H5WLZsHgyANgvwXzPyU+XzQfWbQLqF2LkVv7ufF38qNu5kTd0OVcLso6QGqhxn08QEqfEx9IhPyMYJBMpNZAZuZdPNW0+yn/GgEwmUaBH+trTVVuGwUYFR5efrxx+gAGECn489jP33FfpH6xZjpSxELthFFRXBxsP2YhU9mhgXnVnaWpwxAAYR/qsuLirxxRMRh3T6500JGkLFtJa+QDGG4aOvoq5HsRW8ferpNQNX5fvNnlCU/HoCfIezwr7mJcC+7+nEviMceACYYkSrZmMU1vs7fBmL8vYyPN5WNGRww3d3dia9e6Wtg9BmY4bO2NH5qdGpmSwTXeWx9vt9GKHh+6zTBDoOoLwki0A5MYc0axf+OOjwG3UkmTo++OnDlof+1US1/8/Qcn4kIACkk0nTXCW+fndd6zimG3rilWmjWKArf3Bdxe4OPoZsMbAX40X6F+kWHDGJEPEK93PGjR01lYwYHTFtb2+2bt/C7KlpGoif3t4gZaecxdNZiRDwbvdDuHDp9+9pAA4DJbCt5ZSrdlCU/8pnpQSNDC70mDxwl1dSWCevX5rw4u389RRtEFwIAPou5f1NAydsH9apofRUNYQvDfbMuNxLviozSDBcE5UKeDjX/gsv/xYQQElkuL17gY6o2ZnDAIOlfdvTLlYMOXl8Do5WPjaDzGLoSb8X8FXphRGCQNN3dpb6YwMzRPPVlTVb4+YMbIADg0GkHNgViLuzDR5eV6U+XzJ6KqVkgALQR8P7aEpQbf+trbmSD+ncip0mjeB9+EY2agH1qKVbAWsav5l4wNM6hEGhjJEJRR0eHSdqYwQFTVlq6xGchNmy0AFsBC6hUvAd/o72syrgkFtgYfk1BKRFc4LH0d2RbsajX1/ITxsD0Fsyw82/WKLJirqMW72IeJ+L6X8P9pW/KV+TE3rCz1o2vx6DAPl4elw9vzo69UZvzoi4vqkGlNezXWvUPH4DxLddkhfvM9MDTDGQFyEik5F+lrNQnrR1EYbpgkPShrMwkvn9wwOTm5DrZO+AHj5mQ4Tn+kaOv1J+sOBFBiCYug7Fv8yoDpzJztDGVaU+3rVyKKOYA0MXeRp2ga9+OJymLlOtVURHXD7Oo/VLoYCsFg6BMxF+xYObR7SsfX9yfHH6x6M39mqzw2hzESQbxk9G6ytTlRRH8tH9FqyH/5iD1jRTHNaijb53cgW19aH9oAHjyl9jC6K8+euemAaMyhdw09eUggOnu7n7z+rU+xy8hkc/w+kW4HA5vZEODN/V+iliwVU9W9r+gO56TXOqKCE5lSEAM05NxN+bLUyIuCVgIL06HIN8502uUg8e5GyJyanNenN67Fm/XiAFGv0Alkzl0mp21wGOCrZeHs8/MycvmTV/hMzNwkXfQollBi2YFLPRasWCm75zpi7ymzPN0957sPN3VcdIEOxc7qZfHxMq0p4P2tlmjyH91R8zj4N8OWQGeMJwj+Z3H9VfWfMIYXSeOHTeJ7x8EMJ0dnU8ePdb5WpCtgAlkKBzH8WvzWEhNpeNfVj9PKnwu4PL0VP4ykVDx8CLRJqPsNMtduTrj2b4N/uh0cei0Q5sCG9QW0cwM5B35WRm+a+1yGlGmBzzVDqXMoMCHt4UMihbUjiZAa/OGfx0TAM3LkGxBCsmTCkV6BEC2AoL8/bu/fzeejRkEMA0NDSePn8APHi17wHAGzubSgsHHLDhH+KaSxfxVdN381GwabePK5WjGTB3YECoNB6WYZo1CFX/b2U6KzpKYyw67dMBCmpmBMPMpM3zPuhWEsT70187UO1QSec5UN2OsYBpU0XdP79axtYGtgCVUqkWyWeAX1IzyTJiA73d3cTFJUDYIYKqqqjas7Qu0js41Gt4TH6K/zs6m+DfZ8xs5cXlSYaRIN6I5BIBujnYflLE6aEEukVOZOVGXvuZGPrm4H425CgGgk0ycGnnZyNP/oIAcoMLX3MirR7YIWExU1mwqKgjro8bIM90nFr25P8Cr0T81axR5L2/rKF7IVgATAKOGLdKFkauPVlup98VEuHE6o6W52WI7TGlJycL5C3RmEzVSbrSXYUz/yBQo68xmpkRwgqObm0nE5Vw7uY8AMEOIiVGZ/nRLyGJYGzyNSiJ7eUwsS7aQmdmAtjaN+fJM+TX/BV5MKnUohv0wCFJJZAYM21sL/9oS9MmI3Bhat5nw5fM8dUgFtgLm/0LDZJ0V17k8wmbqC0shACwpLjFeUDbIDkMYJoYLkraymBhaGu1lwx3vQmfkZl++seYv6m9aRiWR582YohM+BsUP4rFckjDol1W/AqLkfn1vutsE9HBCh2F/Hy9jonfrN2XGncZ8uVJx7dDmwKkuDmwalY4aJpNIMEiCQRBCzJN7fzAIwiCJApKoJDKVTKZDEIMCS/jcudPd/5cQ5uWDU8ZH9GtQRd8+uVOf16UCwEUey+z1suyDdw3ExEh89cp4A5lBAJORns5j9bNuIFsB1iTS39w+q/4GO5sPNmLLjm2YWsuVCp8IODrcv621MO7JFYJNZgih/RrV8rfPzksFXPSLy6ZRd631q1cNuwAAD7DGfHnpu4eKO8fPH9ywY5VvwEKv+TMmebpPmOJsP9nJbpqL46wpLktnT1u9fN7eDf6XDm+KunkkN/5mbY6xlsjYu5DDWPwta24/yRg6cAYAJlrzh2k1TW02XsQjFJTdunnTYoBJePlS3w3Gjky+i3NLNiNzpalDtWD9FLFgc38dFpNKDfVb1FlFYLyM2JXp2QtjhDJwAWVm2D+NDHhMxpl96xr03PEHbmRU/PWzMtx37nSdwxh6yQTA1yMGMBkSAYcoyPCh/QeMlywPssM8DQvT32cnQpDCWogdyUYFA4NBTptqhivsn8rc0UaclRBGtMkMKeByTVb42f3raT9TL/zPDuCucTlTRwVO0E7W50VdPLRJn0hQwFCtgD0sxkgQkaEEYKtnVUi2AkKDQ4yXLA8CmCuXLut/OSZBcKrEGgXMKGJgMMy8E/MD6f3C33Do9J3rgojly5UmGy/jyb0q49mO1b6Y5ErC5z6/dsiYPMP4RkZsuSlfnvT0HLaL6pMK2QrggOAzIXeEYMYThvRN1+d4exsvWR4EMEf++kt/FqbDcJGNBAWMxePzY2Q9fIVMieAUl6Uzrol2NvnJL4g3GbPkyxiVf0x5ErJkNqzVmkEAIBXyIm8cHQOYQWUbTjKJzkzqXCJWZGRSjIg3EjCzjEaQX8heZmsxwGzXCz0OWQFzqNRPPwNf/JoIl5YFT45EcIuv6yTDZTD2bl45HJtMszaSy4KZk9BzC2JWLOS/uHF4VGMGjeo0f4a7DjwILyErwJFMjh0BmFnP0FVeo6oY41P5DbLDrAwO0ZkCKgAuptHqfgLmN4YgMxtFSongnN4OAwHARDsb1dtw4k1GL64xtoEYU0AsABJueyKCZiSePGQFSHicJ5f2GwpNZEybv7EOgpbUJ37zdcOg6pAK/hKyAuzJpCjhb95n9unlr9c6rsLGJ1geBDCLF+oa9jMAMIhOR0NdjkCf5EFRpJIK0dR/+OVEy2w6bctqf4uLy1DKbtKqR9wcZBh/LGSzrh7dUq8aZWnTm/IVxW8f6ARe0p9M/TvIZ4JEChNy86S/zQrzNIfA0QM18jdS2T8IYGbN9NIZORsENzAZPzn+YQ/RPygATKqQJxUmWPP96MT28P+fvffgjtpq24V/x7POedeoS9NnNH3ce2/0YmPTDAGDMb13Qg0tCRAgIaGEbjpJCAk9NBtwwQ3Te7Hpzdie79nSWNZImmYPxnnPx5pltjQalb33pX3X60ZlUKjVfObQZqlFpujNzdPtfKnXlR36Z9+aCLuZw4yGouaMG/Lw0t4OiJ1p582zP39acuBU4aq4sNaiSILpgSMYBklQtHCH6SD4R73mS2HGHXNsyZUrgQFMYpxQSNXByHSVyqnxB3c0h7Jf8OAfXGo1XASqiyYaa2X45UaRa8hxfFDf7i9uCPnzGarytqQuC6Yp49BcFWI2cJiRY3hun4yak1s7IEZTcDN+bdZfPXzv4u5vpo9U4KD6tOSHwKjQ3sPN8d0xj6HTchm0SKP8rJVh+EPPb2+npSuSnzp5MjCACQ8WslAbEWS+xgkYRuM38W+oc7YvWwxHjLoRckou5bcSjL1Zp928eqGk9v/21jkxjYtf0w7QfJUdPL7zu1BLK2YIGIkPD/5r+8rOqdI8v/rbk5IDoPp0fKSgr/ibBE4GdRuUMHpxfMHCoG6DcEzIbuVysAwaraCKOjxD5qBBmg3j8KFDgQGM1dRaIZp9YDOCLtM6U8cef84aYwHBXonVcMasX6RWinkw+OPHb+MQHB8Zeu3CYUnB7HUL2bG/OOEf/6zs4Mld34dajNw6g8ogWq1cNiP/QfGez53bzL8Tr+26skM1J7dOyx/oKXcAgklSGdJ7eMLoxc5PwaLQPnkkKed3rKCNgSx34oyZ7khz818mvTj+8r+Gst07dgYGMAatC8knKoOsCPq91llevDP7+EuthvMMx1KSlK9KMHiCTSVJjhycJS2YtYkaUzwv68oOndm7OjrEyscMhaK9UuPO7F3dGZaa+vJD9y4Wrl88iV82TNBRDM8yotCZIgdMaEULC5uCReHZY0hKggyeOwkmg+Iw7A+TvsMwc9Ksl6SN3bJxU2AAo5YruMdjG3YEXacDgKkPsd//zEX52rbIlFoNxRZ6t0HblyQISFraFjyUeJNWq1Z+PfnN7Qvidebd7bYHmPGRU19+6NJvP3WJj2R9muw9YDJIr1TMGZd7/cz2L+WoqS8/9KB47441cxMigsU9w9+DIaguODY2b64QLS2Yieg/npILg3ddzsAwxxZ2VCjAP2ZaITUl1v2wNjCAkeNCSTQYRTfoAWDqQuy3Ox9NzBWr4U+jboSCUkrlo/KHytl2r9WYdNqfv50nxShbBGhlAlENk6WxHJIprFOJw3CoxfjjkskPivd2JGzqAFT2bPt+dmoMYNb0/MEQ3JTQPaFgkTRaWjATOWCiZ8ygMui/8eOb6I4wnZ0z02qpEV/9/arAAEYyVPkXJlS548uMeV5wSqyG02b9Ao3SIhVgJxx7CMZglKRUOnuUXKVHpToRlUEGjXrl/CkvbpwV2gDuBsDKzK0294sKl0wdoSZJvnjGslrGhdl/WT7t/sU9deWH+CW8ud8GpAFqm5UevH5m25oF46NDnPnVwh5zxQ+G4OqwJFOXgRGDp8SPWhBfsNA9bBZFDpxIKTytM2xi5vc61ec2nZ13E7D83cqVgQGMYAhR4K91xvZ3Hl4l1mS8Ua9JwSSStoUDD8E4iqtoqz0jJzZvTkLBoqjBk9TGIHeYUZFkfm6/60W/Cx2ad4veXD8ZkPn6ouK3pyUHDm/6JibUxoVpcreNw0hkkOW7uWNrTm0NLD3f86uH68oOPby09+Tu7yflZXsoI87djLMBwZTaQGlMOEZiMEoptcbo9Ogh09yvNosiB0zwihmKCW2+/Dndmu4i/FcsW/4ZAbOZWWE6SRrMZYvhoEE3WE56NxlDMI4RWmt4aJ+8+FG8N2LBoujcKSqDDZWBuBXxB4eRiCDb5tULn9WcdoFNW/P+OZg9v3q4vvxwffmhuvJDz8oO1pzcOjV/gEZOsenN/DvBINigVo0bkvn3jpWPLu2rKzvUZmNafTnAyaPL+y4cXLdk2ojEiBAxSvmX9rFNksqwviMSRruT0BZFDJhAUV7WGVwGDZd/RnPzBQutlZImli9dFhjA4CLxhitq+TjYdvWLEl+wRfmmqRS0a3KLxABDMI5TuuCY8Owx0m/BAiA2KLQmid+2QIhE0eSYyM2rFz0oP/7m9oW3TJEwhsHMb66M+quHn5YeuHl2x9/bV25cMf27uWOWzsz/ds6YDUun7F2/YMu3M7O7pbA0GuL7IRAkJsQ2f8JXpwpXPSze+6yMYbUsP/z86mGxzPb86m8sJllAPr6yv/rk1sJ1X08ekSO5mokv59cegqAissd4kM0iBoz3ihlMBvUiiLOfp4CMuxVm5fIArTAkr/It23fBKPozs8J8QZtyqdVwzkKv1qkjW3Kz3I4rWFVIXXBsRP9x7gcSeA/iCxZG5IyVKyTybPknx2HYaqAn5uce2bXuadWp17cuvLl9/pU/rH8PL+07+MvinO7JqpZkTP752YJ4oJ6RVHVO/pE4BFtp7YBeaYum5O1cM/f03tVVJ399ULQHsFRe3v/o8v47F3aX/bXx+M7vtn0/a9GUvKGZXaODreIB5Z+zvW0IlmsMsSPmue9qRp+Re+lkTAYlYdgJc+DNzecttEpqhfn+2+8Cs8IoCGHYVRCC/qjXMjblL8Dcx5qMdxm0vUhc0gPVOuSsAGaLDM8e7X78WhxtjEknftSC0L4jCcKTu407Pysj9e/d9dv5U//e89PNC/uflh4ELMZlh+rLD9Wzr/yrLvUnQJDvme3jhvTl25G5EwaqQaGYgiBIUd21QJ3f83kwCNGFJQLlkLWSSf2NGjwZGFrcCMDs+TEZFIGifwU6vfmsmVZKAWbNqtWBAYxWKUy0siHoGp0WUI93uBOGNRkXKCiVN5MxjmBqox2I1J6NnqLhjM+fH9x9MIa6DZdyN10oDA82GzK7JE4c3m/l7NHbV885tuPbK3/8fP2f7Q8v7XtaeuBp6cFbZ3fOLBjk7gz/ov2YDMJbPuLbxjHCkJYTkTvVQ+dHD5mu1JndGVq4c0ag6LGA8pefNksTxv7800+BAYyJFpLDWxBkpVbzLMR2y95xTDGlVsNZM71UqwwW6VRc57INDEbkatredWDcqAUeXnIevoobMc+S3Ad1rxdhEEyimNh+KLgTwEoOIwoc1ykUNoM+ISIkPT7SQ+Si+OcdsweDGLIlBCFRVMF83F0Xk0EkBGlhJJ0gRikVE5SK/hRlQBDhUg8hqqA4Q8aA4KyC+Hy3oxA7fLbGFuG5GzEZlIhh5wKnzxx3Exqz9ddfAwOYYKtN0H0mBFmiVQNqJXsHhV0WW+idBm13wrsMRpJKU1zX2OGzPeDBl69ih882RKZIvv9IFEtPTjl88FCfnr0UBEkgKA7KeUub1wRdJ7nJva3FueaSxwdkJwbBgI4MRbUUlRIeNHFI3w0LJxzduHj93DEmlTC2g814oyA4CcPX6XXX7M7sdDba45rdkqeQu948TCh1hvT+hvT+lp7DYtyLZ/H5C8wJ3XHEU/w4JoMGywPGNPuHm1JkewoLAwOY6PAIwQjRMDJHrQJOmM8PmFKr4YRZP0mp0Lh/37O3h6O41hYROWC8L3jw5ZiYoTM0Vglvt0ahnDV9hsPhaGhouFpevmbVqtxBg8KDQ1SUnMJwEsUIBGU/DHEewJI7OOEySA8jWSQ5RqEYJKciUUwBwQQj6rjOPwlLt2BQAKeBUjMpAAAgAElEQVQrihHuocssI06Q6BXyXonR88fm/vbTwpunt7+oAJa0O+d2zRieTUr1M4AKju8y0E9b0mzZ5A7u750ga7JrzD+GoPrE3ixmjF0HRQye4tbcXLAotPdwkvQUcobLoJ/0gSlTXmjQCtdDxgp69MiRwAAmNSlZMDZaGJ6kUjJkyp93hSmy0Jv06jiP6Svg5QdkMH1Qt8EurhWRcuILSJzHFCyKHTk/dMAEY0oWKTKakSjWo1s3Qdmq5ubmV69e1V67du7s2cOHDm3ZvPn7b7+bN2fOmIKC7MyshNg4vVqDu85FCoJ7k2RpC5cIG2pUZbNsN+jHKpWRKEZCQE/wBTk4DMcFW89sX/ndjPx+6fE2tZJCAZMl+1FgmF2j6pEQOWFwn/Xzx53Z9d2joj2cI+hFxW/15YfKjvzcOylKMNBApGRyJH/QafmVsziccI1nIfY9RtrlViFEHZbIAob5OyAo05N4Fp07Vak1Si7p7F3FYlhAggA2uyG/PH/uXGAA07tHD0E/qiA4XyF/8jkD+0uthmMm/RiFXOFN1CFwyhCZEvPVTD/w4B5L8QWLYvLmBPcbY+oyCAxzWo4urjtBqQT2HLVCOWXS5Pq6Ot/Z3549e1aQn8/1JC6DEjC8lifbcJOPbTwJtp+zmBZq1Ik4TvmAHBJBeyZEFR9YyxjoDt0/v6vyyIarv/90/djmp5f3eXBxPi09cHTz0mCDMCYdk0EKCB6mkHP0QII7FGzeC7JF8D0QECw32HmAAeKZucfQmOFurWexeXPU5lBBV/N7bH8gGM1/cFNWqeLq1cAAZvCAAdxNsw2GiVz+MNha8Xm8lsUWeoteE+99YUGVOnNonzwPphjfURQ/amHUVzPtmfnGLgMFw6xP7C3XWwU2ACVJ5g4YUHT+/JNHj969e+eVaPTZs2e5A1vtYzSM/KzXCeac5OaTYPsZi2mGShmMoITHBQeTQQalYvmUvLvnd/kYr/no0r6fF05UE0KTIMEEQO0w6Pl88+Lbq2ci1utC7M9C7I+CbdNVLgZVUqEW9KQhvb+xy6DwQZPdDVnsiLlqk3R8NCaDvg1EAbNFGgk+cgJB7965GxjAjB5VIAAMIYP6kuQtu6XcavQcDenvt6VWwymzfoZKofFiNYYJQm6Mzmi/cg/8laMWROROtfUabsgYIB5gdg+d2k8TlogD/0yrco/DSKg9aPV3310tLbl1/fqzJ0/eM8iR5IG/d/duqD2I7UlMBkVi2O0gq3gKuttTD+jerdsN+l4kKWcWHMGgcJs4DEdYDKtmjbp2fEtd2cH6chBBIyYMeH718O2zO6YN6yf2CAGSE4W8micrcndVH2J/Gmy7H2S9aTfX2k1VNmOF1XjVaihnor826V3ckTiK0ylZkl1q75sflz9f8nUWM2wWJRKDWavDArXS3xklPn6KK0sw229ynHj16lVgADNrxkxuMLhGBkFU2cxsN4nvqQ17WHfkNlrbRarULXddRmMBC4vHmCUXX6TkqICdjKISNnCiucdQyUEV79Qn9lYYggTZ6iSKJcXHr//hh7Irl2uqKm/duP744cPXr15+amhoampiwdPQ0PDPmTOc6q+A4OEKJ4sINxd9bDwNtp2yGEco5GoIllRe2b7CZJCWJLPTE76dPvLIL4srjvx878Luh0V7HhXvfVi0596FwqIDa3smCJUWQgYFo+gWWmJhYemBqm0mD4N+0qzn+wQxGNHH9xR3I7vH3GNotKQxs2BRSM8h/BHnnmhRIAAjWSLGqNcHjMhvxdJl4rtPwvGzlsAsL6VWAxs9OZQi+d0tvigId2c0lnYuLEBRGTE3JHusqetgd8Ppdn9atjY6gxSlAxAIGhkaNn/u3H9OnqyuuHqtqrK2uur2jesP79979uTJvbt3ly5ezD2RFkZWtOR4+4gTwWF1IfZLVvNYpUIFwS6qdkvYG3ctriGHYT1BmBRyA0VpcZxytUBgMkgFwaOU8moptao+xP4g2OoBKuwrsshCx/IFaQjRRKa57cn0/saMgWEDJ4mtZ/GjFojzZzAZtDoQIlkfQoL5Mj4mNmCA2fTLL1ync41oDDtobG8Ng1Kr4ZLFsN+gGyInvSZ7YRCiUNPBPYa6E3/driQ8FT++YGH0sFn2zFFiRcXDuIq/AhJaaCJBKsVWHSVJ9e7R4/sVK86eOlVdcbWmsuJaVWXR+XP9s7K43jPCSKFBz8cAK+o8DLY+CHJ+HgZZHwZbH4GP7XGw7VmIjX88264LsRdZzUPkFOlRt+Gu665ByKCuBHGqhSxbfKH6ELsv5eUuWehcPmM1hKhD48W9J9hj7ztSKJ4VLNIFRQvuFpdBhbS2DcKL4CexmAS3ck5WP9/tN154yQ4eOCCwhwLyLhTdqG/X3V9moDLYh1UFGDdRQhccA9IteLPfr3b8qIWRQ6bZeud5UFQEA+l1k07OUtmjcZziKzbcMMtxIikubsKYMet/+GHbli0JMbHcVxYE5WZnfYj9cbC12ubdQF9pM163m+4GWTjOUXZmPwm27THSkRjmQULjLi3ZAIAhiae8enICzDwNsXtdXsoYSWE2U0HaeRUIVtqjvHYjsJ51HxI9bFbrgBYsokMTBLdKyaCzZlow+/3dZOrCSnCmTRg3LmArzOlTp8VZyhYEWaJpY1mpUqvhpFk/TaXQuUoFgg7iOp2Sq6ypmfFti3MpWBSXPz980CSLz4qKLwPMP0af1EdpjcAxUhI2kg9lQ1DO/fK0Tdb5Spvxlt3MIac+xF4bZJ2lVmkZxUZSSMNkECEDUS02BNGI9B8tDP/Nq18iAMyTYJsvU7PEalir4xnKIFhhCeP3lYe2MWNA2IAJCUzaZnzBIq1NyOcUiaLtJ8o4bdZLJvSvWLY8YCvM5UuXbGYhPbsOhico5b50ouCYUqvhN6OuNykhR4rnFgajKoMNZLC0YWEpWBQ7Ym5IzlhTt1wP4xSor/SJfZSWcIaJq9WMJn4idk8QgtYwqgJTq90i6CLfN8uthrtBrVEqdSH2Mpt5rloVgzkjBrgbUEBwNkUeMBruMpLeP2Z6mUZp5L2w5BA8XaXizMRsg4ONjytMqdWw1+CsuAYuDcEKU7BfPWzrMyIu/+v4goVK18QkTAYNk5O+94y7I/e6cfPv3rXLq2OAs6F5EckqKyrSU1K4rmcbCggeTLXlAf406vq4lpgUnJnbJHCSjkhug34fX7AoevjsoMwCk8ij4tfgteFgBjbMauPe34oxAu0NBjB1IfabQe0KYK20mViSa25yP2e8ItV2yz4jrWcgoYLgFVoN51F5EgySMq5YDdtoDZcZQsigLgTxl8nwq0G/gdbtMOhPW0x3g211LZ6WCt9cCCfM+tb1DYLlRv8AA8SzbrmRQ6YJSAAxGbQmEBr/Gjdey4vnL0g6AziQ8BteAHPjxg2+x42d0DhQE/FiP2NIz5npr9XK1g51Z9KBYEqhsXfp75FXQcJ2DBSVodNtfUYEUFFpC2ySM5W2SHe6DVP4AbtpB06YuhDb9fZFfF+1GiXju+pD7FU2CwsYLYwcahG3WHsX+wIustCjFC5VpVh3Bxu3T8ggA4yMVSouW011IfZK35zU58x0a/3QNgHGkN5fn9CLe2+yDUoG/dNuBabMapgmRd1Potj9e/cCBpiHDx5KumLiMczfYp+HjbpEvtlRCjAYjKqNwRH+xVCyispkS4+v2jC/P9NP6JQsVVAMQSoEug2zwmA3WgBT274A1kqbkVs62NjhOsbpfsxkHCp3RhBrYWS/0VlfsT7EfrMFoiVWw/aWmrXsvCQhKBnHl2k1f5gMFTbLY2aFYZesq74RU1y00HaOVRmIZCFt6F5NWBIfMJgMSsdxd1KWX/tzpKopmWnDh/cf+GuI57aXFebFixfrfljLfwC2HYGi22mN77dbwsgAnj0tBE4aIlPi3EeDC5UZoKjMC+0/rmMUlTaMPZ2SpQ6JJwCTXatuE4ygbBRZXYi9PStMudVw226uZwjiHgXbLlnNm2jdGKUiHHWxmKkhmAvDeRpi5U/9kyaao4GkIHiiUvlMZCtjggx8VbSKLHQU9070R+lv7du0HKUplD/fcBk0X63wfaZ5ODJKKgvVr3p9DofDC2A+fPggaVm2IchyrR+hCpcthvU694whrBiW0d/HiGNWUQnOGu2MkmRSL1o7vZNt0in91CGtRRDsCFrVosPcaHnfexhmd19dtRofBtlOmI3jlcowFKPceGMUEDxDpWQXihrXBe2kqTX9UAXBG3mVsVmlqA6Qm7pgzN3NsPuLLXQ83pLc4rNZ2WXg0nJIlUskKCWDjpp0nq/ry7cXLdLJyRPHj/fdpuwdMM3NzRfOnaM1POsHI0r5ayi7ZDGsdQMYYA2jfbWGMVGSM+x9RhgzhFGSLv3eyTCjT+iFtaRJ2RC0xGZm4/lvtiPNu9xquG433Qqyltssf5mN6/W60UpFJIYJ/JiEDOpBkE9DhPlLJVbDTp5IpoLgrYw79RmTfF5rN1XbjFd90/W5+eoKGJ8cl8JRS+3Hzw/HQFg3xp2/PY19bkxkG378yXebsnfAOByOiqtXxVkxFARlk4TvD3DFatik13ACALfm4iiuD46N4fut3BiRQZTk4CnWnsOEXdzJsCF5e/qkPoTc6aOwIuh5K6hBXR9iv90OwJQxUY/XbCbOIcMuI+ctpnlqVRCKsvYVpu4Xel5UWKLIQo9VttJ9KCH4Z1r3LMTeniD0IgsdwYlkMKKJSpfsDQ87dXEu6SSYDJqtCow8tlyjkjQ4nfvnrO8av0+AuXXz1ghRpUtMBiVj2Bl/CAoKDVq+7Z/FDI4RxqhUoXLiipm4/AVhAyaYu3eER8XDWLbnKzo5k9I53VlmBDlhNrKAudc+wLAvrHKr4SbPj8me+U6QbabaCVENDP/qqnBeYTR+zqzMMrWu1mkfMkZn39+DgiMvWGhzC+kCCL5McBt86aYzc9Qh8dzLFFSflEG/GwMgj5VZDcPlEuVg5Tjx5PFjz1q+4FsvOozD4Xj69OnSJUv4j8G2I1B0p+swCLpPsPmbUSdIZGXPo9Aao3KnesBMzIi5ncoC5mawQY6Uuw+d0k9lc0YHGxFkv5Fmp/X9YF/1aUFnSm5W2ozXbKbrTOx9qdWwTOMEjAKCp6oUxRa6xGooAXQi+qValYD9UAHB3+m0Pjr1Ja9exmRnkC3c+DhG0qn93HWI9P60HAXtUgwwKhAOfvZuXQJDWyy0sZFRDQ0NAkh43vQOmPfv3+8t3MNFp3PIsSLIUo0fev9xk344Pziv5aYJQm5O6OkBMHEjvw7KKpDuYvdztHMdn5ajiUxju04PI2uZ8gfPgQn4c3G7FVvohZrWRHlQRQOGozEsGsO0UulGSlB6UvcsxOajy0WMmRKrYSvNpcTAZAsPhh8DkZbD5Lc6OQwwGdS2gBLxvV200FTLfOMmMCqDRo8a1fjpk2eECL71Dpimpqbz584ZdXr+lUB1cwgeqaDEN+duzwUL/Y2o2Dc4JwSraFus++TV+FELwwdO8qPfOyWKGL0f5DaqwPsemK2eM5GXvsQ1uutSD/uLLfRstQT/i2AQuU1cBsVg+AyVajutO2XWX7EaSls+Hq7C/+qyxTCNU4ogWGH2NZCMG1k6qQ/KKyiLy6CdgYhQLrMatrhJ5f9lwwbfg2JY5HgHjMPhqKqq6paRwXUu28BkUAaBX/bZ31/KmGUk+V9IShXUZYDbRaZgUdRXM43uMyK5Hu/MDTq5L6kCJG8kBPcgSBYwT4NtnwkwFy30ZFWrTi8YO+DUZ+hsJEltKBkUiaKDKXKeWrlFrzlu0l9iZDkOQmyDj5Yyq+GChY5x0fg9JcNIjpQmwiUIywIjl3yeXYKbEWxOlUq0RGXQlcuX/dL4fVL6HQ7H/fv3p06aLO70aAw94A81wRGjrocog5zNo9TaIjyEJMfkzTV3HyLZy/+WnXRKltLi5G0KQVA2B/hZiK09VinBtOA2iy30Uo1KUvRioaKWKwbl5Cz/ZsmyxYtzMjPlOCEWubnhBvmbMByLYX1JIl9BzVYpVmpVv+g1hQbtH0bdSbP+vIUuttCreOIDjlNtUWBMrRWIMRmU26Z4Ra4T+I10XKIOikGnf/v2rUDi8rrp0wrz+vVryUwyK4Is80eNOWumZ0nxxKEySK7UhWUVuFtkYkd+be+b/2/BhvR9pmVrIlPZWWiAkW00yCFrj87AnxBcu5SpKjVETvJNqCzVIMtwadTpJ40bf/b0qdrqKvZTU1nx+6GDGSmpHjDDgUfQ4FgIWTo157cgKCZUuhM8SMtpOUxIhFOBwWXQWl1guMguuCEgz8nq55fL0g+RrLGx8fSpUxpFqxLJdo0agvP8UWM8BMgA+3K0W/ty3KgFoQMm+D0GHobnS3ylT+zNxuEqIbhACdL660JsNT5kj3F48NwosRp+N+qSOLmIkbuCrbatmzct/+ab+XPnbtzw05XiIg4q/EZ5yZW5s2YpKWE4pgAhvmxiMKKNyvB3sPSJLgqMGoLbnzHGdtdGvYb/+uAeYdV33/urwPgqkjkcjsrKyq7pEmpMKo5f8CeS9IhR111KKkNlsFJndscwFl+wKHLIdH/HoLMdz3hjQBl3TAaFo9jdIGtdiL22HdExfPxcsRp20Fo7L1wKg2CjTr939y4+MDy0ayorDu3fl5aULM6x5SYZaLQoPyBDWzKRAZCSBfnZ+TmasETuKpgM6kkEJuCyzGoYo5DwwKAy6HLxJX8VGD8A8+DBgxlTp3KPxDXCUFTgFOOPorh9zkzPc1P5hKRU9i793UllMcPntIW24kusJO7mCp3aTx3szFU2wMh2hp+lPeFkXPdestCrtWqB0qJRKNevWeMBIZJfVZaXbdn4y8DsnCCrlV9DG4NgjVKT2LVPv9HTBs5ZOXjed9lTF6UOzDMFheMwys0HtoHBqNYjA4awi9JyAPlbi+UXl0GL/RH1uX4QN0qshkjeS4S7hFGv//DBjyBlTrfxSYdxOBzv3r7dtWMndz2uYYCRGf4EL5RaDbtprcBrxp4NQ1CtPdIdzUXsiHm23sOFHd2Z8ODDveXo4npgzPSSM/Rfz0Lst9rt7L9ooWeqFZzHkBsarVK5Yd06SVTUVlfdqK2tr3v27t3bF8/r79y6KT7sWlXlsaNH2bMRCJbaq/+M7X/N2nta8Jm55+SIFb+Ep3QVcB3iOKmL6+5DnzDe3tRsHG+tRETKoGMBqgxzxKQjW3DI9Qwqg/KGDfMrhMxvwDQ3NxcXF1tNQKLgf0gZ1JsgfDcul1kNf5v0A9wU35Kr9O4IxePy54f0G+PrAHRWIAHjstIZjRuEoOU2c3vK7ADqQ5N+oJvOxCDYYjD+deQPMRhuXa/98OE9Nwmam5vfvH59785t/pE1lRW/HTjAjjWJ4dmjpgqgwt+cWXhywMxlCiXnuASTBMcpH6NjdDFduUnFBly2P4OfXW3c5Szu2L69DQqMHyKZw+G4eePmkEGDuQfjGlEYus8f43KRhf5Oq5JkOSEIuSWpl6RUFj9qYcTgKf96wKT0U1qdBRFYgrI2h5NdsRr2GXSSER/c0BAImpGSUl5yhY+EG9dq3rx+zaKlsbHx7p07l4qLX7161dzc/PbNGw42NZUVhTt3sKciMWLghDl8hIjbM/ecGrVqq87gwgBBUCo6xVuATFoOZ3BnGdCn+SOziMUw/p40KYMygaIPHz7k3hd+NXwVyRwOx/Pnz39YvYYbDK5hQpD5frISHjDqwqQkSwxC1KYQN1kxi6KHzfx3RfVLwDstRxvThdWVCeD5JdoWsFzEeFoEzDsEikfEJGlULq95BUFOnzyZA8z1mupHDx6wU+TD+/drVq1CZTLZ//k/4SEhFRUVDofDudrcvl1dcXVzCysdiZO5M5eKQSLYM3PPqYI121VqXlAIBCttkRL9wBcBgEG59Z4JGRQQ3vEyq+GESS9ZW7tLWrq/ETEcqPwATFNT0z9nzvAVQRYzFARlksQVUQA5H+iC9kmzvkAh7YcGDpl+0g6ZmBFzzT3+3e5LkLOe1AeQADKSrQlB/KVELLEaDjFcInxTKQbBer0xd9qiGTv/zp2xmODyhJmr0Brtwb17WczcuFbz4T0Qxpqbm2/fvo1B0P/85z//85//wP/zP7mDBnHTorm5+Xl9/cYNG9j7JHHyqwWrBPCQ3JxZeHLIwjU4dwMQoo32EuSvT+zlmpGKBEoeW6yR5pBY/f2qtslj/olkDoej9tq1rD59ubWFa/grlV22GDbo1JSUUZLAKVNcN0mp7H+D+zK9P52SpTA6OeqVEDzGZ8KqErYKiFKudo2eJFA8IaPX5F/2szN42vajXfq50BMzgllqRVkp0PWv1bx988bhcDQ1NZVcucKi5X/+8x/o//7ftORkDjBsxagd27azQ0wRVMGS9ZIIEe+cvvOYLZKJ0odgSmv2uryogmK4iYTJoAJ/PHuCF7FgM821zBN7FQJBq6ur22BQZjvHjxXG4XDU19V9u2IF93hcwwjKkvkRuVzGEJQlY8JCC+CEEKwyBgnpQ5kMmbj8BSH9x3sZAP5a3znbadlc0BQT8oiVeUtsvGIx7DNoh8lJAVTAwqKlB09dOGvPKf7EnbzxkD04jBsdEPFJyZctWVxbXXW9pvrZkyfs2D9//jwmMpLFDA7D37rWqv/48ePGDT+zJ6EIasKqX/mXcNeeWXjyq8VrMYbhCUMxnXs+cuc4uuYkEzJoqz85IwKE8Df/MumpllwDflckJyS2wcHPvUr8A0xjY+OZU6fFpZWZPFj/iJfOmPVTuOBWV8sb5SZMJr5gUUTutH89YNL7A5c/4JgFpiQTgvxupCVDMNk4l6UaZSruwmvB/pBAsZjkLpN+2iueuzMLT4z8Zh3Fex9hEBxstV08dxawpN+6yb5fm5qabt64UZCf37Nbt7Vr1ggyQz5+/PjD6tXsteSkfNLGA+ILifdM3fGXOZThrfQtYFkQoWwKXMDlTClSJVQGff/dd22Wx/wWyYBUVlub068fH7Js218PZgkTdC2pkxEEZU7oLimVRQ+f3U4q8c6ANzolS25wlotRQvB4pYJfMLSE0Va/1aoyScJdqRwlpew7YsLM3SfEU5bdM23HX90G5PGHSY4TE8eN40tl3FtTsvHhw4cVy5y1G9Ry5bQtv7u7Frd/xu4TfcfPYS+KExSdnOmtt11SLHEZNCRAAZelVkO4lFWJQNHaa7VtlsfaApgXL16sX7uOPxJsWwvDY/yUPv8w6tKlpEzGVhYqGbwcO2Levz37EsyhtBxtdDqn6aoheJxS8b1WtVitypdTCRjuoVYhCHgxWkYsWsNNU3eNSb8cMBlb3eeoDDLq9KeOH2MMZfclQcLf+f79+/nzvmYCeWC9Rj9j21F3F+L2T9x4UKVhTGQQog7xTt1vSMuh1K117QkZ9GOAAi530tLFX/0lVeJ3CNv2TyRjlcWLFy5aDEYBZtiS6if8yfL/x0zPcBe8rNJH9JcoiQyyLzO/XNhyWo4+qa8+yVkf2Nvr023GsiG9P+PB5JlfXYVSQd9ymziMBIdFTVi3i5ujHhozdh0fMvMbfgwyheH5w/Nqq6tu1tY2fPwong38Pe/fv58xbRqbDmCyBAnUJPF1Z+w6ntJ/OHOrTLplWo7X/qGTerPaDvuANAJfCFACTC7lEq/NdeCWTZvbI4+1ZYVxOBx379wpGNla4pS7G4ufScsM+aJG5WrzYc9GkgpraqZYKvuCYct0arY6PBmDUZyQ6xN6eZ0NXg5Iy9aEp3CLDNeHHho4gkbEJE3ddFg8Wd3tmbr1SHRCOv+ctFZ7/K+j12uq65495cND3H737t34MWMZwCChoVHuLsHun7nnVP6qrQQT3gICyWK6enl8ZplVB7fStWEyKMcfHiK+fi9onzPTfH4P7vHVCsXTFoOH+Hl93OP3CgPiyt6921NYiLfwg3A31IYwmaMmvSQ9OYZguqBocVzZF9T79Yl9CKb8IoFTxoQepq5MpeV2GOJA8LLexS/O9aS4gSNoeEzStK1HPE9cwbczC0+OWvEzX/unMHzksOG11VW3bt7w/K599/YdyxaEw2h0clfBmQWb03ceC0tiwlsgWE4L6ydLgwfYx1rXWCJANcbKrIav3UT3ggz+xkYfgeHusLYABpCVVVSIycrYWkub9H5QyIJEfzeEUQqtMXrodPEiE5P3JfT+tBwd8NCDcjw4RprjukXmTm1/1rQ+sRepcE8I2iKnAUksNMqvtYWb0NO2H03t41IK26nJXKt58fy5u2nhcDjevn07qD/4IY5gyT2zuROKGzMLTw6au5KV/XCM1Cf1lUaI68sF+Ct5Gfz/TeoMCOP4FatBMogElUHnzp5rj7rP9lUbAfPs2bPlS5eKX4QqEIRLlfjGXc2upAcMuiDRYgU4qeTq4B5DxID5Ino/ndpP1UL3imOEKSYjftSC0EA4hfSJfQBlWevUgXFcrjAGy2mnvo5BME2bx63eJp6pvuyZuefU2B+2K6lWQgzGXDa2trrqzu1b7ARqbGysqqxcuXz5xp9/fvniBTsz3rx506t7d1BaFMW69R/m4VpTfv2DtjLZxRCiCo71BS2GtByVvbUuHyaD+hB+8EIKZDD+5ga99AsoPiZGYDf38LLw8FUbAQOoZM6fN+pbTRwceKIw1K9YoJNm/SipMBkcI43R6RKAGfm1vcP1fjolU2l2kmSzgEkYvTguf35Q1iif5ofry1X4k7QcfWIvTUSKOjxJG9uNTu1HJ/YhCOcUV1DKQVPme5ivXr+atuOvrv2HcQOEQbDVaCo6d+7GtZrXr141NjaeP39eQRCsvz89JeXdu3cOh+P169fJCSCpi8DwTPehyjN2H+8+chJzcphUaAw+6Prg8dOy+QnJhAxa2daadny0lFoNGVJ2V1QG/bJhQ/uXlzYq/Sz+7t27N45RCrmRYBs6GB7vc7gHW9xno14t4ZBhXMgwLqQAACAASURBVP5i43JcfmBe7cJZ63FO08mZctrGPiCOEeaW4J3YEfOsvQLMXkun9lNanTXrCBSPS+sxq/CkV1R4OmDPqfFrd6nlrRnmCoKcP3dubU31vTu33759O37MGC5GhsKwP//4w+FwvHr5MiIEvCNInMidslD6/HtOjftpr5xhwQXpTNFdfOxVXVw3framGob9YlHlg4TfLjRoxXTEqAzSqdQvX770sG74/lUbVxg21ujPI0dItIWtvUXgxmRQHIb96U+Z5SNGXTepvGXJ9Jj4goURuVN9HJhAHUYn95W3KOgERloSW3MQoofPMQewMGBajjYqnU0yQ2WQRq0b+/0W6ckqyuXycBjjx2RtviC8AIPgyNCwirLSG9dqnj55MmHcOD5gjv75JwiDqq9n058oghrhJpBs+q5jsT1zwHvEd12fsY/xa1pgMqhXgBKS+7mpbzd7xkzPFo6OAIzD4bh+/frAnP6CFQaVQTSMTPUnpeG8hV7Eo2nkTkhSSntGjlgqix42q4Pj/BnAOJUKAqdsqVncXQEADwpYoo4+sRcXy0xieFL3TA8w8OOrPafGr9ulJFsjxFWUfP0PP1yvqb57+1ZRUZGKoliRrFtGxvv375ubm588fsLSnlCkfNLaneJrgbCxJT+yjhTAq+Sbrg9eYan9uMggIPLJoBWBkMcOGqWTKykMv3njhu+Q8Hxk21cY1pBSuGu32L4MkuZwP0qUMfVEdVaR6o+jOB2exE1NrtHxNGV8kYwg5EFdB3E3Awg6ArTigZAZXmq7UqHOW7haPFPbtmfajr8yMnO5lxGBoF3T0q9VVbL5ZLXXrq1ZtWrb1q2vmdyy5ubmO3fusIYvtVw1fduf4otO2XbEEgYUdxCZ4Ytf3yn05mgjnHRT7M0o4cBU5HOXxjtyeF6glpd26TAsEGuqq7t36cINA9egYcSvvLkTJv0wMfMyBCtpq1iNiR35Nahl6VHrCOy3dHKmooVmjiSVIb2HBx4wIIo5mZPsMQg2W4Nn7jomnqlt2wPMZau2UmhrhLhWqdq/pxBEytwXRso0NTWVlZaywpvZbJ9VKAxam7H7RO8xM8FwQzCp0vmq6zPymFxn4uZJoAhiDhl1YlYDsHwh6KU2scO4W2fatcKwtpQtmzaJiXmcmozPVAaXLPQ6qSK3cqkYGZDfn92h+f2At7IltZikVOH9RgccMIJgGQLF49N6eA1I8Qs807YfTejams5EYfhXgwez4ZhsVhk3Sxo/fTp+7BhwwsBIRHSi8CqMrq9SgzJbwMUc6zPZRXp/OqkPPxyGkEHfBqJCsjvtZUB2TgCXlwCsMCxlmbg0OcrQxU/0x1x22KhrJedtMSEANUbEvQToyQdNDuwa4vlswA/TwpBEydWRgyYFHDC6eBdHHuMAwWOSMsZ8u0k4X/1R9/m/nVl4cuQ36/lvN1qj/efUKX7eMouZhoaGnTtAQj/wWvbK4Z9k1t7T03cei+2ZzS4v/pFcpuXw08UApT0cAMK+fQYtP/+UW75wGLlw/nxArMncq6S9KwywP756tfHnX/jDwN1xNIodNPhaEOeUWc+vicWeBMcIQ1QKNzvZBlAbhs7o0PLiqdmacGd1X0qp5RMOBkaHYXP9W14TXAcCEl2CSu2VM/HHPYJZ27bNqVuPRMS0limW48SMKVPYReYjj6frw4cP361cyYK2z/Dx/GuBJOQFa1g7HkEo6JQsz+8al2/T+vHdL5gMymp3/Fip1SBpYkVlUHZmVvtjYTiosI0AAAbQ+1dWdUlzCfJjhxxwycp9dfyzectCNhmnN2ahADOA169Le6O5XMbSs0bEWHtZBUOupuNGfs3dT2AAk95fF9+TU2D4gGEVCbVC3X3giCkbD/LnbhvaM3Yfz52+hHsfYxAcYreXXbl8vab68UMnOYbD4Xj//v3UyYB+nsSJIdOX8C805dc/DDbgn8FgRB2e5EcfpvfXRbuQpwYkfmyjvpVAg99vOIwUXbwomO7t3wwMYF6/fr11yxbJRSbUH2rMw0ZdJCakUZSraXGJMuAx7Nh6l7rY7kD4hmCF1siPCg0UYOjkTLYeBn/U+W0MgnVqXZ9h43zJ5eJPcUF7yubDZpPTCQuK9ZHUqm+/BYtM7bWPH51kkG/fvmXTBCmCGsdzBE3fdbzrV+PAXUEwpTEa0r3H8LciypXekhXaz/nDM8z3UbLtYgsdzeOS5nfX4IEDA768BEaHYVF7raamb6/e/Dtm23IIziLJYt/yHI6b9F+JbGWUXB3S6yvujc42Op4Qg62EjEGIymDn30ygAGNIy9HHdyeoVn+8uDPZ9zqtN2aOnDTt1z8ESPBxc/rOY33zJnAnx2EkLSm5uuIqs8g42bpev3odHQ7401QK1YwdTsJLEMP//RaSieHHUVwX36MVDJ7XZ+ZboO63lJIG2pEMGtju/MqFbgKTCRQtLy9v/3oiPkNgVhh2Ed+/b5/Y8Y/KICuCrPDNEnLRQi/nlRlhBxWw+4lq+gFCjJxxfg1YOw/WJ/YmCDkGoxpL+GcBDDOr9Im9mfKxMDehJRsYjNA6Q+bISdP9DPgHoNpzauKPhWoeMtVyxY6tvzo1mY8fm5ubHzx4oJYrMAgOCo7gLHVTt/8ZFM1QhkOI0uqNbUwAIRBt2coOw/orf25ffuVps97AsG2Iu2jC2HGBNY5xyAkYYBwOx+1bt4YNcSH4YZ8El0FJOO4LWy5gXjZola70S8BwGRzDn6MJoxd3PBEmAIxcwyTquNxMwFaYlhlGpwKHDOfvF88Gbg+oVKyl+wwf52/k/7Qdf/Fj/kkUy+rTh+WUefzwQWNjY3FREWMiQ7lQgxm7j/csAAmYYK5TKv/rJfUT1K+0IoiPcodAErtooX836rbRmhw3gTAqueL+PaFniZvx7WwEEjCfPn06cfy4TiURX81m/PtC0CaocAJGCIKVekvcyHkumGHq+BnSB7Rz3fD95/qkPqTaAAATEsu/k4ADhr0lOiVLFRSD463BLBxOBA0MQrQqbbcBeZN8tqSBxLLlPxO817NOpf794EF2kXn96tXWX38FwMDwzPzJs/aeZmlgKSZHAIMRjV/M/OBFwHIYALCxH1wGjZT7WiD1vyVdt9GamSpFX5IIRhA5BKJpcKZqCHdCfmP50mWBNSXzMRZIwDgcjsePHs2dNZt/91w7FEU3+5BbdsKkzxOpMSAKc+AE/jRNGL24gw1l+qS+lM7cYYBhYJNDp2SqgmK4UH+uM8UNDIKVckVqr5yx323mhCgPWs3UbUfCWfmKmcQkig0bMoRdZG7fvDFtCihtQhHkyMU/zNp7euq2P4NYYzQEy/UW398yziPTcrj0HvbOSch7wddjJv03GmUvgtDCMAsPzrgnfnz+nqjw8AP797eHfIyPEEE7wIBpamq6cvlyVJizmCP/MUgZ1J3Az3ljybhgoZeIAjFJuUqcTNbBmWRsOBkjkkXzofuZVhj+pKRTstQh8SQTRc/vUnEbg2AKJ6IT0obNXTlz13EPgJmx+/jgKQv4Z6A1IN2/trqq7Mrl1CTgq1EpVNN//X36ruPd8iayR+IooU/0mwOEUfdbjZ+YDIrA0CtusgzPmukVWlUGDqhzMPfLCP/OxW0cRoYOzq2vqxNM9/ZvBhgwTj/mLxvFEZk+RjGz5d4FLLIETpkTevCnacLoxcBQ1mckf2J91jYIJzMEYTCqs0Xy76QDAMM+F9BtwpNJBQhI8faBcQS1WOyZ+ZOmbjzkDjaTNx826AzcqQCnTF7etarKf06dVJIUDiOh4bEzC0/mLdtAMrSDGIyo7NF+d7JrciWr7ovjDEushl0Gba6c1MFtxwn3LKzzKiUh8dGjR+0HCf8MgQcMKIxx8+ZAJh2c/wBsOwxFvXKBHjLqQlxZ2BhBKI4/TdmEx46sGAMAYwwBlChfCDCtsIlIIeUSiqK4tzEIVlGKpG59gWQlykKbvvPvnkMK+L+iNZpjR//cuOEnMK1RvFv/4ZM2Hzay6ccymJRrDGnZ/gKGTumHEy6amAKC/jS1xn8UWQzLtap4DLB7+ih08e/ZQxuD4G7pGVxtD/68b3P7swDm06dPp06clExgJmVQNwL/x6NgdtSk6022BtWCHoFglcEuIFyOH7UgbMBEf8evzcc7AYOgOnsUH7odtsLw7xxU/wtN8MWSxvYejqBmk633V2MnruVxmjFJMnIeoyyJYYP69x+dDzi0KIIaOnt5XE9nvhMGY20o9WpIy1GHJPDnNCaDuraki50209NVCjOCtAEnOIyYDUaLwSjpLueuiEHw9KnTAmhi/iyAcTgcdc/qVi5bzmeR455BC8NjlXIPRBmnzfpxItpl4O8fMk0wUzuSatkpkrH8Tww5OnszXwQwLHhY3YZvruU6WbLBaDhkeGR8zriZU37eN2vv6Wnbj8ZnuLibSRQzaEGNNLVS3XfUVGdkMUiotPIR62ObTs4SLC9sutgxExhiVvqSvFUPO/Vqzcrly+/eufv+/fsP798/evhwx/btackp7n5CYXhxUVGg7GafCzDNzc011dW9u/eQfAw7gnqown7RQi/TqAQ/pBSasMyRfMAkjF7MpF52kGWZp/R/Xj+Mj3ORO4xO6Qd0G5XeXSiaoCdBGWQYURBUZExSVsHUgeNmid9roNwfbVK20AAA8iT/dX1DWo7C5Czswd0DIYMGy0kNo9BzO31sKAhy/Jixd+/cEawYzc3NHz9+3LVjh1HXSnTGP2e/vpmCn3QukYy9m4aGhmN//61XS8TG4TIoAcN+N7YKsnzn1BWGp1yg95Ok0p6RLQBMTN7cDiutDMzKGuMXsZJx2PDUSMvWxnaT03ZMxLLAnzoubaaAON8bw/+2VUyCEaU9ytOlW1yu/GPo5CylOUyS2rP1zN6tF07zhk6lnj516rWaGg/zvrm5ufZabVy0SzwB+0Q4jJRcuRKQReZzrTAsZjwIZnII7kcRF93EmB0w6syuGcs4ThpjMwSACaRlGQTYd6V0Vp0bmlOG+VL7xZV+/qSUaKfl6JP7AtcN5ZNVgI8QN22Y8ev7oOsD4uk+2uguqqBYSmvGeKmdbs7s1dYH0te6pWds3riprq6uqanJ+4xvdjx6+Cgm0sm5w7/u2NGjPYDN9wXn8wLG4XDcuHFDsjwGG6w6SSmXdP//YdSluBJMgVe7q7bNWpZtAbIss2o0MEcimMIUIk7z0Cf0wjEC+LktoXzcfkEdRgIw3Ms+NVsbnUHpLBwBDX/2+N4GsXMRqXRKP21UmtIWKddbSRVNKDQEpcRJBU7IcZzCcBLAAwKh3IxY6CUQzuvVMQhOio9fuXxFbW1tY2Ojd5y4zvea6mqWvoN/IRUlf/z4seuBbdn67IBpbGw8d/ZskNWl7gL3JDYE+V4qLvOYST9IUE0bglW0TWAoi8ufHxygWuQ0SKlPdYoQEEIqNLoYHssWW6CCmRBKvTlh9CIOMx0HmLQcOrUfKB+Q0EsX100bnaGJTNWEJalD4lVBMUprhMIcylBm2uV6K6U1UWoDqdITriZdrud9akAwIVcD7xOCBwQJni+Kw0hCbOzypUurKis/NTT4tKRIzfnm5uaVyyUMTmvX/ND+ReazA4Z1ZW7etIlPic11HCaDojG0UFS1/IyZnqRyMd6jMkihpgVsy4El89cn9iaVwEDEfjCMUNqi2ChDENlli2L3y5W62OGzAwgYOjWbTs7UJ/TUxnQB/Jch8SpblMIcKqdtlMZIKnUEpcIJCkNxEB7P5OQ43+XsG731vQ4zgG/vC57rgZZGwE/oIoyBJDabff7ceSUlJR8/fmwzTvjYefH8OWvra3kEcMX4mNiPH7wU+eCfRLLdEYBxOBwPHzycMdUZ68p/BpDTB0HpOP63K13GBaastuBIuVLLZ58IfMwywzjuYgaFEEKuUYcl6uJ7clgiKWVYVr4fgGFXhsQ+utiuAA/BcUpLOAsGQq7BcTmQZ8QwkH3eaSro2y+ySaJYv76Zv//229s3bwKCE/4Unz1zpsD6h8PIxQsX/BXw+OcMZAKZ4LyCzebm5uqqqp5du0kOjAKCc0jiAi/57orV8IteLUhXJilVcPfB3EwFjYJFUUNneBLlOZnex0ZatjYyTSj3QzCT+eScwYBbObYLdxutIllaNp3UF6AiPFkVFKMwhVI6M6HQACkfwVzWhP8HwCA50NxOAkGHDBp8+dLlNqgogqnlbrO8rFxQfh2VQVMnTW6nVNZBK4zD4fj06dPZf/6xW6QromhgeKSCumwxsPZlkBhDa7W8+HMQrEHIrUm9uZnKNmKGz25/2Qk+5PRJfSiNsL4aN9JMA6aU2rDM/JBew2ypWYaoNJU5lKBUTkGfE5P+n0eFa6e1CLoQHB4ccvTIn22AysuXLysrKo79/ffewsIrly9/4LF2iGHT1NSUFM9UP2+RsVEZZKYNLFOh+Hgf93QcYJxMmYWFCpKU7EoaRqarFJzRTBxRBhhkIoUMMgF3xYC8F5VEVQLBPWMQAlb8Vv3BRS4XHPz/b7I9gMNITlbWleIiz6VpuLn76dOn0pKSdT/8MDQ3NywoWI4TwTb7yuUr7t2754tktWLZMoFUhsqgo0f+9OW33D0IGh0KGBAyU1e3Yvlyd/E/ZgRZrFGyi8wRoy5NYFmGUa3dJVIYWJYDWiaWSduK5VVr+cIwwGFESVJ6tcZiNIUFBcdGRScnJHZJS+/VvUdWn779+mayn5zMrMzefXp179E1PT05PiE6IjLIajPqaZVc4a6rA4hhDIL1Gm1yfELvHj2HDBo8pqBg3JgxX+UOiYlw8YdgEJwcH19ZXlZbXfXs6RPBRORvNjc337hxY/HChREhoSSK4TCCwbBRp1+zatWL589913bKy8rEj18wMr895BgdDRiHw8HUyRgjOWCYDApC0NVadZnV8LdJn00RLoc5mWNdKJdiR3xt653Hl6n8bqdl6+K6q4Jj5LQVGGFdE6RdboC3uLd/P4GgGqUq2GrLSE0bPGDgpPETFi9ctGH9j3t2Fx776+/ioqLrtbWPHz+ur69//fr1hw8fPjH/Gj99avT8jzmsoaHh7du3z+vrHz18WFVV9c+ZM3v37Fm7es3M6dMHDxgYHRGhUSjFb1/BQ2EQjGMkKVcr1AalzqzUW5V6C5/Igj2eRLEJY8eJb+zJ48dBllZ3AluXhgXMg3t3+Qjh2s3NzTdv3hxbMFpJyQFOmLEgUWziuPEPHzzwV/1oaGgIDRLG5hi0ulcvX3FX9LfxBQDT1NRUUy1NMQP8hjIoBEE36DSShZYUWmPMsFl8NYapq9zWqkZpObr47kAAY41Un0frIFGM1miT4hNyBw6aOX3GurVrDx88VFxcfPv27RcvXjR8bHAigYFBE/OvueWfv8MpeTx7MvbMjY2NDQ0N9+/eKblU/Ncff/y0bt2UCROjwnkJfxCs1JrM8d1D++ZFD50WN+Lr+FELuU/ciHnqFo5pDl0Egvbvly2+9KdPn35YvYY7DJAS4sRvBw7UVlfdvnFDLBc1NDT8uG4drdFyywIGwYlx8WdOnwZrQnOz+BJe90wYN078XmiPVPYFAANqlzc2Xr50KSG2tYguv1tBRh6KrtaqxEXJxRVjAM9yW32XQL/XthJj8++hbW0MgtVyRVJcfN5XXy1ZtHjXzp0Xzp+/exfE1XKo4EPC63h/jgOampoePXhQW111raryWlXl1dKSJQtaUy9xlAjLGgWI1wpanbPcGyp+1AJLgjCgFjgc4+LFAGBqZjymNa0ZbySKLVmwgGUOEMhFL168GDZkKN+upVWqVn33/Zs3b8Rn9r1bDuzfz8GPG9PxY8YKru77Cb8MYNh6TKdOnXIXAYAx5Ew5ApFMBlEKTWifEdz4MWlkbSlIZuwyEERtJvfBMVepjyd0gQrjKC40MfMPgGCNQpmamDQ6f9Sq777/88iR69evs9hghSZW2m7PePs+kL4f2dTU9PD+/drqKvZTXXF1yy+/cJMJR4mI7DH8Hua34wsWhfYdyR3MNjAItpstbKE/wW00NDRMmzyFOx6HkYHZOSxzwHumMCB7/Ivnz3t278HNbDlOTJ448e7du/7KYIKrsyQTclw4xGbawOfFFf/Kw54vBhiWyuz33353F5KNMcwgXF+zDZJSBXUd6DKEoxaGD5zkl95izBho7zsyZsTcuLy5Ib2G2bv0t2fkBHUdGNLrq/CsUZEDJ8R8NSM2b27cyK+Zz7yYYbPCs8fYUrM05lB2fdepNQu+nl9RUfHq1auGhobGxkZu3fDQ153kq6ampgf37nKAqams+OPwYU5u8QwYwD0ybKZYjVHLFQ8etDLNck/a1NRUdPEid3LGqW9jAfPqpbP67IcPHwb17w/0JRiJCA1bOH/+rZs322B05i7KbzQ3NyfFCY3L7amo/CUB43A43rx+s3vnLrW8tcavACGCTUDql9zHBTBtq+CXMcDcY2jkkGlO2YOVQIAQIiGHMJcDIkpU7hSSBMyUJj3965YtnW3p4E8UD+2mpqb7d+9wgGGT+FWUMxAJACZnLL+HBe24kV/L1a1MAOwAKUnq/Lnzkhd99+5dZGgYN44Kgiw6d662pvrZE2Aoa25uvn///uZNmw7s319VVfVfTudAQYW7mckTJnKI5W5j4fz5bZPKvjBgHA7Hy5cvN2/c6M45wz0h2wCllWNcgvyBo72tzn5Tl0Eh2WPiRi0QzAl3m9FDpyvUwEXDJP2t4Ibk39Voamq6d6cVMLXVVVeKiywGp68Wx7wAJj5/vi6otWI4Oy5ynNi9c5dkPzQ0NPCZt0gU27lta211FWcoa25udrc+NzU1vXv37tWrVy9fvnz9+vX79+/bIKRt2bSRE/a46ZSSmPSp4ZPkDXve+eUB43A4Xjx//uO6dWJZk3s8roGjuD5EwIaxKHrYrDaXvjBmDLD2HBb11Ux3IOHvj/lqptoYBNJ35YppU6Z67tlO+y0DmNvcClNbXVVyqTg+2okBryJZ/KgF5vju3IiwDQrDl32zVPKRm5qajv39N3c8gaBLFi5kDGXXJY93OBwPHjz4af36oYNzYyIiDTqdkqT+C0i1XGGmDVHhEX179Z4ycdLPP20ounjx7du37k7C7S++eJFvS2DvhEDQ+/fuccf43ugUgAE1e+vq1qxeLRnRzPU1S8WtMbukowCpOm9OO2vEGrsMtPYaFpRZENZ/QuSQaTF5c+JHuXh7WNjEDJulCwIxywqCHDo41/de7lRHNjU13b19iw+Y0suXe3VzYgAAhldfjf++YNvxoxbauwzgDwqIWkLQgpH57h6zvq6Ok7pxGMnPy5M0lAFT0MeGZd8s1SpVBIJyfhj+tTAmSxSHEeDFUiiT4uJXLFv2QFRykLuT5ubm6zXVYSJvDCqD9hQWtmG96iyAcTgcz+vrf1i9xitmlDpLfIHLbAbRMQGrFTMALFYZA4xdBpp7DLX3GRmSPS5i8JToYbPi8ufHDp9NRySz86N7l65tE4K5sfxSDQCYWzf5gCkvuZI7YCA7L3GUCM8qEOPE+crImxOUma+LEwbR/jcHOCM11d0Tffz4sXuXruz5Weojp6Hs/Tv+T5qamg7s398to0tibFxcdEx8dExKYlL3Ll2zM7P+W9h12pQpy775ZtMvv/x2+HBxUdG9u3ffvn378eNHzzpPY2NjbXXVkIEDxWrMxPET2jCCnQgwLGbWrvlBQUgHm7E9rtAY40bM5Y8oAEy3XL8MZf4c3AKhjAHG9P5cVkx0RMQ7H+QB/oToJO2mpqY7roC5WloydtSoFsDg4Vmj+N3LplFEDZ1u7zvS0GWgIb2/PtGlTiXLmmczmfmWYv7Dfvr0iVNj2OyXmsqK6zXVr1695B8GHHRNTQ2if04XFhPiwGk7Plpc3r97V1tdtXzJEjFg4qJjGhoaBDfgdbNzAQZg5vnzXzb8zBlt2FHk/xXXV4oZMc/cY6g/GOjftoNBpcsgJ8dCaFDw7Vu3vfZvJzwAAOamywpTUVY6Y4rTW4KjeEjvYXH5C+Ly58fkzYkYPCUoq8DUfQhfS6RT+4n9V2q54vatW5LP29jYWLhrNzeISpIqu3K5trqq7ulTyeMDuPPlixe11VW/Hzoo1vsVBPniudO07fsVOx1g2AzNbb9ulawCAMIrlLqI/i52z46rRsardGm3WC+clzak+t77X+RIBjA3+CJZRVnpwnnz2AkNWD6i0owZA0DSBPsRpRLRqS6lKtkfKgjy5PETkk/U3NxcXlbGveMpDD929M/a6qpHDz5XUQruNp48elRbXVV1tVyc5Y/KoGs1NT6uVNwJOyNgQCLAm7cH9u0300J7P2BkFDn7Y0fMs/Ua3rZFw79fgcx+Z5VGi8F4cP9+rh//RQ0xYCrLy75dtowDjDo8xXO30KnZ4pQhOU78smGDu36oq6vjpiyJYls3b6qtrrpz66a74wO1/84tp3mjS1oah1hurSu6ePF/CWDYOIDjx45FhIL6o/wPcPa75l3Gjmx3wLLoJepuxujimEqXMojW6tavXReoce3I84gBU3W1/Me1P7QCJsxbqdfUbIXBzh8UkGqOYjOmTXP3IB8+fIiJdJIiEAi6ctmy2uqqm7XX2mCncncJ8f7Gxk/Xa6rZtXTyhAliwJw5ffp/D2AcDsfr1683b9wkHBhSYUvvx9dKAWD6jHA3xQO7X5/QkxXfNUrVvDlzxIPU+feIAVNdcXXrJmc/YzCqDk3w0mlp2UoLL8CZeaPhMNKvb6a7x2/4+HFAdg47lASCTmdqnV+vqf74UZqV4vXr1zXV1adOnDx86NCBAwd+P3z49KlTFRUVTx4/9r3wy+tXrzjJc93q1WLAnD1z5n8VYN6/f3/owEEBYEB0jGuiMgOYDqp7AQr3UYDGVkGQecOGu5sfnXm/JGAKd+xg+xmDUVVwnDfA5KiCYgXjgkFwaHCwu/n3X9okLgoTh5FhubmsZfnNmzf8vmpoaNi/b192ZpZBXHJL9wAAHohJREFUp5cDphyW9Qz8pTCcdV/aLJZe3XvMmDZt186dtbW1HvDz+NFDDjD79xSK9f420GF2Uh2G7cRPnz6dPHFCMDAETvI5KJx0fn07CjAtCcwEivbo1q0Nhnz+/PgibTFgaiorDu/f3wIYRBUU4xUw6jCmOqyrtKxXa566MXx9+vTpu5UrnZeA4B5du7KAefn8OdcJjY2N33/7XWJsnNVo0ipVSpKiMFzspAe+S8ZxSaKYgiCjwiNmTJ127uxZAXKam5tvXa/lAHPs6J/iU12vrXWHcO6uBI1ODRhBrCvb3ThKGCJcMvuZEuQdBBg6ua9cD7IIMQiOiYx6/artuXuCkeiwTSnAVB79449WwNi8VUhmaQ1d0YLKICVJXSoulnyQxsbGHdu2cYCJDo+oraoEucpPXNgoGxsbPzL/3rx58+zZs/v379+8caOqqqq0pKTo4sVzZ8+eOX361MmTJ44f//uvv/488ufff/114vjxM6dPnz937ikTzcld/e2b1xxaaqurTh0/JgDMfwtIPefBlfuh50anBozD4SgtKRHEZQLO2GCXsqxAJOuoFYZOyVJanLG3ofagG9fdBkR57vcv+K0YMNeqKk8dP+aUWGBEaQn3ssKk5+jihOFkbELl7l3SIZhNTU1/HT3KAgZUojea2Fzlh/c9BXS1JJ46/2e9lu7+CtaKxw9Bkhz3Ea8wNrPlw/sP/g5EZwfM1atXzQYX4zJwFFgj+PmAHQoYnu/SZracPnXK3x7/4sdLAuafkyedQUkQojSFegNMf31CbzH5AQjBXPKN5AM2NzVdKi7mAKOi5CWXimurq+7elvZ1Sp7E952NjZ9uXKvh0FJbXSXWYXp26974qdH3c7JHdnbAVFdVh4e4WJYBHbg5hB8cySj97ePB8NmsbGAKTbIDb9LTO7Zv97fHv/jxkoA5d+a0M7oCQhSGIO+ASe4rTiMjEHTUiJGSD8jUorjGAYbC8JN//81aluuePX1eX/fy+fPXr16+ef3q7Zs379+9+/jxw6eWzDzB0iF5fsHO53V1fLTUVletFVnJJk+c1AYVtLMDpvbataR4l5pvoHwfbXcBDHBcdhRgAJ2sM45Qp1YvXyod0y4Yv061CQDjGktWW1114exZZyUfUFjce7ExOjULx4QhfziMdElNk3zYpqamWzdvcnYqEsX2Fe5m5/T1mmp3nxvXam7WXrt5vfbWjet3bt28d+f2g7t3H96///jhw6ePH9c9fVJf9+zF8/qXL1+8evnyzevX796+ff/u3Yf372/duC4AzMSxYwVm5e3btrXBC9TZAXPz5s0eIoJZhc7Ep/HvuNAYZiHSx/fAYAxU5abk48aMkZwfnXmnJGCKL1ww6Rn6QgimNEavKwyIjiEk8mRNelowCz9++PDs6ZPbN28UnT/HhdWSKPbz+vWCOe3fpnuYcc5K/gnFLJg11X7HxXQct3KbJ9DtW7f69e3LLeVsAwQs57UGLDNcfh0RfMlOI31ib5awnESxvr16t0FgaHNvBOSHTHi/Sz4Mm0NmM5tB90Iwqdb7AhhSIVFbTiVXPHr4EOQeNzW9evni/t077OpRW1116eIFLiuGQNBlS5bwJ/RnbZ87c5p0LcwWZLF6Zpp119WdfYW5e+dO7sBBQsCo6ZivZnDO/s8c3i8MbQZcskxVDAyCE2Jj28nV625gPt9+cQIZC5jwkBAnYBRaHwCTTYky+1nL8vmz5549eXLreq3gTX+luIgLqCUQdNrkyZ8VJPyTfz1njkAemzh+fBsUmH/BCnP37t2vcocIACNX66Nyp/AAM8fI5Gl4HeaAHMC4YpyU6qFB/z7LsjhFuba6qvTypYQYNnMBJiilIS3Hc1/RqdlyvQSvvBwnflq7VgAVdu6WXr7E1WzBYWTEsGH8Of352ldLS0JsNsEU+vPIkbaJBp19hbl3717esOGCp5Wr9FGDJrYApl05/Z6nheS3wBVjdhrubCbziePHP99q8DnOLGCN4WZzejJIJkVlEE7IDaneilqmZSsYegPB0JAo9vWcOZKzXwCYzF69JA8L+M7FCxZwxgb2bi0GoyAkx/d+7uyAuX//fv6IEYJRYVJixrGAAawxQ6ZJzuzPtJOfRmbU6bds2uR7d3eGIxnAtPKSsRO07Mrl3t1b0voxQlziU9iZIP4yQjAuLcn9IyUnPR8woIplXHxNZQVHwFldcbWyvKy85ErR+XPHjv65r7Bwy8aNP6xatWThwtnTp08cN250fn7+8OH5eXnjCgpmTJ26/Jtvtm3ZfPb06eoKcBJ3n5PH/uZTb7I3PG/OnLbJY/8CkezBgwcF+c7sWW54KKU2PHu0EzD+E/kJx953Jwx7JKiGmcLejFapWjDv684AA9/vgSHyuyeYYeUlVwbmOKOJMQSjkzO99FKaRPwlAxikX58+gpOzm3zAgLwmDA8LDo4Oj4gKC48MDQux2c20QatUKQgShF06i81i/02eIVGMQFDBh0QxCsNBLFlY+NSJE1k3qOC6ZVcupyUnC7QXCsNrr11rmzz2LwDMw4cPx44ezUGFbVAKTVims2ge4FbOHutldP2FhJfjc3SxThYIBUEOGzLU98naGY4UUMWyk+xqacnIFtEXQzB9Ym8vXZqWIxl/icNIckICf+Jeq6o8feL4/LlzuqSmCUQjlgKG/1cw0B42TXq6a3r6xLFjf/7xx+IL5/lX5J4oOzNTcEVUBo0aObLxU1sYydix6+wi2aOHDyeOGyfoOEquDuk9jF1hQORlRyXDcHNIn9CL9XPjMJKWnCKIk+0MqPBwDwwZeSu3csv0Kp3U0s8YguriunEPK91Iy9FEpQnGhY1JDQsKqqmsqKmsOHPyxKqVK3t1766i5GyZF/HxPu4hUSwyNGxQ//5fz57966aN/5w8WV5ypbK8rOpqOSvXCQBz/p9/umd0wRFEcH4lJa+prm7z8vIvWGH+W1t9xrTpgsfGIESu1FmSescMmxk7Yq65+xDpQfWyUAjtxb6fBLhimKwYVAZFhIR64MXyMHG/1FdNTU2CwMTa6qqKstK5M2ey/YzBqCYq3VtvSMdfsqmX0eERdrNZLVdQGC5+xwtG08OmTqXOHTBg/Zo1/5w6WV5SwiHkGhPpLAAJu1lRVvr9ypU2k1nyuosXLmzP8vIvAMyzZ88Wzp8v1acwBqOUQktHpdHJfb2NbtuxIXlmfVJfzgthN1vc0Qp/KUh4vm5TU9OTx4Aagv+pLC9bsXQpBxh1eLLkg/N36hP7iOMvnWdg6PakRs0l29zDARgE5w4cePb06crysuqKqx4QwpoNSi4V7929a/qUKREhoRSGC/QW9kIpiYkvXvhNEyPozM4ukr148WLNqtWeehZGCEKuskXqveqpgVtw6ORMhQFwxqIyyKind2z7N4VgNjc1PXvymI8Wllfl5x/Xs0+EwYg6xFvSZXp/OiUTFEwXZcW426Oi5AmxsUNzc+fOnr36+1VbNm3aW7jn4IEDhw8dPnjgwO6du8KCGc9pywlJFIuLih4xbNii+fN/Wrt2x9Zf9+7efWDvnj27dm7dvGndmjWLF8yfOG5c/6x+cVHROpVajhMkiklChS0HW11V1R5hjEVOZwfMu3fv9u7Z664XuLHBIIQgleqgWDq1H/8t+JnawBVjc1I6aJWqRQsXCt5DnXmzubm57skTAWBqKiv27XZSh2EworJHee06JpzMyfnPDYSgQSBo1/SMFcuW/XPmTN2zZ+/fv//48WNDAyi6Bkro8MoPNjQ07NsrHGgMggkEZQ1icpzgfygMB9YzVJpRVnAbRp3+4oULgiC3to1RZwdME5NH4YHXj981IHOVUqlD42mvfrf2rTZ0arY61JmjKyfIr3KHtK33v8ivAGCePRUA5lpV5cljLZThEKI0h/kCGDZEiD8EbBuDYLPBuGj+gprqarY6py+T9cOHD+PGSBc/FV/C9z1pySmVFZVtdrwIxqizA8bhcDDxl5m+dxAGo6RCqw5P/oywYQnKmJKlOIwkxSf8iwxlzc3N9aJ0kdrqqovnzjqDIz2mxNApWbrYburgWDltdyeSmWj67t27DQ0N/opA9fX1vbsLSwL6PvT8I0kUy0hN+3XLltevX/sCVwEw3G3+CwDz7t27/fv2CRKV+V0j1YYxBCVVek1kqtewKK+vUskD9PE9uWp+YUHBt2//a2hjm5ubXzyvF6wwbJUYZ9FjCJZrzexTA3jE99CEJyttkXK9laDUTBlDBFRmd1NuGoNgm8ksWcHP3Szk9rNg3rF9+5xZs7L7ZobYg5SU3KtAzk0AtVyREBM7fuzY7Vu3Xb9+/d27d4FaWLg7/BcAhiVc/mn9eo46kesgLw0IxhCM0hi10RkBhw0T5O9MCLGazMf/PRFlzc3NLOOwADOlly8lxTnL9OI4RWlMBKXEUQKDUQxUmXaLEMEo4P9fe1fi1sS19v8Uk8xkZrJBIOy7gnpVtPjpZ0FsvfVzr71aRXG5dYW61K1AVaxLW9T7iTuKt1bR3rpQlT0hiQQFDQqySzbIMt/X5OAwmRCFZAIZmOfhad8Zz3nPOe97fjlnzvL+uLxZM5I9/lHHcRyEwjCZTHq9vqWlRVmrvFtSUnj+/PFj+Qe+25+1c+e2b775ZsuWHdu2787+Ni8n90xBwa1ff5XL5a2trUb7bc2PhPQner8HAjMAg+O40WB48Mf99NS0QdfXKT5zegSwCQy1wyblI4dwBx1MBn1pP+Qvdty4msCRBUpPnzzpgfVHJQuO4+QIdwRs5FWV6Z9+OmA6NwPIQIL3y1mUNxjMP/rDD3Q1DfCTAZJdi8UCQvuDyDJg/YBYQgAUvHSV604PMwADam+1Wru7u++W3F2+ZOkQlwEGfEnAJjGFltEmOHmBILj/0LhEINyyaZM7E/vbexzHDXo9gRNCUFRXLV+yZMBibvDw4QQID1qxbNlQiMH8zSxDrA+TAAOaZLVaDQbD8/r6Iz/88EnyTNfjDx/yKICNJChgordLAvaV5Yj+47ooBKfO/W+PJyFDdBV9yXCT0UDghBBqa6o3uBzb+5AxnRHF5/KmT/3bv86eHcNoYcBOv7teguO42Wzu7u4uffgoM2M9cTNpSA62h06EEEwijp4cNGP+oDOuj74MnvW5JG4gOsfE2LiOjg53tfW3970mE4ETQlDKa3Zu2zYkAzpDBeFB69Z8/fTJU71eT/tHtr+ZjnkjDMWCVqvVaDTWazT7du+JDBvkDuCHegCHB8OoQBYZmDR72GvQIPrj+4l+VFg4g+hizH19rpciVQr5gb37XM3F5/JCg4I/S0vb9s9/7s7Kigx1XP0nYUaMCZS1SuYMsJQeNLxHxgMGNNdms/X29r5sbPz+8OEYl/uorp3A6Y19ngYhArEoIkE6Ze7Qv3CCps4jVpZDpEHnzpwZnu1HL7XFbKbEuQOnY47l5QHLIDxoamLSiqVL92ZnX7t8qaq8TCmvUSnk1RXln6WlOVnPwfzBuMAGHtt+jAAGtB/H8b6+viatNuf774cNG3vAFB7MgxFMLAyLC0xM+eitQyJ8DCAi3+6eHcVj9/goo9ViaajXEJMxIDxT1v586hQAgxBBcw8fJk4HEylVCvkG5814e9D+6GgPyCJ91DRfqx1TgAHGImCTl5MbG0nl/aH8Og7+6PjIgSEEFQeJwuMDEpKl01Jd52yO8DFBQAMKwfM/TWXKtMRmtbqGunumrD1/7ixojgjFjh85QuCEENS1ipyD/VxlICXM4U6KT2DQQQcvETUGAUOGjfbVq7yc3LjBaNoHhwppam5PwOFCDnIFmAvxYRQVBQqCI0ThCZKYKQEJyQETk1FSqKGJcfHuyB68dBLt2W0266sGJ5rL+mfqOpWy6MplAjAn8vMJnBACSEPeeoc53PiYWHaEod1Ho6Owf7Rpajp+LH/yxElkTw8JMIPhx7HnzYO59j/y8ZDIsPBHjx6NTjuHWeqgkZbqVMpbN4sJwPx47BiBE0LQqFVlj/8UoRjZeiHSIHeE48OsFwOSj9kRhmx7sAbd0tx8puDMrBnJwz4rQIGNm0cG7fc7rvVT42Bo1KrfS/oZKUQolj/YlKz+mVpRXTU1KYkMGIlQ1NLSQjb4GJbHBWCA/3Act1gsnR2dt369tfiLLwR8hOx172VHqOUMRvQVxy3lATo7MIBo1KqHf/TzvYlQ7GheHjGwkAWlvGbV8uVkc4kxQdnTp4xouPeVHEeAIYxltVj1en2tQvFtVrYrSzO5KwxLRnjQ7Fmz3LGcEqX7g2C/dPmWeumy/pm67PGfoMlCBM05eJCME0K2f/cf6r/MTCS+UFjoD+0agTqMR8AAs4Ktm/a29ju/3c74em10BDWa6LDQAhLHRkU/ZwInmeMUfTuBAUKoLHsKeO2ECLp/7x7iPVmwE2JeLyJ/DaIQnL2TkYTSHgBs/AIGGMt+mNxiMZlMbW9bS+6U7Nq+Y9aMGcO8ezMQ2CEsWFZ8/YYHbhjhLO5O+FeVl4kw+61jAR9xF/G1/pm6/MkTcjhJhAelp6aNcBNGq7jxDhjC7uALp7e3V6/Xv3r5suT27byc3LWrV89JmR0dESkRCAV8pD/4IgQJ+IhYIKAsFkETOPb7/XsYcL8fx3G9zokzFYwhVeVlAAkYzN+6ZQt5YCHLtTXVcz5JIUZgmMONCA0dJ5v9LGAIyAwIYNgxm80mk8lgMOj1+o6ODq1W++L583pN/fPnz5u02tdNTVcuXyHPTED404XpC4Z7L3eg4BGUTEYjGQPvAVMOGEUxmJ+ZkeGaALxRyms2bdhAAAZwS1VWVI5g9UetKBYwQzU9YPIFt5TAraZ6jSZMFkLuNzCHm5iQ0PrWiUp7qAWMbLq+vj5XPFRXlMc4vuX+ouRe/eWXrgnAG3Wt4kR+PrnhGMw/ferUyLZgdEpjAeO53VtbW5ctpt64iggJZQQBhsVC5RkGtEoTHRS8KAQvWbTIHWDqVMqSW7fItPcoBP9j1SrPTcmcnCxgPPeVXq8/deIk+YcWmsAJkgTk5eZ6rnSkctqPkz2vp0CiprJiaqI93hrCgxakplH+lfxYWfa0nxPTsY0Lc7gTY+PGwwEZFjCe91Cb1VpZUUEQnQLkCPjI0sWLPVc6UjkHJe6rqaxIdnBW2wPwfZJCRghFrq2pTknu5/wADZcIRXV1dSNV/VErhwWMV6Z//fr17FlOQexhDjdp0qTOzk6v9Po+86CkFzWVlbNnzrKTkHF50yZPpoCE/KhSyL9auZI8uv61cnjxwgXfV3yUS2AB45UDurq6vs3KJvcbaAInIjTs/v37Xun1fWabzdbWQg1JLq+qTJ1r5yGDOdzYyKgPhABXKeTf7tpFbjgKwdu/2er7io9yCSxgvHJAX1/f3Tt3KIvLUklAbk6OV3p9n3nQzX55VRVB8h4uC1Ep5ORRhSw/U9aePH6cDBg+lzfvv+b4vuKjXAILGK8cgON4Y0NDbJTTNTUBH1n8xRde6fV9ZhzHe3rekTEATiIvWbQIwCBEGlRdXk5JQDzWqZRXLl4kAwbmcMNlISaTyfd1H80SWMB4a/329vY1X/2D3HUAy1JHe7u3qn2a3xEbkQAAEGprqletWAHaEiSRPH74kJKAeNSoVffu3Ka0OkAoYlDIXM+sywLGM7sN5DIaDOfO9t/sJTpQuCyk5PadgUR+KZnNZgIABGDWvafglQiE/ykpoSQgHjVqVemD+5SbRSIUK31U6pdtpa1SLGC8NaXNZlPW1oowp0uIjDhUZrVaKaEwlPKazZmZAPYSgfDX4hsEQiiCRq16/OghBjsRKgkRtPgGA86eeuNyFjDeWK8/b0tzc9o8J5IGFILT5n3q5zEx7FsxjY1kJCjlNbu298fyE2OCyxcKyf9KljVq1dM/SynHTwV85PLFizQY1I9VsIChwTnv3r07dOAAMR8DQlxUdGNDAw3afabClU7ZEctvL6i/CMXO/PwTGSRkGUzJXEeYa1ev+qy+fqGYBQwNbrBYLA8fPKRM6EOkQX6+kecgu3Ti7lPXKo7m9sfyEyLooHEwVAp50dUrmRkZCc6UlNAEjgjFHvj9BpSX/mYB46UB+7NrtdqkhP7Y5P2/0JggM2M9Pdp9o8X1GtkzZe0vp0+D+ttvKR86BMIvKaqr7v9+76dTJ9d/vTZp4kRwO4iy+wSuA2m1Wt9U1l+0soChxxOdHZ2bN24CXQ38F0Sz1+t09BTgAy2AdYc80SLvrsAcbkxk5PQpUxPjEyJCQgOEIhGGoRBMGUiJJvO5vDkps9lg5D5w1FhUaTKZXEmAI0PDSkv9epnVbDaTo5LXqZS//fvfBCRgDpfP5bmOJARIyIIIxW7eKB6LvnVqEzvCOJnD4wccx+s1mtBgGbkPScWSnMOHPdY5AhkpMWPBpzwKweRWDEVGIThr567xEDCWBQxt3bKtrW3lsmXk7oVCcHrafH+epdhstjdNWvKsrKqsTCqWkFvxUVkqluQfOTq2eZSIXsIChjCFt4JBbyj4pYDSveKiojV+fEsEx21trU4ByqoryhNiYymtGPQR5nADxZL1a9cp5HJGRGPz1sGO/CxgaDGjXYnVaq1VKChUz7JA6ZmCAtrKoFuR/Qjmu27yCCOvqpybMhARxhUqCA8Kl4UsW7zkTEFBY2OjwWDw5yGUboP9HwsYOk36tqVlQdp8cicTIuiXy1fQWQbdukzO9H2K6qoVLtSwCA9KmTlz88ZN586erayo6OjoMOgNfX19jIiPQ6/BWMDQaU+dTnfsyFEyYOxxZOIT3rb4bxwZSjQMpbxm6+bN5CbYAxUEBLzWNhmNRrPZPK7GE9fOwQLG1Saev7FarVWVVZSDmKFBwUXXijxX6rOcIJyf9uVL8pTMvtmfl0sBTIg0qLu722cVYZJiFjA0e6uluTnV+SCmCMU2rPOvqP5gy/JNk9aV6bJOpbx66RIFMLJAqf9HKaDZkW7UsYBxYxhPX+t0uiPvj2OBbgdzuFMSk/zkFxrHcYNB3/y66YWmjrxlSQwyDtKLPyihcAJF4jdv3nhqkjGVjwUMze4cNPZSmEx2+7ffaC5pmOpsNpuup+e19pU7qBCYqa4oj3cmOQwQipRK5TALHJvJWcDQ79e3LS3pqU7c3CgE/23y5P3f7S99VDryG3xms7mzo/1VY8NHoQIwo6iuWpieTp6ViQXC3+/do99SDNTIAoZ+p9kjYp6kRsTkc3lCBA0US2Ijo1YuW3byxxMV5eV6vZ7+4t9rtNlsep2u5c3rhnrNoLMvYkghhNqa6quXLm3dsiUmIoIMGBGK/e+5f71XPK7/zwKGfvfbbDa1Sk3ZwST6H8zhohAswgRSsSQmIvLz9AV7d+8punZNrVLTwhhhs9kMBn3b27cvXzz/6JCiUasqnjy5fKFwT1bWwvT0qPBwcHSfOH8Jqi3gIwf3H6DfUgzUyALGJ05ra2tzjVNOYIYQYA4X4UFCBJUIhEGSgJjIqHlz5mRmrD+Sl3e96HplRUVzc7PBYBjKVWerxaLX9bS2tLx88cIdTlQKefnjx7eKi386cSJ7x45l/7N42uTJoUHBEoFQiKAoBLs7mCzgI4cPHvSJpZimlAWMTzxmNBovXrjgrv8RgKEIAD8YzBehmEQglIolMmlQXHR08vTpf1/w2do1a3bt2JFz+PDpk6cuFBYWX79RcufOH7//515Jya2bN69fu3b14sVLhefPnz1bcPr0j8eO5R46tCc7e8vGjV+tXPl5evrMadPjoqJlgdIAoUiMCQBCKCMJpT7Eo0wapFapfGIppillAeMTj+E43vDiRUwkDbyZ4FIKCsEYzBciqAjFxJhAIhAGCEWBIjH4CxCKwJ9EKJQI7H9izE6QJkRQAR/BYD64+DVcAAPACPjId3v3jfMNfqKXsIAhTEGz0NXVtWNbfwQW4qeacQIKwWtXr6Hl44pm+46SOhYwvjK8xWJ5+uRJVLjTchOzACPGBPv37et51+MrGzFQLwsYHzrNYrG8efPmZnHxpszMSfHxfB6PKYARIMiihQtLHz4yGo0+NBADVbOA8a3TADmzQa9vb2+vrKw8ffLU6lVfTZ6UKESdImX6CZAwmD8pPmH71q1PHj/u6emxWqy+tQ4DtbOAGTmnWa3W3t5eg97Q1dXV0NBwt+Tuj/n5mzduWpCWFhcdLUTQIa5ZeY8uPpeHwXxZoHRKYtKC1LSMr9fu3/fdxcIL8hp5Z2en/U6YxTJydmFUSSxgRsddNpvNYrH09vYaDQadTtfV1dXc3Cyvkd8tKSk8f/7Y0aO7s7LXr123fMnSBWnzP0meOWVSYlxUdFiwLFAk/mvfHYP5fJ49ngufy0MgSMBHRCgmFUvCZSExEZGJ8QnJ06bPmzP37599/uXyFRs3ZGbvysr9PueXn3++XlT04P59hVze1NTU1dn57t07nU5n0BvYuy5D7AcsYIZoKDYZawG7BVjAsP2AtcAwLPD/Qgqu/ovR8vAAAAAASUVORK5CYII=;" parent="1" vertex="1">
          <mxGeometry x="810" y="307" width="82" height="106.42" as="geometry" />
        </mxCell>
        <mxCell id="FvDgJU4ZKAipWWwaP9Bs-2" style="edgeStyle=orthogonalEdgeStyle;rounded=0;orthogonalLoop=1;jettySize=auto;html=1;startArrow=classic;startFill=1;" parent="1" source="FvDgJU4ZKAipWWwaP9Bs-6" edge="1">
          <mxGeometry relative="1" as="geometry">
            <mxPoint x="180" y="360.0999999999999" as="sourcePoint" />
            <mxPoint x="430" y="360" as="targetPoint" />
          </mxGeometry>
        </mxCell>
        <mxCell id="FvDgJU4ZKAipWWwaP9Bs-3" value="使用者&amp;nbsp;" style="verticalLabelPosition=bottom;aspect=fixed;html=1;shape=mxgraph.salesforce.web;" parent="1" vertex="1">
          <mxGeometry x="120" y="326.3" width="60" height="47.400000000000006" as="geometry" />
        </mxCell>
        <mxCell id="FvDgJU4ZKAipWWwaP9Bs-4" value="Web Server" style="image;aspect=fixed;perimeter=ellipsePerimeter;html=1;align=center;shadow=0;dashed=0;spacingTop=3;image=img/lib/active_directory/web_server.svg;" parent="1" vertex="1">
          <mxGeometry x="430" y="290" width="112" height="140" as="geometry" />
        </mxCell>
        <mxCell id="FvDgJU4ZKAipWWwaP9Bs-5" value="" style="edgeStyle=orthogonalEdgeStyle;rounded=0;orthogonalLoop=1;jettySize=auto;html=1;startArrow=classic;startFill=1;" parent="1" target="FvDgJU4ZKAipWWwaP9Bs-6" edge="1">
          <mxGeometry relative="1" as="geometry">
            <mxPoint x="180" y="360.0999999999999" as="sourcePoint" />
            <mxPoint x="430" y="360" as="targetPoint" />
          </mxGeometry>
        </mxCell>
        <mxCell id="FvDgJU4ZKAipWWwaP9Bs-6" value="Nginx " style="shape=image;verticalLabelPosition=bottom;labelBackgroundColor=default;verticalAlign=top;aspect=fixed;imageAspect=0;image=data:image/png,iVBORw0KGgoAAAANSUhEUgAAAOEAAADhCAIAAACx0UUtAAATCElEQVR4Ae2dz2vUzhvH5y/4/heCp9JlYWEXXFjYgycPigd7KuJZkIJ4EOlRCt3dsFk+IEpFq2BFkPXQIrjgoVgotNKCvbSlsHiwtBRLC6Wl7NenU8dNk02TySSZJG/xMMnmx+T9vDozT+bJM6yHf1BAbwWY3tVD7aBAD4wCAt0VAKO6Wwj1A6NgQHcFwKjuFkL9wCgY0F0BMKq7hVA/MAoGdFcAjOpuIdQPjCpj4Pj0ZHO3u7a9sbnbPT49UXbdzF8IjCpAYGZltvhqlNVyrFE4/1/LFV+NzqzMKrh65i8BRgMh0FlfYK0qM0qsVf3ff9f7/4v9nfWFQPfI/MlgVBKBzd3utdd3WaPQz6VjmTUK117f3dztSt4p86eBUd8I7B8djM1NsMkhe9vpyOj//rtOberk0NjcxP7Rge/7Zf4EMOoPgenlNo04zcogHF32M7PCGoXp5ba/W2b+aDDqFYH5rSVqEY2SC4VefuJXmN9a8nrjzB8HRi9H4OfvXzfe3Wf1vPfO3R1W6vrr+Rvv7v/8/evy22f+CDDqhsDx6cl4x/Q19HSns/9XPkgd75h4mepmgx5inAfL8/b7J2YUWbPcD5byMmuWmVF8+/3T4Ipk/Re0ow4ELHZXrzy/xYyiciIHXZAZxSvPby12Vx1qk/ldYNSCwM7h3p0PDxUOPQdBad/PB6l3PjzcOdyz1CnzG2D0HwJPvz6joafUeyU7c3J76P3U5NDTr8/+VSvzJTBKCLR/fKFxYchDT+/U8sq0f3zJPJ8kQNYZXdveGJ4a8TKl6Z0wVUeyRmF4amRteyPjpGaX0f2jg3vtJxSsZAsHUQVZ8OvQILWWu9d+kuVJ1Iwyan57Q3TGOvT0TjANUms589ubbDaomWNURNN5R0STI3kEYAYj/TLEqPdoOk2gdKxGBiP9MsHo8emJ32g6Rz402cknUcfmJjIyiZp+RoNE02kCpWM1shPpl2ZGVUXTOSKiyc4sRPqlk1Hl0XSaEOlYDT6JmuJIv7QxGmo0nSMimuzkg9RURvqlitGZlVl6QaPNlGb0+J5F+pVS9s10Shhd7K5efXE7ymi66PnzfkdmFK++uJ2aSL/EM3oeTaf3lKZ3vFQdySdR0xHpl2xG6/MvY4+mU0VVGNfhkX71+ZeJnkRNKqMUTWdWsjz09M40DVLNSnIj/ZLH6Nr2BiVX8pAgxLsVs3AkaxSKr0aTGOmXJEYTEU2nM+58kJq4SL/EMErRdPV8UqLptCbVrLB6PkGRfglgtLO+oCRBiM7cRF83PomaiEg/rRkV0XQ6h8pHj5eqO1LXn4Scfpoyenx68uhzLaQEIapsnI7r8EnUR59r2kb66cjoeTRdhqc0o6ef3k/pmtNPL0bnt5bOEoQEzU0XvY3TcUdmlK48v6VbTj9dGP35+9fN9w9iSRCSDrxUPQV1/fX8zfcP9MnppwWj4eWmU2W5rF2HD1LHO6YOk6gxM4poOp3p1yTSLzZGzxOERJibTmcadK4bM4rxpkuJgdGdw73Rj481TxCiMzTR1426/lpu9OPjWHL6Rc0oRdMlJ0FI9DTofEeeLiX6SL/oGEU0nc78ea9b9JF+UTCKaDrvBCTlyCgj/cJlVGK5raQYCfXk76ciWBgtREYRTZcFjmmQGnKkXyiMIpouC3T2P2OokX7qGaXEs+qW2+oXAmWdFeCTqPfaT5RPTSlmlJYiRrySdZFwncFSXjfWLF97fVctpioZpRYUgGYYUE48a5bVtqbKGJ3fWmK1nPK/S1wwiQqwWk5hgJ8yRml1Do0XP0iipZNbZ9aqDk+NqOrx1TC6udtFI5pcpMKoOavlNne7SjBVw+jZ8q8Inr8ehrETek1mlFQt1KuGUQpSTsg6Mgk1eeKq/efdvqoQaTWM0ooIujLK00LRKt9G6fx/s5zooTM9Uf+zaKk8MytjcxMa9fUaMkqvlBsF1qqOzU1ML7fbP7501hc66wszK7NPvz678e4+/WoUtf3Tsjec/In+pMMY75gzK7P8caaX2/TKj55Fr7EWGL1k5Me/Grs0Sexid5X+uup5/V/rMqM0PDXi8kKHPvg2ivr0D2B0IKPU2DTLLra09z7Hpye0KrjGWXZZPe9ltfD9owN95vnAqDOjvBWRW/5153CPDKxZj0mJrur56eW2/U9r0B4axmgwQgWjAxg1SnKACnvTCwqdMpuyZlnC89ChxwejDoyyRkFJFjj64kobTJlZEX8/3gs0Lx33I4DRi4yqnXwjR0qDTp81y756+X6IY5+aBqM2Rg3FixLR2DTuUR2r5aSHLrHP/IFRG6ONgtr8RMenJ+SvxBclw1rVqy9u9zeNvsoUQRFrdw9GbYzW88rTZ/78/StGMzOzEiQK88+alKyet08ERLYHjNoYreV8NTMeD17srrLJocjs2n+j4DaONxIteP2FjVIyX8/CYbTX69H8TRwNUnAbg1FBORVin68Pj9Fer0dZzyN388GoIAztqJDCrRD95A0YFfYAo0KKSwoRu/lgVNgDjAopLinsHO5F6eaDUWEPMCqkuLwQpZsPRoU9wKiQwlOBkqNH4uaDUWEPMCqk8FqIxs0Ho8IeYFRI4aMQgZsPRoU9wKiQwl+B1joLczYfjAp7gFEhhb9C2G4+GBX2AKNCCt+FUN18MCrsAUaFFDKF8Nx8MCrsAUaFFJIF+gQqhNl8MCrsAUaFFPKFMNx8MCrsAUaFFIEKyt18MCrsAUaFFIEK5OYrXfsUjAp7gFEhRdDC2vaGwqB9MCrsAUZJClVLtdJ6k4pm88EoGBUKUGH042NVSYdVuflgVFgI7ShJQd+6NMuqviy9+f5B8G/zwSgYFQr8ZdQoKVxYKLibD0aFhdCO/mXUrMglABNS9hf2jw4CuvlgVOgJRv8xSl8sNQrmtzdCnSCFgG4+GBXig1ELo4Tp5JCvFLtCSnuB3HzZddXAqNATjF5klDCt5VRlj6IM0VLv9sEoGBUKODHaqrJWVZWbf+fDQ4l8+2BUWAjtqAOj1JSaleKrUSFTwMLVF7f9Bu2DUaE5GHVmlDBVt37wmZvvb20aMApGhQIDGSVM43PzwaiwENpRN0YJ08khJWn2e72eLzcfjIJRocAljBKm6pYQ9u7mg1FhIbSjHhhtVZlZidjNB6NgVChwOaPUlLaqCt18L4t+gFFhIbSjnhglTNW6+c1yf2ZxexmMglGhgFdGCVN1bj6t++GaaR+MCguhHfXBKGGqzs3vrC+4zOaDUTAqFPDHKGGqzs2ndR8HzOaDUWEhtKP+GT1z86VXoBPS88Lox8eOs/lgVAgFRn0zSk1pqzo8NSJEDFhwdPPBqFAVjMowSpg2y6MfHwsdgxRoNt+sXAg6AaNCUjAqyShhahTr8y+FlEEK5OZbo6HBqNATjMozyv0nVbP55Ob3vY0Co2BUKBCIUcJ0ckjVt/nmtzdieR0wKiyEdjQoo3xsqsrNv9d+wt18MApGhQIqGA3BzQejwkJoRxUwypvSOx8eClmDFGjpeRUf+19wwuwhAaHuCf43JjQEo2oYJUzVuvmTQ2NzE8JOEgUwahEt6WuDq6o/q+XaP75YpJHd6KwvBHz/CkYt2quysXTvE3D9eoX1Z5NDa9sbFnVkNxa7q7Kn0nlg1KKeQhvLYaoPo2edfkmVm29R2ecGGLUIBkb7/7RYq3r1xW2LQHFsgFGL6mC0n1G1br5FaD8bYNSiFhi9wCh3859+fWaRKdoNMGrRG4zaGSVM1bn5Frm9bYBRi05g1JFRwlSdm29R3MMGGLWIBEYHMXrW6cfj5oNRMHrdhcv+n1ireuX5LYtekWyAUYvMaEf7obSXWbN88/0Di2Thb4BRi8Zg1M7lhT3MKI53TItqIW+AUYvAYPQCkY6brJ5XNZtvUX/ABhi1CANGHaG074zSzQejYNSrz3SBVGYUVS1ParGBbQOMWiRBO3oBRJfNyNx8MApGJdtRemNqViJw88EoGJVnlL/YD9vNB6NgNBCjhGk9P7Mya9FR6QYYtciJ8ajLANTlJzY5FDDY3mIG6wYYtegBRl1AdP8pPDcfjKaKUcq8YFbcYQrp1/DcfDCqGaONQpBVaK+9vnshbV1IRDpelpmVG+/uWwQNvLFzuMfqecfbRbMT39df9FeYUZKeZqScC9acddFYsf8uzCg9+lwLTOa/C1CGM8Pf6o/99QleBqM2RltV6TQhtPxcrObkQKh182mx51Y1OGrSVwCjFxmlVzmyaeod0yhL2ybIiWxyaH5r6V9jKFuyZzMNUiu5c8GoE6Ot6rXXd/2adXq5PWjVBDnbBDxLybolEkuRB6y2/XQw6sCoxOTN2vZG7CNRB+vWckE+KKVe/rIFyuw3Vb4HjDozSpg2Ch6dj/mtpXg9XxcsWLN85fktv/3+/tEBvaDQAFAyhFkJmFNNdIkpyZvXb29mlIanRlySLh2fnjz6XNOwBbU8RavKGoXhqZH2jy+XLqd7fHrCc0DH6ydZ6g9G++Wwl1mryur5a6/vvv3+aW17Y+dwb+dwb3O321lfoCmxej6uN/b2qrrvoQcxSqyev/HuvvntTWd9YXO3yx/n5+9fa9sbMyuzNAFRz2vSfIrHQTs6sK8XGlF3ww3cKJAJ63nWKJC9Y5pP6q+YRJmepVmm+vc/jsZPpB2j1HUm0/YSuOAULwows+LRMRDjzkEFNeNRGgzpMVT3Ih+OiUAB1iyb394Mws7XfjWMLnZXxaItETw/bqG/AqxRUBV2qIZRyhoc68yb/jbLWg1Zq+qrsXQ5WBmjb79/0mrCJmtMaPW8zCi+/f7JBTtfPyljtNfr6TPxrZXBslYZtYtSUxfti2j3g2n9YKOETj9rUPY/L3/fp3Y5AJWM9nq9ncM9ejEJH/8/T29w+62bgjK3u/IMF4oZ5Q3teMdkk0NoUFOAncdHoOZzciikr7FDYbTX6/38/evm+wc0uwN/P9VtKtFZz998/yDItzruY8iwGOV3nd9auvL8lg5R7h7bAxzmSwFmlCTis9yJtP8aLqP8fhRH3ChgstSX+TU/mFbdbRSml9t2pJTviYLRXq93Hg6HQWry+30+9Hz0uXZpxKAqWCNilFd3c7dLQbiNguaNBKo3SAHWKFx7fXdzt6uKPy/XiZRRXqHO+gK9n9LgU8xBlsB+uwLcXp31BS9UqT0mBkb5A1CoVHJije02y84eGnrW86qCmCTwjY3RXq+3f3RAMeS1HN5P6Uk8DT1ruXvtJ2rnjfxiGiejvK5r2xs00Y9BqmbuFGsUiq9GXT4L84ua9PHxM8qrTslCzAomUXVoUOmjFLMinZtImsVBJ+rCKK/f06/PqOvHZycxtanUTAT7un8QZ0H268Uoj0qhLAaYRI0WUz70vPPhofKIkCB08nO1Y5RXa7G7SglhjKIOfV/q68CM4pXnt1R92hEcygtX0JRRXsuZldk/SxhikBreHwn/HjrUtPwXgJPY1JpRPomKSL8wGOVTmuMdM7IpTQk6+Sm6M8pr+fP3rxvv7mOQqgRWovMs8Ul40XTSODqemAxGedXnt5YwiRoQUz6l6TfbmSM6ke1MEqNcFET6yWEaZTSdWnyTxygfpFJqMUT6eXs/xYeeY3MT+g89HeFOJKP8SRDp56VBjSWazhE16Z0JZpQ/My2gcZYfz4vBMnUM/448lmg6aRwdT0w8o/ypKNIPk6h/u34+pRljNJ0jatI7U8IoIv14F0FdigbRdNI4Op6YHkb542U50o/nJtchms4RNemdaWOUC0GRfs1ydiZR+cPqE00njaPjielklD9qFiL99Iymc0RNemeaGU13pB+f0tQzmk4aR8cTU84of+bF7upZupT0RPppHk3niJr0zkwwytXhWXyTPkg9i6ZTmYFWGp3ITswQo0lPl8KnNBMRTacW32wxyrVLXKQfH3reeHc/KdF0YFSNAkmJ9IsxQYgaoQNfJYvtaL9oOqdL4dF0qZnS7JfdVznrjPJJVN0i/fjQc2xuIt4EIb5ICu9gMHqu7dr2hiY5/VIQTaeWVzBq0TPeSL/URNNZNA28AUYdJKzPv4w40o9PadbnXzrUJvO7wKgzAvtHB6MfH0eQ04+GnrXc6MfHGiYIcZYm8r1g1E3y80i/0NKlMKM4PDWSvmg6N039/wZGL9eMIv2MktpJVJ4gJK3RdJdr6ucIMOpVLYr0U/ElKg09J4eefn3m9caZPw6M+kDgfGE02cTTfOgZ6nJbPh4mOYeCUd+2+hvpV/L1lSlfbkvb3HS+VYjwBDAqKTalS/GW049H00Wz3Jbkw+h9GhiVt8+/hdEGJJ7mQ88ol9uSfxiNzwSjQY2zuds9Xx2lUSD3n/9vFPg3xNmMpguqqfV8MGrVQ3br+PRksbs6szI7vdyeWZld7K4mNLmSrAAhngdGQxQXl1aiABhVIiMuEqICYDREcXFpJQqAUSUy4iIhKgBGQxQXl1aiABhVIiMuEqICYDREcXFpJQqAUSUy4iIhKgBGQxQXl1aiABhVIiMuEqICYDREcXFpJQr8H75J94ePXebxAAAAAElFTkSuQmCC;" parent="1" vertex="1">
          <mxGeometry x="320" y="327.5" width="65" height="65" as="geometry" />
        </mxCell>
        <mxCell id="FvDgJU4ZKAipWWwaP9Bs-7" value="" style="endArrow=none;html=1;rounded=0;" parent="1" edge="1">
          <mxGeometry width="50" height="50" relative="1" as="geometry">
            <mxPoint x="430" y="423.7" as="sourcePoint" />
            <mxPoint x="550" y="280" as="targetPoint" />
          </mxGeometry>
        </mxCell>
        <mxCell id="FvDgJU4ZKAipWWwaP9Bs-8" value="" style="endArrow=none;html=1;rounded=0;" parent="1" edge="1">
          <mxGeometry width="50" height="50" relative="1" as="geometry">
            <mxPoint x="560" y="430" as="sourcePoint" />
            <mxPoint x="430" y="280" as="targetPoint" />
          </mxGeometry>
        </mxCell>
        <mxCell id="FvDgJU4ZKAipWWwaP9Bs-16" style="edgeStyle=orthogonalEdgeStyle;rounded=0;orthogonalLoop=1;jettySize=auto;html=1;startArrow=classic;startFill=1;" parent="1" source="FvDgJU4ZKAipWWwaP9Bs-20" edge="1">
          <mxGeometry relative="1" as="geometry">
            <mxPoint x="180" y="580.0999999999999" as="sourcePoint" />
            <mxPoint x="430" y="580" as="targetPoint" />
          </mxGeometry>
        </mxCell>
        <mxCell id="FvDgJU4ZKAipWWwaP9Bs-17" value="使用者&amp;nbsp;" style="verticalLabelPosition=bottom;aspect=fixed;html=1;shape=mxgraph.salesforce.web;" parent="1" vertex="1">
          <mxGeometry x="120" y="546.3" width="60" height="47.400000000000006" as="geometry" />
        </mxCell>
        <mxCell id="FvDgJU4ZKAipWWwaP9Bs-18" value="Web Server" style="image;aspect=fixed;perimeter=ellipsePerimeter;html=1;align=center;shadow=0;dashed=0;spacingTop=3;image=img/lib/active_directory/web_server.svg;" parent="1" vertex="1">
          <mxGeometry x="430" y="510" width="112" height="140" as="geometry" />
        </mxCell>
        <mxCell id="FvDgJU4ZKAipWWwaP9Bs-19" value="" style="edgeStyle=orthogonalEdgeStyle;rounded=0;orthogonalLoop=1;jettySize=auto;html=1;startArrow=classic;startFill=1;" parent="1" target="FvDgJU4ZKAipWWwaP9Bs-20" edge="1">
          <mxGeometry relative="1" as="geometry">
            <mxPoint x="180" y="580.0999999999999" as="sourcePoint" />
            <mxPoint x="430" y="580" as="targetPoint" />
          </mxGeometry>
        </mxCell>
        <mxCell id="FvDgJU4ZKAipWWwaP9Bs-20" value="Nginx " style="shape=image;verticalLabelPosition=bottom;labelBackgroundColor=default;verticalAlign=top;aspect=fixed;imageAspect=0;image=data:image/png,iVBORw0KGgoAAAANSUhEUgAAAOEAAADhCAIAAACx0UUtAAATCElEQVR4Ae2dz2vUzhvH5y/4/heCp9JlYWEXXFjYgycPigd7KuJZkIJ4EOlRCt3dsFk+IEpFq2BFkPXQIrjgoVgotNKCvbSlsHiwtBRLC6Wl7NenU8dNk02TySSZJG/xMMnmx+T9vDozT+bJM6yHf1BAbwWY3tVD7aBAD4wCAt0VAKO6Wwj1A6NgQHcFwKjuFkL9wCgY0F0BMKq7hVA/MAoGdFcAjOpuIdQPjCpj4Pj0ZHO3u7a9sbnbPT49UXbdzF8IjCpAYGZltvhqlNVyrFE4/1/LFV+NzqzMKrh65i8BRgMh0FlfYK0qM0qsVf3ff9f7/4v9nfWFQPfI/MlgVBKBzd3utdd3WaPQz6VjmTUK117f3dztSt4p86eBUd8I7B8djM1NsMkhe9vpyOj//rtOberk0NjcxP7Rge/7Zf4EMOoPgenlNo04zcogHF32M7PCGoXp5ba/W2b+aDDqFYH5rSVqEY2SC4VefuJXmN9a8nrjzB8HRi9H4OfvXzfe3Wf1vPfO3R1W6vrr+Rvv7v/8/evy22f+CDDqhsDx6cl4x/Q19HSns/9XPkgd75h4mepmgx5inAfL8/b7J2YUWbPcD5byMmuWmVF8+/3T4Ipk/Re0ow4ELHZXrzy/xYyiciIHXZAZxSvPby12Vx1qk/ldYNSCwM7h3p0PDxUOPQdBad/PB6l3PjzcOdyz1CnzG2D0HwJPvz6joafUeyU7c3J76P3U5NDTr8/+VSvzJTBKCLR/fKFxYchDT+/U8sq0f3zJPJ8kQNYZXdveGJ4a8TKl6Z0wVUeyRmF4amRteyPjpGaX0f2jg3vtJxSsZAsHUQVZ8OvQILWWu9d+kuVJ1Iwyan57Q3TGOvT0TjANUms589ubbDaomWNURNN5R0STI3kEYAYj/TLEqPdoOk2gdKxGBiP9MsHo8emJ32g6Rz402cknUcfmJjIyiZp+RoNE02kCpWM1shPpl2ZGVUXTOSKiyc4sRPqlk1Hl0XSaEOlYDT6JmuJIv7QxGmo0nSMimuzkg9RURvqlitGZlVl6QaPNlGb0+J5F+pVS9s10Shhd7K5efXE7ymi66PnzfkdmFK++uJ2aSL/EM3oeTaf3lKZ3vFQdySdR0xHpl2xG6/MvY4+mU0VVGNfhkX71+ZeJnkRNKqMUTWdWsjz09M40DVLNSnIj/ZLH6Nr2BiVX8pAgxLsVs3AkaxSKr0aTGOmXJEYTEU2nM+58kJq4SL/EMErRdPV8UqLptCbVrLB6PkGRfglgtLO+oCRBiM7cRF83PomaiEg/rRkV0XQ6h8pHj5eqO1LXn4Scfpoyenx68uhzLaQEIapsnI7r8EnUR59r2kb66cjoeTRdhqc0o6ef3k/pmtNPL0bnt5bOEoQEzU0XvY3TcUdmlK48v6VbTj9dGP35+9fN9w9iSRCSDrxUPQV1/fX8zfcP9MnppwWj4eWmU2W5rF2HD1LHO6YOk6gxM4poOp3p1yTSLzZGzxOERJibTmcadK4bM4rxpkuJgdGdw73Rj481TxCiMzTR1426/lpu9OPjWHL6Rc0oRdMlJ0FI9DTofEeeLiX6SL/oGEU0nc78ea9b9JF+UTCKaDrvBCTlyCgj/cJlVGK5raQYCfXk76ciWBgtREYRTZcFjmmQGnKkXyiMIpouC3T2P2OokX7qGaXEs+qW2+oXAmWdFeCTqPfaT5RPTSlmlJYiRrySdZFwncFSXjfWLF97fVctpioZpRYUgGYYUE48a5bVtqbKGJ3fWmK1nPK/S1wwiQqwWk5hgJ8yRml1Do0XP0iipZNbZ9aqDk+NqOrx1TC6udtFI5pcpMKoOavlNne7SjBVw+jZ8q8Inr8ehrETek1mlFQt1KuGUQpSTsg6Mgk1eeKq/efdvqoQaTWM0ooIujLK00LRKt9G6fx/s5zooTM9Uf+zaKk8MytjcxMa9fUaMkqvlBsF1qqOzU1ML7fbP7501hc66wszK7NPvz678e4+/WoUtf3Tsjec/In+pMMY75gzK7P8caaX2/TKj55Fr7EWGL1k5Me/Grs0Sexid5X+uup5/V/rMqM0PDXi8kKHPvg2ivr0D2B0IKPU2DTLLra09z7Hpye0KrjGWXZZPe9ltfD9owN95vnAqDOjvBWRW/5153CPDKxZj0mJrur56eW2/U9r0B4axmgwQgWjAxg1SnKACnvTCwqdMpuyZlnC89ChxwejDoyyRkFJFjj64kobTJlZEX8/3gs0Lx33I4DRi4yqnXwjR0qDTp81y756+X6IY5+aBqM2Rg3FixLR2DTuUR2r5aSHLrHP/IFRG6ONgtr8RMenJ+SvxBclw1rVqy9u9zeNvsoUQRFrdw9GbYzW88rTZ/78/StGMzOzEiQK88+alKyet08ERLYHjNoYreV8NTMeD17srrLJocjs2n+j4DaONxIteP2FjVIyX8/CYbTX69H8TRwNUnAbg1FBORVin68Pj9Fer0dZzyN388GoIAztqJDCrRD95A0YFfYAo0KKSwoRu/lgVNgDjAopLinsHO5F6eaDUWEPMCqkuLwQpZsPRoU9wKiQwlOBkqNH4uaDUWEPMCqk8FqIxs0Ho8IeYFRI4aMQgZsPRoU9wKiQwl+B1joLczYfjAp7gFEhhb9C2G4+GBX2AKNCCt+FUN18MCrsAUaFFDKF8Nx8MCrsAUaFFJIF+gQqhNl8MCrsAUaFFPKFMNx8MCrsAUaFFIEKyt18MCrsAUaFFIEK5OYrXfsUjAp7gFEhRdDC2vaGwqB9MCrsAUZJClVLtdJ6k4pm88EoGBUKUGH042NVSYdVuflgVFgI7ShJQd+6NMuqviy9+f5B8G/zwSgYFQr8ZdQoKVxYKLibD0aFhdCO/mXUrMglABNS9hf2jw4CuvlgVOgJRv8xSl8sNQrmtzdCnSCFgG4+GBXig1ELo4Tp5JCvFLtCSnuB3HzZddXAqNATjF5klDCt5VRlj6IM0VLv9sEoGBUKODHaqrJWVZWbf+fDQ4l8+2BUWAjtqAOj1JSaleKrUSFTwMLVF7f9Bu2DUaE5GHVmlDBVt37wmZvvb20aMApGhQIDGSVM43PzwaiwENpRN0YJ08khJWn2e72eLzcfjIJRocAljBKm6pYQ9u7mg1FhIbSjHhhtVZlZidjNB6NgVChwOaPUlLaqCt18L4t+gFFhIbSjnhglTNW6+c1yf2ZxexmMglGhgFdGCVN1bj6t++GaaR+MCguhHfXBKGGqzs3vrC+4zOaDUTAqFPDHKGGqzs2ndR8HzOaDUWEhtKP+GT1z86VXoBPS88Lox8eOs/lgVAgFRn0zSk1pqzo8NSJEDFhwdPPBqFAVjMowSpg2y6MfHwsdgxRoNt+sXAg6AaNCUjAqyShhahTr8y+FlEEK5OZbo6HBqNATjMozyv0nVbP55Ob3vY0Co2BUKBCIUcJ0ckjVt/nmtzdieR0wKiyEdjQoo3xsqsrNv9d+wt18MApGhQIqGA3BzQejwkJoRxUwypvSOx8eClmDFGjpeRUf+19wwuwhAaHuCf43JjQEo2oYJUzVuvmTQ2NzE8JOEgUwahEt6WuDq6o/q+XaP75YpJHd6KwvBHz/CkYt2quysXTvE3D9eoX1Z5NDa9sbFnVkNxa7q7Kn0nlg1KKeQhvLYaoPo2edfkmVm29R2ecGGLUIBkb7/7RYq3r1xW2LQHFsgFGL6mC0n1G1br5FaD8bYNSiFhi9wCh3859+fWaRKdoNMGrRG4zaGSVM1bn5Frm9bYBRi05g1JFRwlSdm29R3MMGGLWIBEYHMXrW6cfj5oNRMHrdhcv+n1ireuX5LYtekWyAUYvMaEf7obSXWbN88/0Di2Thb4BRi8Zg1M7lhT3MKI53TItqIW+AUYvAYPQCkY6brJ5XNZtvUX/ABhi1CANGHaG074zSzQejYNSrz3SBVGYUVS1ParGBbQOMWiRBO3oBRJfNyNx8MApGJdtRemNqViJw88EoGJVnlL/YD9vNB6NgNBCjhGk9P7Mya9FR6QYYtciJ8ajLANTlJzY5FDDY3mIG6wYYtegBRl1AdP8pPDcfjKaKUcq8YFbcYQrp1/DcfDCqGaONQpBVaK+9vnshbV1IRDpelpmVG+/uWwQNvLFzuMfqecfbRbMT39df9FeYUZKeZqScC9acddFYsf8uzCg9+lwLTOa/C1CGM8Pf6o/99QleBqM2RltV6TQhtPxcrObkQKh182mx51Y1OGrSVwCjFxmlVzmyaeod0yhL2ybIiWxyaH5r6V9jKFuyZzMNUiu5c8GoE6Ot6rXXd/2adXq5PWjVBDnbBDxLybolEkuRB6y2/XQw6sCoxOTN2vZG7CNRB+vWckE+KKVe/rIFyuw3Vb4HjDozSpg2Ch6dj/mtpXg9XxcsWLN85fktv/3+/tEBvaDQAFAyhFkJmFNNdIkpyZvXb29mlIanRlySLh2fnjz6XNOwBbU8RavKGoXhqZH2jy+XLqd7fHrCc0DH6ydZ6g9G++Wwl1mryur5a6/vvv3+aW17Y+dwb+dwb3O321lfoCmxej6uN/b2qrrvoQcxSqyev/HuvvntTWd9YXO3yx/n5+9fa9sbMyuzNAFRz2vSfIrHQTs6sK8XGlF3ww3cKJAJ63nWKJC9Y5pP6q+YRJmepVmm+vc/jsZPpB2j1HUm0/YSuOAULwows+LRMRDjzkEFNeNRGgzpMVT3Ih+OiUAB1iyb394Mws7XfjWMLnZXxaItETw/bqG/AqxRUBV2qIZRyhoc68yb/jbLWg1Zq+qrsXQ5WBmjb79/0mrCJmtMaPW8zCi+/f7JBTtfPyljtNfr6TPxrZXBslYZtYtSUxfti2j3g2n9YKOETj9rUPY/L3/fp3Y5AJWM9nq9ncM9ejEJH/8/T29w+62bgjK3u/IMF4oZ5Q3teMdkk0NoUFOAncdHoOZzciikr7FDYbTX6/38/evm+wc0uwN/P9VtKtFZz998/yDItzruY8iwGOV3nd9auvL8lg5R7h7bAxzmSwFmlCTis9yJtP8aLqP8fhRH3ChgstSX+TU/mFbdbRSml9t2pJTviYLRXq93Hg6HQWry+30+9Hz0uXZpxKAqWCNilFd3c7dLQbiNguaNBKo3SAHWKFx7fXdzt6uKPy/XiZRRXqHO+gK9n9LgU8xBlsB+uwLcXp31BS9UqT0mBkb5A1CoVHJije02y84eGnrW86qCmCTwjY3RXq+3f3RAMeS1HN5P6Uk8DT1ruXvtJ2rnjfxiGiejvK5r2xs00Y9BqmbuFGsUiq9GXT4L84ua9PHxM8qrTslCzAomUXVoUOmjFLMinZtImsVBJ+rCKK/f06/PqOvHZycxtanUTAT7un8QZ0H268Uoj0qhLAaYRI0WUz70vPPhofKIkCB08nO1Y5RXa7G7SglhjKIOfV/q68CM4pXnt1R92hEcygtX0JRRXsuZldk/SxhikBreHwn/HjrUtPwXgJPY1JpRPomKSL8wGOVTmuMdM7IpTQk6+Sm6M8pr+fP3rxvv7mOQqgRWovMs8Ul40XTSODqemAxGedXnt5YwiRoQUz6l6TfbmSM6ke1MEqNcFET6yWEaZTSdWnyTxygfpFJqMUT6eXs/xYeeY3MT+g89HeFOJKP8SRDp56VBjSWazhE16Z0JZpQ/My2gcZYfz4vBMnUM/448lmg6aRwdT0w8o/ypKNIPk6h/u34+pRljNJ0jatI7U8IoIv14F0FdigbRdNI4Op6YHkb542U50o/nJtchms4RNemdaWOUC0GRfs1ydiZR+cPqE00njaPjielklD9qFiL99Iymc0RNemeaGU13pB+f0tQzmk4aR8cTU84of+bF7upZupT0RPppHk3niJr0zkwwytXhWXyTPkg9i6ZTmYFWGp3ITswQo0lPl8KnNBMRTacW32wxyrVLXKQfH3reeHc/KdF0YFSNAkmJ9IsxQYgaoQNfJYvtaL9oOqdL4dF0qZnS7JfdVznrjPJJVN0i/fjQc2xuIt4EIb5ICu9gMHqu7dr2hiY5/VIQTaeWVzBq0TPeSL/URNNZNA28AUYdJKzPv4w40o9PadbnXzrUJvO7wKgzAvtHB6MfH0eQ04+GnrXc6MfHGiYIcZYm8r1g1E3y80i/0NKlMKM4PDWSvmg6N039/wZGL9eMIv2MktpJVJ4gJK3RdJdr6ucIMOpVLYr0U/ElKg09J4eefn3m9caZPw6M+kDgfGE02cTTfOgZ6nJbPh4mOYeCUd+2+hvpV/L1lSlfbkvb3HS+VYjwBDAqKTalS/GW049H00Wz3Jbkw+h9GhiVt8+/hdEGJJ7mQ88ol9uSfxiNzwSjQY2zuds9Xx2lUSD3n/9vFPg3xNmMpguqqfV8MGrVQ3br+PRksbs6szI7vdyeWZld7K4mNLmSrAAhngdGQxQXl1aiABhVIiMuEqICYDREcXFpJQqAUSUy4iIhKgBGQxQXl1aiABhVIiMuEqICYDREcXFpJQqAUSUy4iIhKgBGQxQXl1aiABhVIiMuEqICYDREcXFpJQr8H75J94ePXebxAAAAAElFTkSuQmCC;" parent="1" vertex="1">
          <mxGeometry x="320" y="547.5" width="65" height="65" as="geometry" />
        </mxCell>
        <mxCell id="9g0iIzlrFkyKwQP7tY-k-7" style="edgeStyle=orthogonalEdgeStyle;rounded=0;orthogonalLoop=1;jettySize=auto;html=1;entryX=0.5;entryY=0;entryDx=0;entryDy=0;" parent="1" source="9g0iIzlrFkyKwQP7tY-k-3" target="9g0iIzlrFkyKwQP7tY-k-4" edge="1">
          <mxGeometry relative="1" as="geometry" />
        </mxCell>
        <mxCell id="9g0iIzlrFkyKwQP7tY-k-3" value="1. 準備更新" style="rounded=0;whiteSpace=wrap;html=1;" parent="1" vertex="1">
          <mxGeometry x="620" y="110" width="120" height="60" as="geometry" />
        </mxCell>
        <mxCell id="9g0iIzlrFkyKwQP7tY-k-8" style="edgeStyle=orthogonalEdgeStyle;rounded=0;orthogonalLoop=1;jettySize=auto;html=1;exitX=0.5;exitY=1;exitDx=0;exitDy=0;" parent="1" source="9g0iIzlrFkyKwQP7tY-k-4" target="9g0iIzlrFkyKwQP7tY-k-5" edge="1">
          <mxGeometry relative="1" as="geometry" />
        </mxCell>
        <mxCell id="9g0iIzlrFkyKwQP7tY-k-4" value="2. 更新程式中" style="rounded=0;whiteSpace=wrap;html=1;" parent="1" vertex="1">
          <mxGeometry x="620" y="330" width="120" height="60" as="geometry" />
        </mxCell>
        <mxCell id="9g0iIzlrFkyKwQP7tY-k-5" value="3. 完成部署" style="rounded=0;whiteSpace=wrap;html=1;" parent="1" vertex="1">
          <mxGeometry x="620" y="560" width="120" height="60" as="geometry" />
        </mxCell>
        <mxCell id="9g0iIzlrFkyKwQP7tY-k-11" value="" style="rounded=0;whiteSpace=wrap;html=1;dashed=1;fillColor=none;" parent="1" vertex="1">
          <mxGeometry x="50" y="490" width="580" height="212.5" as="geometry" />
        </mxCell>
      </root>
    </mxGraphModel>
  </diagram>
  <diagram id="5LIhcFaUHC9UYg3j6c0n" name="第 2 页">
    <mxGraphModel dx="1434" dy="844" grid="1" gridSize="10" guides="1" tooltips="1" connect="1" arrows="1" fold="1" page="1" pageScale="1" pageWidth="1169" pageHeight="827" math="0" shadow="0">
      <root>
        <mxCell id="0" />
        <mxCell id="1" parent="0" />
        <mxCell id="pQStGh4DvQwTjJQCDiQ1-1" value="Web Server" style="image;aspect=fixed;perimeter=ellipsePerimeter;html=1;align=center;shadow=0;dashed=0;spacingTop=3;image=img/lib/active_directory/web_server.svg;" vertex="1" parent="1">
          <mxGeometry x="620" y="30" width="112" height="140" as="geometry" />
        </mxCell>
        <mxCell id="IDvbn6GWvZwWq-rkQE7W-1" value="Nginx " style="shape=image;verticalLabelPosition=bottom;labelBackgroundColor=default;verticalAlign=top;aspect=fixed;imageAspect=0;image=data:image/png,iVBORw0KGgoAAAANSUhEUgAAAOEAAADhCAIAAACx0UUtAAATCElEQVR4Ae2dz2vUzhvH5y/4/heCp9JlYWEXXFjYgycPigd7KuJZkIJ4EOlRCt3dsFk+IEpFq2BFkPXQIrjgoVgotNKCvbSlsHiwtBRLC6Wl7NenU8dNk02TySSZJG/xMMnmx+T9vDozT+bJM6yHf1BAbwWY3tVD7aBAD4wCAt0VAKO6Wwj1A6NgQHcFwKjuFkL9wCgY0F0BMKq7hVA/MAoGdFcAjOpuIdQPjCpj4Pj0ZHO3u7a9sbnbPT49UXbdzF8IjCpAYGZltvhqlNVyrFE4/1/LFV+NzqzMKrh65i8BRgMh0FlfYK0qM0qsVf3ff9f7/4v9nfWFQPfI/MlgVBKBzd3utdd3WaPQz6VjmTUK117f3dztSt4p86eBUd8I7B8djM1NsMkhe9vpyOj//rtOberk0NjcxP7Rge/7Zf4EMOoPgenlNo04zcogHF32M7PCGoXp5ba/W2b+aDDqFYH5rSVqEY2SC4VefuJXmN9a8nrjzB8HRi9H4OfvXzfe3Wf1vPfO3R1W6vrr+Rvv7v/8/evy22f+CDDqhsDx6cl4x/Q19HSns/9XPkgd75h4mepmgx5inAfL8/b7J2YUWbPcD5byMmuWmVF8+/3T4Ipk/Re0ow4ELHZXrzy/xYyiciIHXZAZxSvPby12Vx1qk/ldYNSCwM7h3p0PDxUOPQdBad/PB6l3PjzcOdyz1CnzG2D0HwJPvz6joafUeyU7c3J76P3U5NDTr8/+VSvzJTBKCLR/fKFxYchDT+/U8sq0f3zJPJ8kQNYZXdveGJ4a8TKl6Z0wVUeyRmF4amRteyPjpGaX0f2jg3vtJxSsZAsHUQVZ8OvQILWWu9d+kuVJ1Iwyan57Q3TGOvT0TjANUms589ubbDaomWNURNN5R0STI3kEYAYj/TLEqPdoOk2gdKxGBiP9MsHo8emJ32g6Rz402cknUcfmJjIyiZp+RoNE02kCpWM1shPpl2ZGVUXTOSKiyc4sRPqlk1Hl0XSaEOlYDT6JmuJIv7QxGmo0nSMimuzkg9RURvqlitGZlVl6QaPNlGb0+J5F+pVS9s10Shhd7K5efXE7ymi66PnzfkdmFK++uJ2aSL/EM3oeTaf3lKZ3vFQdySdR0xHpl2xG6/MvY4+mU0VVGNfhkX71+ZeJnkRNKqMUTWdWsjz09M40DVLNSnIj/ZLH6Nr2BiVX8pAgxLsVs3AkaxSKr0aTGOmXJEYTEU2nM+58kJq4SL/EMErRdPV8UqLptCbVrLB6PkGRfglgtLO+oCRBiM7cRF83PomaiEg/rRkV0XQ6h8pHj5eqO1LXn4Scfpoyenx68uhzLaQEIapsnI7r8EnUR59r2kb66cjoeTRdhqc0o6ef3k/pmtNPL0bnt5bOEoQEzU0XvY3TcUdmlK48v6VbTj9dGP35+9fN9w9iSRCSDrxUPQV1/fX8zfcP9MnppwWj4eWmU2W5rF2HD1LHO6YOk6gxM4poOp3p1yTSLzZGzxOERJibTmcadK4bM4rxpkuJgdGdw73Rj481TxCiMzTR1426/lpu9OPjWHL6Rc0oRdMlJ0FI9DTofEeeLiX6SL/oGEU0nc78ea9b9JF+UTCKaDrvBCTlyCgj/cJlVGK5raQYCfXk76ciWBgtREYRTZcFjmmQGnKkXyiMIpouC3T2P2OokX7qGaXEs+qW2+oXAmWdFeCTqPfaT5RPTSlmlJYiRrySdZFwncFSXjfWLF97fVctpioZpRYUgGYYUE48a5bVtqbKGJ3fWmK1nPK/S1wwiQqwWk5hgJ8yRml1Do0XP0iipZNbZ9aqDk+NqOrx1TC6udtFI5pcpMKoOavlNne7SjBVw+jZ8q8Inr8ehrETek1mlFQt1KuGUQpSTsg6Mgk1eeKq/efdvqoQaTWM0ooIujLK00LRKt9G6fx/s5zooTM9Uf+zaKk8MytjcxMa9fUaMkqvlBsF1qqOzU1ML7fbP7501hc66wszK7NPvz678e4+/WoUtf3Tsjec/In+pMMY75gzK7P8caaX2/TKj55Fr7EWGL1k5Me/Grs0Sexid5X+uup5/V/rMqM0PDXi8kKHPvg2ivr0D2B0IKPU2DTLLra09z7Hpye0KrjGWXZZPe9ltfD9owN95vnAqDOjvBWRW/5153CPDKxZj0mJrur56eW2/U9r0B4axmgwQgWjAxg1SnKACnvTCwqdMpuyZlnC89ChxwejDoyyRkFJFjj64kobTJlZEX8/3gs0Lx33I4DRi4yqnXwjR0qDTp81y756+X6IY5+aBqM2Rg3FixLR2DTuUR2r5aSHLrHP/IFRG6ONgtr8RMenJ+SvxBclw1rVqy9u9zeNvsoUQRFrdw9GbYzW88rTZ/78/StGMzOzEiQK88+alKyet08ERLYHjNoYreV8NTMeD17srrLJocjs2n+j4DaONxIteP2FjVIyX8/CYbTX69H8TRwNUnAbg1FBORVin68Pj9Fer0dZzyN388GoIAztqJDCrRD95A0YFfYAo0KKSwoRu/lgVNgDjAopLinsHO5F6eaDUWEPMCqkuLwQpZsPRoU9wKiQwlOBkqNH4uaDUWEPMCqk8FqIxs0Ho8IeYFRI4aMQgZsPRoU9wKiQwl+B1joLczYfjAp7gFEhhb9C2G4+GBX2AKNCCt+FUN18MCrsAUaFFDKF8Nx8MCrsAUaFFJIF+gQqhNl8MCrsAUaFFPKFMNx8MCrsAUaFFIEKyt18MCrsAUaFFIEK5OYrXfsUjAp7gFEhRdDC2vaGwqB9MCrsAUZJClVLtdJ6k4pm88EoGBUKUGH042NVSYdVuflgVFgI7ShJQd+6NMuqviy9+f5B8G/zwSgYFQr8ZdQoKVxYKLibD0aFhdCO/mXUrMglABNS9hf2jw4CuvlgVOgJRv8xSl8sNQrmtzdCnSCFgG4+GBXig1ELo4Tp5JCvFLtCSnuB3HzZddXAqNATjF5klDCt5VRlj6IM0VLv9sEoGBUKODHaqrJWVZWbf+fDQ4l8+2BUWAjtqAOj1JSaleKrUSFTwMLVF7f9Bu2DUaE5GHVmlDBVt37wmZvvb20aMApGhQIDGSVM43PzwaiwENpRN0YJ08khJWn2e72eLzcfjIJRocAljBKm6pYQ9u7mg1FhIbSjHhhtVZlZidjNB6NgVChwOaPUlLaqCt18L4t+gFFhIbSjnhglTNW6+c1yf2ZxexmMglGhgFdGCVN1bj6t++GaaR+MCguhHfXBKGGqzs3vrC+4zOaDUTAqFPDHKGGqzs2ndR8HzOaDUWEhtKP+GT1z86VXoBPS88Lox8eOs/lgVAgFRn0zSk1pqzo8NSJEDFhwdPPBqFAVjMowSpg2y6MfHwsdgxRoNt+sXAg6AaNCUjAqyShhahTr8y+FlEEK5OZbo6HBqNATjMozyv0nVbP55Ob3vY0Co2BUKBCIUcJ0ckjVt/nmtzdieR0wKiyEdjQoo3xsqsrNv9d+wt18MApGhQIqGA3BzQejwkJoRxUwypvSOx8eClmDFGjpeRUf+19wwuwhAaHuCf43JjQEo2oYJUzVuvmTQ2NzE8JOEgUwahEt6WuDq6o/q+XaP75YpJHd6KwvBHz/CkYt2quysXTvE3D9eoX1Z5NDa9sbFnVkNxa7q7Kn0nlg1KKeQhvLYaoPo2edfkmVm29R2ecGGLUIBkb7/7RYq3r1xW2LQHFsgFGL6mC0n1G1br5FaD8bYNSiFhi9wCh3859+fWaRKdoNMGrRG4zaGSVM1bn5Frm9bYBRi05g1JFRwlSdm29R3MMGGLWIBEYHMXrW6cfj5oNRMHrdhcv+n1ireuX5LYtekWyAUYvMaEf7obSXWbN88/0Di2Thb4BRi8Zg1M7lhT3MKI53TItqIW+AUYvAYPQCkY6brJ5XNZtvUX/ABhi1CANGHaG074zSzQejYNSrz3SBVGYUVS1ParGBbQOMWiRBO3oBRJfNyNx8MApGJdtRemNqViJw88EoGJVnlL/YD9vNB6NgNBCjhGk9P7Mya9FR6QYYtciJ8ajLANTlJzY5FDDY3mIG6wYYtegBRl1AdP8pPDcfjKaKUcq8YFbcYQrp1/DcfDCqGaONQpBVaK+9vnshbV1IRDpelpmVG+/uWwQNvLFzuMfqecfbRbMT39df9FeYUZKeZqScC9acddFYsf8uzCg9+lwLTOa/C1CGM8Pf6o/99QleBqM2RltV6TQhtPxcrObkQKh182mx51Y1OGrSVwCjFxmlVzmyaeod0yhL2ybIiWxyaH5r6V9jKFuyZzMNUiu5c8GoE6Ot6rXXd/2adXq5PWjVBDnbBDxLybolEkuRB6y2/XQw6sCoxOTN2vZG7CNRB+vWckE+KKVe/rIFyuw3Vb4HjDozSpg2Ch6dj/mtpXg9XxcsWLN85fktv/3+/tEBvaDQAFAyhFkJmFNNdIkpyZvXb29mlIanRlySLh2fnjz6XNOwBbU8RavKGoXhqZH2jy+XLqd7fHrCc0DH6ydZ6g9G++Wwl1mryur5a6/vvv3+aW17Y+dwb+dwb3O321lfoCmxej6uN/b2qrrvoQcxSqyev/HuvvntTWd9YXO3yx/n5+9fa9sbMyuzNAFRz2vSfIrHQTs6sK8XGlF3ww3cKJAJ63nWKJC9Y5pP6q+YRJmepVmm+vc/jsZPpB2j1HUm0/YSuOAULwows+LRMRDjzkEFNeNRGgzpMVT3Ih+OiUAB1iyb394Mws7XfjWMLnZXxaItETw/bqG/AqxRUBV2qIZRyhoc68yb/jbLWg1Zq+qrsXQ5WBmjb79/0mrCJmtMaPW8zCi+/f7JBTtfPyljtNfr6TPxrZXBslYZtYtSUxfti2j3g2n9YKOETj9rUPY/L3/fp3Y5AJWM9nq9ncM9ejEJH/8/T29w+62bgjK3u/IMF4oZ5Q3teMdkk0NoUFOAncdHoOZzciikr7FDYbTX6/38/evm+wc0uwN/P9VtKtFZz998/yDItzruY8iwGOV3nd9auvL8lg5R7h7bAxzmSwFmlCTis9yJtP8aLqP8fhRH3ChgstSX+TU/mFbdbRSml9t2pJTviYLRXq93Hg6HQWry+30+9Hz0uXZpxKAqWCNilFd3c7dLQbiNguaNBKo3SAHWKFx7fXdzt6uKPy/XiZRRXqHO+gK9n9LgU8xBlsB+uwLcXp31BS9UqT0mBkb5A1CoVHJije02y84eGnrW86qCmCTwjY3RXq+3f3RAMeS1HN5P6Uk8DT1ruXvtJ2rnjfxiGiejvK5r2xs00Y9BqmbuFGsUiq9GXT4L84ua9PHxM8qrTslCzAomUXVoUOmjFLMinZtImsVBJ+rCKK/f06/PqOvHZycxtanUTAT7un8QZ0H268Uoj0qhLAaYRI0WUz70vPPhofKIkCB08nO1Y5RXa7G7SglhjKIOfV/q68CM4pXnt1R92hEcygtX0JRRXsuZldk/SxhikBreHwn/HjrUtPwXgJPY1JpRPomKSL8wGOVTmuMdM7IpTQk6+Sm6M8pr+fP3rxvv7mOQqgRWovMs8Ul40XTSODqemAxGedXnt5YwiRoQUz6l6TfbmSM6ke1MEqNcFET6yWEaZTSdWnyTxygfpFJqMUT6eXs/xYeeY3MT+g89HeFOJKP8SRDp56VBjSWazhE16Z0JZpQ/My2gcZYfz4vBMnUM/448lmg6aRwdT0w8o/ypKNIPk6h/u34+pRljNJ0jatI7U8IoIv14F0FdigbRdNI4Op6YHkb542U50o/nJtchms4RNemdaWOUC0GRfs1ydiZR+cPqE00njaPjielklD9qFiL99Iymc0RNemeaGU13pB+f0tQzmk4aR8cTU84of+bF7upZupT0RPppHk3niJr0zkwwytXhWXyTPkg9i6ZTmYFWGp3ITswQo0lPl8KnNBMRTacW32wxyrVLXKQfH3reeHc/KdF0YFSNAkmJ9IsxQYgaoQNfJYvtaL9oOqdL4dF0qZnS7JfdVznrjPJJVN0i/fjQc2xuIt4EIb5ICu9gMHqu7dr2hiY5/VIQTaeWVzBq0TPeSL/URNNZNA28AUYdJKzPv4w40o9PadbnXzrUJvO7wKgzAvtHB6MfH0eQ04+GnrXc6MfHGiYIcZYm8r1g1E3y80i/0NKlMKM4PDWSvmg6N039/wZGL9eMIv2MktpJVJ4gJK3RdJdr6ucIMOpVLYr0U/ElKg09J4eefn3m9caZPw6M+kDgfGE02cTTfOgZ6nJbPh4mOYeCUd+2+hvpV/L1lSlfbkvb3HS+VYjwBDAqKTalS/GW049H00Wz3Jbkw+h9GhiVt8+/hdEGJJ7mQ88ol9uSfxiNzwSjQY2zuds9Xx2lUSD3n/9vFPg3xNmMpguqqfV8MGrVQ3br+PRksbs6szI7vdyeWZld7K4mNLmSrAAhngdGQxQXl1aiABhVIiMuEqICYDREcXFpJQqAUSUy4iIhKgBGQxQXl1aiABhVIiMuEqICYDREcXFpJQqAUSUy4iIhKgBGQxQXl1aiABhVIiMuEqICYDREcXFpJQr8H75J94ePXebxAAAAAElFTkSuQmCC;" vertex="1" parent="1">
          <mxGeometry x="540" y="80" width="65" height="65" as="geometry" />
        </mxCell>
      </root>
    </mxGraphModel>
  </diagram>
</mxfile>
